{"glyphs":{"0":{"ha":1175,"x_min":138,"x_max":1263,"o":"m 507 -26 q 318 18 401 -26 q 186 156 235 63 q 138 396 138 250 q 161 623 138 506 q 230 854 185 740 q 341 1068 275 968 q 491 1245 407 1168 q 677 1366 575 1322 q 897 1410 779 1410 q 1084 1365 1001 1410 q 1215 1228 1167 1319 q 1263 996 1263 1136 q 1239 765 1263 885 q 1171 531 1215 646 q 1061 317 1126 417 q 912 140 996 217 q 726 18 828 63 q 507 -26 624 -26 m 535 93 q 698 131 621 93 q 842 235 775 168 q 962 388 908 301 q 1053 573 1015 475 q 1110 771 1090 671 q 1131 964 1131 871 q 1098 1156 1131 1085 q 1007 1258 1065 1226 q 868 1290 949 1290 q 703 1253 782 1290 q 558 1149 625 1215 q 438 996 492 1082 q 347 813 385 910 q 290 617 310 717 q 269 428 269 518 q 303 228 269 301 q 396 124 336 154 q 535 93 456 93 z "},"1":{"ha":693,"x_min":208,"x_max":778,"o":"m 265 -19 q 222 -9 236 -19 q 215 22 208 1 l 601 1224 q 520 1169 561 1196 q 441 1120 479 1143 q 368 1079 403 1097 q 317 1065 338 1064 q 281 1097 296 1065 q 278 1144 268 1128 q 322 1179 289 1161 q 414 1232 365 1203 q 510 1294 463 1261 q 599 1360 558 1328 q 640 1391 624 1381 q 675 1406 657 1401 q 722 1410 693 1410 q 764 1399 750 1410 q 771 1368 778 1389 l 342 19 q 317 -11 336 -3 q 265 -19 297 -19 z "},"2":{"ha":1022,"x_min":-36,"x_max":1136,"o":"m 4 0 q -26 15 -15 0 q -34 51 -36 31 q -12 88 -32 72 l 417 425 q 608 579 522 508 q 759 713 693 650 q 873 831 825 775 q 952 935 921 886 q 999 1029 983 983 q 1014 1118 1014 1075 q 988 1217 1014 1178 q 912 1275 963 1256 q 788 1294 861 1294 q 613 1259 690 1294 q 453 1165 535 1224 q 405 1144 425 1143 q 363 1171 385 1144 q 349 1208 344 1190 q 386 1253 354 1226 q 505 1333 438 1297 q 651 1389 572 1368 q 814 1410 731 1410 q 944 1390 885 1410 q 1046 1335 1003 1371 q 1113 1247 1089 1299 q 1136 1133 1136 1196 q 1119 1022 1136 1078 q 1069 907 1103 965 q 983 785 1036 849 q 856 653 929 722 q 689 503 783 583 q 479 332 594 424 l 199 111 l 814 111 q 834 104 828 111 q 840 83 840 97 q 823 23 840 46 q 785 0 806 0 l 4 0 z "},"3":{"ha":1050,"x_min":51,"x_max":1124,"o":"m 463 -26 q 286 12 367 -26 q 149 114 206 50 q 64 258 92 178 q 53 317 51 299 q 89 349 54 336 q 135 354 121 361 q 160 314 149 347 q 231 190 188 242 q 336 112 275 139 q 481 85 397 85 q 639 112 569 85 q 756 188 708 139 q 828 301 803 236 q 853 439 853 365 q 821 571 853 515 q 728 658 789 626 q 583 690 668 690 l 492 690 q 471 703 476 690 q 472 746 465 717 q 494 788 481 774 q 524 801 508 801 l 606 801 q 760 820 689 801 q 885 876 832 839 q 967 972 938 914 q 997 1104 997 1029 q 981 1188 997 1151 q 935 1249 965 1224 q 863 1286 906 1274 q 769 1299 821 1299 q 662 1283 714 1299 q 560 1238 610 1268 q 467 1164 511 1208 q 426 1139 442 1139 q 385 1163 411 1139 q 367 1203 361 1185 q 399 1251 372 1221 q 505 1334 443 1299 q 640 1390 567 1369 q 790 1410 713 1410 q 918 1390 858 1410 q 1024 1331 978 1369 q 1097 1237 1071 1292 q 1124 1113 1124 1182 q 1102 976 1124 1039 q 1040 865 1081 914 q 937 783 999 817 q 792 731 875 749 q 892 671 850 711 q 958 574 935 631 q 981 449 981 517 q 943 264 981 350 q 836 113 906 178 q 672 10 767 47 q 463 -26 576 -26 z "},"4":{"ha":1069,"x_min":69,"x_max":1069,"o":"m 678 -19 q 632 -10 647 -19 q 624 22 617 0 l 738 369 l 114 369 q 76 397 83 369 q 92 450 69 425 l 882 1372 q 919 1402 900 1393 q 972 1410 939 1411 q 1009 1401 993 1407 q 1028 1381 1025 1394 q 1011 1346 1031 1368 l 264 481 l 774 481 l 922 933 q 993 972 935 972 q 1040 963 1025 972 q 1047 931 1054 953 l 900 481 l 1043 481 q 1063 473 1057 481 q 1069 453 1069 465 q 1052 392 1069 414 q 1014 369 1035 369 l 864 369 l 749 19 q 678 -19 736 -19 z "},"5":{"ha":1050,"x_min":35,"x_max":1217,"o":"m 471 -26 q 360 -13 415 -26 q 252 25 304 0 q 153 89 200 50 q 69 179 107 128 q 40 231 46 211 q 63 272 35 250 q 105 292 89 294 q 143 264 121 290 q 242 165 192 204 q 353 106 292 125 q 493 88 414 88 q 663 123 589 88 q 787 220 736 158 q 864 363 838 282 q 890 532 890 443 q 877 633 890 589 q 836 710 864 678 q 764 758 808 742 q 657 775 719 775 q 540 760 594 775 q 435 719 485 744 q 342 661 386 694 q 292 640 321 646 q 247 649 264 635 q 244 703 231 663 l 472 1354 q 488 1376 476 1365 q 519 1386 500 1386 l 1190 1386 q 1210 1378 1203 1386 q 1217 1358 1217 1371 q 1199 1297 1217 1319 q 1161 1275 1182 1275 l 560 1275 l 393 800 q 476 844 432 825 q 568 875 521 864 q 663 886 615 886 q 857 842 778 886 q 977 722 936 799 q 1018 549 1018 644 q 977 304 1018 411 q 862 124 936 197 q 688 12 788 50 q 471 -26 589 -26 z "},"6":{"ha":1128,"x_min":188,"x_max":1192,"o":"m 564 -26 q 368 24 453 -26 q 235 177 283 75 q 188 433 188 279 q 233 724 188 586 q 363 976 279 861 q 563 1181 447 1092 q 819 1327 679 1269 q 1117 1406 960 1385 q 1170 1402 1154 1410 q 1188 1363 1186 1394 q 1176 1316 1192 1326 q 1129 1301 1161 1306 q 851 1226 978 1281 q 625 1089 725 1171 q 456 903 525 1007 q 350 683 386 800 q 314 442 314 567 q 335 274 314 343 q 392 164 356 206 q 477 103 429 122 q 581 85 525 85 q 740 117 668 85 q 864 208 813 150 q 943 342 915 265 q 971 508 971 419 q 939 642 971 586 q 853 726 907 697 q 733 756 799 754 q 627 736 679 756 q 526 684 575 717 q 433 612 476 651 q 356 530 390 572 q 296 451 321 488 l 256 531 q 351 660 297 600 q 469 767 404 721 q 607 840 535 814 q 756 867 679 867 q 892 842 831 867 q 1000 772 954 817 q 1072 666 1046 728 q 1097 531 1097 604 q 1058 303 1097 406 q 948 127 1019 201 q 779 13 876 53 q 564 -26 682 -26 z "},"7":{"ha":851,"x_min":57,"x_max":1142,"o":"m 118 -19 q 63 0 69 -19 q 82 54 57 19 l 953 1275 l 333 1275 q 313 1282 319 1275 q 307 1303 307 1289 q 324 1363 307 1340 q 363 1386 342 1386 l 1092 1386 q 1126 1365 1111 1386 q 1119 1311 1142 1343 l 213 40 q 172 -4 193 11 q 118 -19 150 -19 z "},"8":{"ha":1050,"x_min":63,"x_max":1153,"o":"m 461 -26 q 299 -3 372 -26 q 174 64 226 21 q 92 167 121 107 q 63 301 63 226 q 97 449 63 381 q 192 573 131 517 q 339 675 254 629 q 524 754 424 721 q 417 852 457 801 q 358 956 376 903 q 340 1057 340 1008 q 374 1206 340 1140 q 467 1317 407 1271 q 611 1386 528 1363 q 794 1410 694 1410 q 935 1390 869 1410 q 1050 1335 1001 1371 q 1126 1250 1099 1300 q 1153 1139 1153 1200 q 1125 1004 1153 1065 q 1047 895 1097 943 q 928 810 996 847 q 782 743 861 772 q 894 644 846 699 q 969 527 942 590 q 996 394 996 464 q 955 213 996 292 q 841 81 914 135 q 671 1 768 28 q 461 -26 574 -26 m 488 86 q 635 107 567 86 q 757 167 704 128 q 839 263 810 207 q 868 388 868 318 q 840 508 868 454 q 759 608 811 563 q 632 693 707 654 q 458 622 538 663 q 317 532 378 581 q 224 426 257 483 q 190 303 190 368 q 217 205 190 246 q 286 138 243 164 q 382 99 329 111 q 488 86 435 86 m 676 801 q 862 886 783 838 q 984 992 940 935 q 1028 1111 1028 1050 q 1006 1194 1028 1158 q 949 1252 985 1229 q 867 1286 913 1275 q 772 1297 822 1297 q 655 1283 710 1297 q 557 1241 600 1269 q 490 1169 514 1213 q 465 1067 465 1126 q 494 960 465 1008 q 572 873 524 913 q 676 801 619 833 z "},"9":{"ha":1128,"x_min":164,"x_max":1167,"o":"m 790 1415 q 986 1365 901 1415 q 1119 1212 1071 1314 q 1167 956 1167 1110 q 1121 665 1167 803 q 991 413 1075 528 q 791 208 907 297 q 535 62 675 119 q 238 -17 396 4 q 185 -13 200 -21 q 167 26 169 -6 q 178 73 164 63 q 225 88 193 83 q 503 163 376 108 q 729 300 629 218 q 899 485 829 382 q 1004 706 968 589 q 1040 947 1040 822 q 1019 1115 1040 1046 q 962 1225 999 1183 q 877 1285 925 1267 q 774 1304 829 1304 q 614 1272 686 1304 q 490 1181 542 1239 q 411 1047 439 1124 q 383 881 383 969 q 415 748 383 803 q 501 664 447 693 q 621 633 556 635 q 727 653 675 633 q 828 705 779 672 q 921 777 878 738 q 999 859 964 817 q 1058 938 1033 901 l 1099 858 q 1004 728 1058 789 q 885 622 950 668 q 747 549 819 575 q 599 522 675 522 q 463 547 525 522 q 354 617 400 572 q 283 723 308 661 q 257 858 257 785 q 296 1085 257 983 q 406 1262 335 1188 q 575 1376 478 1336 q 790 1415 672 1415 z "},"\r":{"ha":417,"x_min":0,"x_max":0,"o":""}," ":{"ha":417,"x_min":0,"x_max":0,"o":""}," ":{"ha":139,"x_min":0,"x_max":0,"o":""}," ":{"ha":417,"x_min":0,"x_max":0,"o":""},"Ð":{"ha":1340,"x_min":86,"x_max":1367,"o":"m 147 0 q 99 39 86 0 l 525 1347 q 550 1376 532 1367 q 599 1386 568 1386 l 839 1386 q 1070 1353 971 1386 q 1235 1261 1169 1319 q 1334 1124 1301 1203 q 1367 954 1367 1044 q 1319 641 1367 786 q 1184 378 1271 496 q 981 176 1097 260 q 723 46 864 92 q 428 0 582 0 l 147 0 m 246 118 l 428 118 q 673 156 554 118 q 892 265 792 193 q 1069 440 993 338 q 1186 672 1144 543 q 1228 953 1228 801 q 1201 1085 1228 1026 q 1122 1185 1174 1144 q 999 1247 1071 1225 q 838 1268 926 1268 l 621 1268 l 246 118 m 165 650 q 138 665 140 650 q 139 699 135 681 q 153 735 143 718 q 189 751 163 751 l 736 751 q 765 735 763 751 q 764 699 768 718 q 750 665 760 681 q 715 650 740 650 l 165 650 z "},"Ŋ":{"ha":1368,"x_min":81,"x_max":1517,"o":"m 997 -181 q 935 -323 968 -275 q 863 -387 901 -371 q 776 -404 825 -404 q 689 -378 732 -404 q 611 -306 646 -351 q 597 -267 597 -285 q 622 -231 596 -250 q 660 -215 643 -214 q 690 -232 678 -215 q 726 -270 710 -256 q 756 -291 742 -285 q 786 -297 771 -297 q 826 -283 810 -297 q 855 -237 842 -269 q 885 -153 868 -206 l 942 22 l 593 1185 l 214 19 q 190 -10 208 0 q 142 -19 172 -19 q 93 19 81 -19 l 532 1372 q 557 1401 539 1392 q 604 1410 575 1410 q 642 1401 629 1410 q 663 1372 656 1392 l 1007 221 l 1381 1372 q 1406 1401 1388 1392 q 1453 1410 1424 1410 q 1501 1372 1517 1410 l 997 -181 z "},"Þ":{"ha":1115,"x_min":89,"x_max":1192,"o":"m 149 -19 q 103 -10 118 -19 q 94 22 89 0 l 533 1372 q 556 1401 540 1392 q 601 1410 571 1410 q 648 1400 633 1410 q 656 1368 663 1390 l 596 1192 l 775 1192 q 1006 1159 914 1192 q 1145 1059 1099 1126 q 1192 890 1192 992 q 1148 686 1192 775 q 1023 535 1104 597 q 828 433 942 472 q 576 375 715 393 q 451 365 517 368 q 326 360 386 361 l 217 19 q 195 -10 210 0 q 149 -19 181 -19 m 361 471 q 442 474 400 472 q 526 478 483 475 q 608 489 569 482 q 858 561 757 511 q 1013 690 960 611 q 1065 876 1065 768 q 1033 994 1065 949 q 932 1060 1000 1039 q 756 1081 864 1081 l 558 1081 l 361 471 z "},"ẞ":{"ha":1354,"x_min":79,"x_max":1303,"o":"m 731 -26 q 624 -17 676 -26 q 525 8 572 -8 q 436 50 478 25 q 408 79 414 64 q 417 122 403 94 q 444 156 429 149 q 485 149 458 163 q 563 118 524 131 q 645 99 601 106 q 740 92 689 92 q 874 111 811 92 q 983 169 936 131 q 1058 265 1031 208 q 1083 394 1085 321 q 1070 492 1083 447 q 1035 578 1057 538 q 986 654 1013 618 q 931 725 960 690 q 876 794 903 760 q 827 863 849 828 q 793 938 806 899 q 781 1019 781 976 q 803 1128 782 1079 q 862 1217 824 1178 q 950 1282 900 1256 q 747 1210 829 1258 q 610 1095 665 1161 q 519 949 556 1029 q 453 782 482 869 l 207 19 q 183 -10 201 0 q 135 -19 165 -19 q 92 -10 104 -19 q 85 19 79 0 l 331 781 q 414 993 367 896 q 528 1167 461 1090 q 690 1299 594 1244 q 920 1381 786 1353 q 1236 1410 1054 1410 l 1274 1410 q 1299 1397 1294 1410 q 1292 1353 1303 1385 q 1270 1308 1283 1321 q 1236 1296 1257 1296 q 1110 1278 1169 1296 q 1003 1229 1050 1261 q 931 1151 957 1197 q 906 1044 906 1104 q 920 971 907 1006 q 956 903 933 936 q 1005 837 978 869 q 1060 768 1032 804 q 1116 694 1089 732 q 1165 610 1143 656 q 1200 512 1188 565 q 1213 397 1213 458 q 1176 224 1213 301 q 1074 90 1139 146 q 920 3 1008 33 q 731 -26 832 -26 z "},"ŋ":{"ha":851,"x_min":17,"x_max":790,"o":"m 561 -151 q 501 -283 532 -240 q 435 -340 469 -326 q 356 -354 400 -354 q 278 -331 317 -354 q 213 -267 240 -308 q 197 -230 199 -246 q 222 -194 196 -214 q 260 -179 243 -179 q 290 -196 276 -179 q 332 -238 315 -226 q 367 -250 349 -250 q 410 -222 394 -250 q 449 -121 425 -193 l 650 478 q 665 542 661 513 q 656 591 668 572 q 604 610 643 610 q 501 569 557 610 q 385 456 444 529 q 267 281 325 382 q 158 61 208 181 l 144 15 q 124 -12 139 -3 q 78 -21 110 -21 q 36 -11 56 -21 q 26 25 17 -1 l 235 671 q 258 707 244 699 q 297 715 271 715 q 352 702 340 715 q 354 661 364 689 l 283 444 q 370 563 325 511 q 462 649 415 614 q 556 703 508 685 q 650 721 603 721 q 749 690 714 721 q 787 597 783 658 q 761 446 790 536 l 561 -151 z "},"$":{"ha":1039,"x_min":50,"x_max":1144,"o":"m 471 -26 q 338 -8 400 -26 q 224 41 276 10 q 132 111 172 72 q 61 190 92 150 q 58 222 50 207 q 79 249 65 236 q 113 269 97 264 q 142 258 128 274 q 227 178 178 215 q 338 116 276 140 q 471 92 400 92 q 614 111 549 92 q 728 167 679 131 q 805 258 778 203 q 832 382 832 313 q 818 464 832 426 q 776 534 804 501 q 709 596 749 567 q 615 656 669 625 q 524 710 567 682 q 445 772 481 739 q 384 844 410 806 q 344 932 358 883 q 331 1040 331 981 q 362 1189 331 1121 q 451 1306 393 1257 q 591 1383 510 1356 q 774 1410 672 1410 q 917 1387 853 1410 q 1034 1326 981 1364 q 1131 1244 1088 1289 q 1142 1215 1144 1231 q 1119 1182 1139 1199 q 1088 1165 1104 1167 q 1057 1174 1072 1163 q 981 1231 1021 1204 q 892 1274 942 1257 q 772 1292 842 1292 q 648 1276 706 1292 q 549 1228 590 1260 q 483 1150 507 1197 q 460 1040 460 1103 q 472 954 460 992 q 510 885 483 917 q 579 823 536 853 q 685 760 622 793 q 800 687 750 725 q 886 603 850 649 q 941 503 922 557 q 960 383 960 449 q 923 218 960 293 q 820 88 886 143 q 665 3 754 33 q 471 -26 576 -26 m 328 -208 q 283 -169 271 -208 l 851 1575 q 919 1613 864 1613 q 963 1575 975 1613 l 394 -169 q 328 -208 382 -208 z "},"€":{"ha":1194,"x_min":104,"x_max":1346,"o":"m 628 -26 q 462 11 533 -26 q 342 116 390 49 q 268 272 293 183 q 243 464 243 361 q 268 674 243 565 q 340 888 293 782 q 453 1088 386 994 q 604 1254 519 1182 q 789 1368 689 1326 q 1001 1410 889 1410 q 1138 1389 1075 1410 q 1251 1328 1200 1368 q 1336 1228 1301 1288 q 1343 1199 1346 1213 q 1318 1171 1340 1186 q 1282 1158 1297 1157 q 1253 1175 1267 1160 q 1178 1240 1218 1213 q 1093 1280 1139 1267 q 989 1293 1047 1293 q 819 1256 900 1293 q 669 1153 738 1218 q 545 1006 600 1089 q 451 829 490 922 q 390 644 411 736 q 369 468 369 551 q 387 312 369 382 q 438 192 404 242 q 524 117 472 143 q 640 90 575 90 q 742 104 692 90 q 843 144 793 118 q 939 206 893 171 q 1029 286 985 242 q 1062 301 1047 303 q 1092 286 1076 300 q 1114 256 1111 272 q 1101 221 1117 239 q 947 80 1028 135 q 785 -1 865 25 q 628 -26 704 -26 m 201 760 q 176 771 181 760 q 181 813 171 782 q 204 856 192 844 q 238 867 217 867 l 1032 867 q 1058 856 1053 867 q 1051 813 1063 844 q 1030 771 1043 782 q 996 760 1017 760 l 201 760 m 133 540 q 108 552 113 540 q 114 594 104 564 q 136 638 124 626 q 169 649 149 649 l 964 649 q 990 638 985 649 q 985 594 996 626 q 963 552 975 564 q 929 540 950 540 l 133 540 z "},"¢":{"ha":817,"x_min":94,"x_max":840,"o":"m 360 -26 q 210 11 269 -26 q 123 114 151 49 q 94 260 94 179 q 115 417 94 338 q 176 570 136 497 q 273 699 215 643 q 406 789 331 756 q 569 822 481 822 q 668 809 622 822 q 751 770 714 796 q 821 708 789 744 q 835 667 840 685 q 811 635 829 650 q 774 619 792 619 q 738 639 757 619 q 690 678 717 663 q 630 703 663 694 q 557 711 597 711 q 442 685 494 711 q 349 613 390 658 q 278 509 307 567 q 235 389 250 451 q 219 267 219 326 q 237 172 219 213 q 288 108 254 131 q 374 85 322 86 q 470 106 424 85 q 561 163 517 126 q 650 246 606 200 q 688 260 668 265 q 721 240 707 256 q 739 208 736 225 q 725 172 742 192 q 599 54 661 97 q 478 -8 538 11 q 360 -26 418 -26 m 258 -208 q 215 -169 203 -208 l 592 983 q 658 1022 604 1022 q 703 983 715 1022 l 326 -169 q 258 -208 314 -208 z "},"£":{"ha":1040,"x_min":-43,"x_max":1229,"o":"m -14 0 q -40 15 -37 0 q -33 60 -43 31 q -10 101 -22 92 q 22 111 3 111 l 211 111 l 353 544 l 194 544 q 169 557 174 544 q 174 599 164 569 q 197 641 185 631 q 231 651 210 651 l 388 651 l 535 1100 q 616 1270 568 1201 q 733 1374 664 1339 q 897 1410 803 1410 q 1074 1372 988 1410 q 1214 1275 1160 1333 q 1228 1240 1229 1257 q 1204 1203 1228 1222 q 1165 1183 1182 1182 q 1128 1201 1147 1185 q 1008 1272 1074 1247 q 890 1297 943 1297 q 742 1246 797 1297 q 653 1090 688 1194 l 510 651 l 838 651 q 863 641 858 651 q 857 599 867 631 q 835 556 847 568 q 801 544 822 544 l 474 544 l 332 111 l 907 111 q 932 100 926 111 q 928 60 938 89 q 906 15 918 29 q 871 0 894 0 l -14 0 z "},"¥":{"ha":1033,"x_min":133,"x_max":1328,"o":"m 394 -19 q 346 19 333 -19 l 451 344 l 163 344 q 138 356 142 344 q 143 399 133 368 q 165 442 153 431 q 199 453 178 453 l 486 453 l 522 563 l 231 563 q 205 574 210 563 q 210 617 200 586 q 233 660 221 649 q 267 671 246 671 l 524 671 l 364 1347 q 373 1392 358 1375 q 424 1410 388 1410 q 467 1397 456 1410 q 483 1360 478 1385 l 631 739 l 1176 1364 q 1214 1399 1196 1388 q 1265 1410 1232 1410 q 1315 1388 1301 1410 q 1303 1338 1328 1367 l 718 671 l 982 671 q 1008 660 1003 671 q 1001 617 1013 649 q 979 574 992 586 q 946 563 967 563 l 647 563 l 611 453 l 914 453 q 940 442 935 453 q 935 399 944 431 q 912 356 925 368 q 878 344 899 344 l 576 344 l 471 19 q 394 -19 458 -19 z "},"%":{"ha":1271,"x_min":86,"x_max":1389,"o":"m 482 803 q 363 832 413 803 q 288 912 314 861 q 263 1025 263 963 q 278 1128 263 1075 q 321 1231 293 1181 q 388 1322 349 1282 q 478 1386 428 1363 q 589 1410 529 1410 q 708 1382 660 1410 q 783 1306 757 1354 q 808 1194 808 1257 q 794 1094 808 1147 q 751 990 779 1042 q 685 895 724 938 q 594 828 646 853 q 482 803 543 803 m 496 908 q 562 926 532 908 q 615 973 592 943 q 656 1039 639 1003 q 681 1113 672 1075 q 689 1186 689 1151 q 659 1276 689 1247 q 579 1304 629 1304 q 510 1286 542 1304 q 455 1238 479 1268 q 415 1172 431 1208 q 390 1099 399 1136 q 381 1031 381 1063 q 412 940 381 971 q 496 908 443 908 m 174 -12 q 145 -28 160 -28 q 110 -12 131 -29 q 87 18 88 6 q 101 47 86 31 l 1300 1396 q 1330 1412 1315 1411 q 1364 1396 1344 1413 q 1387 1367 1385 1379 q 1374 1338 1389 1354 l 174 -12 m 904 -26 q 785 3 833 -26 q 710 83 736 32 q 685 196 685 133 q 699 299 685 246 q 742 402 714 351 q 810 493 769 453 q 900 557 850 533 q 1010 581 950 581 q 1129 553 1081 581 q 1203 477 1178 525 q 1229 367 1229 429 q 1215 266 1229 319 q 1173 161 1200 213 q 1106 67 1146 110 q 1016 -1 1067 25 q 904 -26 965 -26 m 917 81 q 983 98 953 81 q 1036 145 1013 115 q 1076 211 1060 175 q 1101 285 1093 247 q 1110 357 1110 324 q 1080 447 1110 418 q 1001 475 1050 475 q 931 457 963 475 q 876 410 900 439 q 835 344 851 381 q 811 272 819 308 q 803 201 803 235 q 833 111 803 142 q 917 81 864 81 z "},".":{"ha":435,"x_min":32,"x_max":207,"o":"m 111 -47 q 51 -28 71 -47 q 32 26 32 -8 q 55 106 32 78 q 125 133 78 133 q 187 114 167 133 q 207 61 207 94 q 183 -19 207 10 q 111 -47 160 -47 z "},",":{"ha":435,"x_min":-72,"x_max":196,"o":"m -26 -279 q -56 -265 -40 -279 q -72 -237 -72 -251 q -70 -224 -72 -231 q -62 -210 -68 -217 q 5 -111 -21 -156 q 43 -24 31 -67 q 57 64 56 19 q 78 108 60 90 q 131 125 96 125 q 180 109 164 125 q 196 69 196 93 q 172 -46 196 17 q 106 -165 147 -108 q 14 -261 65 -222 q -8 -275 3 -271 q -26 -279 -18 -279 z "},":":{"ha":435,"x_min":32,"x_max":393,"o":"m 111 -47 q 51 -28 71 -47 q 32 26 32 -8 q 55 106 32 78 q 125 133 78 133 q 187 114 167 133 q 207 61 207 94 q 183 -19 207 10 q 111 -47 160 -47 m 297 558 q 238 578 257 558 q 218 632 218 597 q 241 711 218 683 q 311 739 264 739 q 373 719 353 739 q 393 667 393 700 q 369 587 393 615 q 297 558 346 558 z "},";":{"ha":435,"x_min":-54,"x_max":393,"o":"m 297 558 q 238 578 257 558 q 218 632 218 597 q 241 711 218 683 q 311 739 264 739 q 373 719 353 739 q 393 667 393 700 q 369 587 393 615 q 297 558 346 558 m -8 -279 q -38 -265 -22 -279 q -54 -237 -54 -251 q -52 -224 -54 -231 q -44 -210 -50 -217 q 23 -111 -3 -156 q 61 -24 49 -67 q 75 64 74 19 q 96 108 78 90 q 149 125 114 125 q 198 109 182 125 q 214 69 214 93 q 190 -46 214 17 q 124 -165 165 -108 q 32 -261 83 -222 q 10 -275 21 -271 q -8 -279 0 -279 z "},"…":{"ha":1178,"x_min":32,"x_max":950,"o":"m 483 -47 q 424 -28 443 -47 q 404 26 404 -8 q 427 106 404 78 q 497 133 450 133 q 559 114 539 133 q 579 61 579 94 q 556 -19 579 10 q 483 -47 532 -47 m 854 -47 q 794 -28 814 -47 q 775 26 775 -8 q 798 106 775 78 q 868 133 821 133 q 930 114 910 133 q 950 61 950 94 q 926 -19 950 10 q 854 -47 903 -47 m 111 -47 q 51 -28 71 -47 q 32 26 32 -8 q 55 106 32 78 q 125 133 78 133 q 187 114 167 133 q 207 61 207 94 q 183 -19 207 10 q 111 -47 160 -47 z "},"!":{"ha":539,"x_min":101,"x_max":664,"o":"m 257 300 q 208 339 196 300 l 529 1372 q 554 1401 536 1392 q 603 1410 572 1410 q 651 1372 664 1410 l 331 339 q 306 310 324 319 q 257 300 288 300 m 171 -19 q 122 -1 142 -19 q 103 53 103 18 q 126 124 101 90 q 201 157 150 157 q 249 139 231 157 q 269 85 268 121 q 247 14 271 47 q 171 -19 224 -19 z "},"¡":{"ha":539,"x_min":-110,"x_max":453,"o":"m 296 396 q 344 357 358 396 l 24 -676 q 0 -704 18 -694 q -49 -714 -18 -714 q -97 -676 -110 -714 l 224 357 q 249 386 231 376 q 296 396 267 396 m 383 715 q 431 697 411 715 q 451 643 450 679 q 428 572 453 606 q 351 539 404 539 q 304 558 324 539 q 285 611 285 576 q 308 682 283 649 q 383 715 332 715 z "},"?":{"ha":778,"x_min":133,"x_max":997,"o":"m 276 299 q 235 308 247 299 q 228 338 222 318 l 335 661 q 356 689 340 679 q 394 700 371 699 q 617 763 525 718 q 764 871 708 808 q 845 999 819 933 q 871 1121 871 1065 q 848 1215 871 1176 q 781 1276 825 1254 q 674 1299 736 1299 q 563 1279 617 1299 q 459 1231 508 1260 q 368 1169 410 1203 q 337 1167 354 1160 q 307 1192 319 1174 q 292 1228 293 1214 q 310 1256 292 1243 q 434 1341 372 1307 q 557 1392 496 1375 q 676 1410 618 1410 q 853 1371 782 1410 q 961 1267 925 1332 q 997 1121 997 1201 q 960 953 997 1035 q 852 799 924 871 q 676 674 781 728 q 433 593 571 621 l 350 338 q 326 308 344 318 q 276 299 307 299 m 200 -19 q 153 -1 172 -19 q 133 53 133 18 q 157 124 133 90 q 232 157 181 157 q 280 139 260 157 q 300 85 300 121 q 276 14 300 47 q 200 -19 253 -19 z "},"¿":{"ha":778,"x_min":-225,"x_max":638,"o":"m 494 397 q 537 388 524 397 q 543 358 550 378 l 436 35 q 416 8 431 17 q 378 -4 401 -1 q 155 -67 247 -21 q 7 -175 63 -112 q -74 -303 -49 -237 q -100 -425 -100 -369 q -76 -519 -100 -479 q -9 -581 -53 -558 q 97 -603 35 -603 q 210 -583 156 -603 q 313 -535 264 -564 q 404 -474 361 -506 q 437 -470 419 -464 q 465 -496 454 -476 q 478 -533 478 -518 q 463 -560 479 -547 q 339 -644 401 -610 q 215 -697 276 -679 q 96 -714 154 -714 q -83 -675 -11 -714 q -190 -570 -154 -636 q -225 -425 -225 -504 q -189 -257 -225 -339 q -81 -103 -153 -175 q 95 22 -10 -32 q 339 103 200 75 l 421 358 q 446 388 428 378 q 494 397 464 397 m 571 715 q 618 697 599 715 q 638 643 638 679 q 615 572 638 606 q 539 539 592 539 q 491 558 511 539 q 471 611 471 576 q 495 682 471 649 q 571 715 519 715 z "},"'":{"ha":235,"x_min":289,"x_max":510,"o":"m 322 988 q 290 1001 292 988 q 293 1031 289 1014 l 372 1340 q 397 1379 378 1363 q 450 1396 415 1396 q 499 1379 489 1396 q 501 1340 510 1363 l 381 1031 q 360 1001 374 1014 q 322 988 347 988 z "},"\"":{"ha":467,"x_min":289,"x_max":742,"o":"m 322 988 q 290 1001 292 988 q 293 1031 289 1014 l 372 1340 q 397 1379 378 1363 q 450 1396 415 1396 q 499 1379 489 1396 q 501 1340 510 1363 l 381 1031 q 360 1001 374 1014 q 322 988 347 988 m 554 988 q 522 1001 524 988 q 525 1031 521 1014 l 604 1340 q 628 1379 610 1363 q 682 1396 647 1396 q 731 1379 721 1396 q 733 1340 742 1363 l 613 1031 q 592 1001 606 1014 q 554 988 579 988 z "},"‘":{"ha":297,"x_min":300,"x_max":563,"o":"m 367 990 q 316 1007 332 990 q 300 1046 300 1024 q 313 1130 300 1085 q 350 1222 326 1175 q 406 1309 374 1268 q 475 1379 438 1350 q 497 1392 486 1388 q 515 1396 507 1396 q 547 1383 531 1396 q 563 1354 563 1369 q 560 1342 563 1349 q 551 1326 557 1335 q 487 1229 511 1274 q 451 1143 463 1185 q 439 1051 440 1101 q 419 1008 438 1025 q 367 990 400 990 z "},"’":{"ha":296,"x_min":279,"x_max":542,"o":"m 475 1396 q 526 1380 510 1396 q 542 1340 542 1364 q 528 1256 542 1301 q 492 1165 515 1211 q 436 1077 468 1118 q 367 1007 404 1036 q 345 994 356 999 q 326 990 335 990 q 296 1004 313 990 q 279 1032 279 1018 q 282 1045 279 1039 q 290 1060 285 1051 q 356 1157 332 1113 q 390 1244 379 1201 q 403 1335 401 1286 q 423 1378 404 1361 q 475 1396 442 1396 z "},"‚":{"ha":308,"x_min":-125,"x_max":143,"o":"m -79 -279 q -109 -265 -93 -279 q -125 -237 -125 -251 q -123 -224 -125 -231 q -115 -210 -121 -217 q -48 -111 -74 -156 q -10 -24 -22 -67 q 4 64 3 19 q 25 108 7 90 q 78 125 43 125 q 127 109 111 125 q 143 69 143 93 q 119 -46 143 17 q 53 -165 94 -108 q -39 -261 13 -222 q -60 -275 -50 -271 q -79 -279 -71 -279 z "},"“":{"ha":546,"x_min":300,"x_max":811,"o":"m 367 990 q 316 1007 332 990 q 300 1046 300 1024 q 313 1130 300 1085 q 350 1222 326 1175 q 406 1309 374 1268 q 475 1379 438 1350 q 497 1392 486 1388 q 515 1396 507 1396 q 547 1383 531 1396 q 563 1354 563 1369 q 560 1342 563 1349 q 551 1326 557 1335 q 487 1229 511 1274 q 451 1143 463 1185 q 439 1051 440 1101 q 419 1008 438 1025 q 367 990 400 990 m 617 990 q 566 1007 582 990 q 550 1046 550 1024 q 563 1130 550 1085 q 600 1222 576 1175 q 656 1309 624 1268 q 725 1379 688 1350 q 747 1392 736 1388 q 765 1396 757 1396 q 797 1383 781 1396 q 813 1354 813 1369 q 810 1342 813 1349 q 801 1326 807 1335 q 737 1229 761 1274 q 701 1143 713 1185 q 689 1051 690 1101 q 669 1008 688 1025 q 617 990 650 990 z "},"”":{"ha":546,"x_min":279,"x_max":790,"o":"m 725 1396 q 776 1380 760 1396 q 792 1340 792 1364 q 778 1256 792 1301 q 742 1165 765 1211 q 686 1077 718 1118 q 617 1007 654 1036 q 595 994 606 999 q 576 990 585 990 q 546 1004 563 990 q 529 1032 529 1018 q 532 1045 529 1039 q 540 1060 535 1051 q 606 1157 582 1113 q 640 1244 629 1201 q 653 1335 651 1286 q 673 1378 654 1361 q 725 1396 692 1396 m 475 1396 q 526 1380 510 1396 q 542 1340 542 1364 q 528 1256 542 1301 q 492 1165 515 1211 q 436 1077 468 1118 q 367 1007 404 1036 q 345 994 356 999 q 326 990 335 990 q 296 1004 313 990 q 279 1032 279 1018 q 282 1045 279 1039 q 290 1060 285 1051 q 356 1157 332 1113 q 390 1244 379 1201 q 403 1335 401 1286 q 423 1378 404 1361 q 475 1396 442 1396 z "},"„":{"ha":556,"x_min":-125,"x_max":390,"o":"m 168 -279 q 138 -265 154 -279 q 122 -237 122 -251 q 124 -224 122 -231 q 132 -210 126 -217 q 199 -111 174 -156 q 238 -24 225 -67 q 251 64 250 19 q 272 108 254 90 q 325 125 290 125 q 374 109 358 125 q 390 69 390 93 q 366 -46 390 17 q 301 -165 342 -108 q 208 -261 260 -222 q 187 -275 197 -271 q 168 -279 176 -279 m -79 -279 q -109 -265 -93 -279 q -125 -237 -125 -251 q -123 -224 -125 -231 q -115 -210 -121 -217 q -48 -111 -74 -156 q -10 -24 -22 -67 q 4 64 3 19 q 25 108 7 90 q 78 125 43 125 q 127 109 111 125 q 143 69 143 93 q 119 -46 143 17 q 53 -165 94 -108 q -39 -261 13 -222 q -60 -275 -50 -271 q -79 -279 -71 -279 z "},"«":{"ha":1007,"x_min":129,"x_max":996,"o":"m 339 -19 q 303 -11 318 -19 q 276 19 288 -3 l 146 297 q 133 326 136 315 q 129 342 129 336 q 142 365 129 353 q 181 401 154 378 l 492 678 q 537 707 517 699 q 578 715 557 715 q 622 703 604 715 q 644 675 640 692 q 629 640 649 658 l 271 322 l 394 56 q 393 3 410 25 q 339 -19 376 -19 m 686 -19 q 650 -11 665 -19 q 624 19 635 -3 l 493 297 q 480 326 483 315 q 476 342 476 336 q 489 365 476 353 q 528 401 501 378 l 839 678 q 884 707 864 699 q 925 715 904 715 q 969 703 951 715 q 992 675 988 692 q 976 640 996 658 l 618 322 l 742 56 q 740 3 757 25 q 686 -19 724 -19 z "},"»":{"ha":1007,"x_min":13,"x_max":879,"o":"m 82 -21 q 38 -9 57 -21 q 16 20 19 3 q 32 54 13 38 l 388 374 l 265 639 q 267 692 251 671 q 321 714 283 714 q 358 706 342 714 q 383 675 374 699 l 514 397 q 528 369 524 379 q 532 353 532 360 q 519 330 532 343 q 479 293 507 317 l 168 18 q 124 -12 144 -3 q 82 -21 103 -21 m 429 -21 q 385 -9 404 -21 q 363 20 367 3 q 379 54 360 38 l 735 374 l 613 639 q 615 692 599 671 q 668 714 631 714 q 705 706 689 714 q 731 675 721 699 l 861 397 q 875 369 871 379 q 879 353 879 360 q 867 330 879 343 q 826 293 854 317 l 515 18 q 471 -12 492 -3 q 429 -21 450 -21 z "},"‹":{"ha":660,"x_min":129,"x_max":649,"o":"m 339 -19 q 303 -11 318 -19 q 276 19 288 -3 l 146 297 q 133 326 136 315 q 129 342 129 336 q 142 365 129 353 q 181 401 154 378 l 492 678 q 537 707 517 699 q 578 715 557 715 q 622 703 604 715 q 644 675 640 692 q 629 640 649 658 l 271 322 l 394 56 q 393 3 410 25 q 339 -19 376 -19 z "},"›":{"ha":660,"x_min":13,"x_max":532,"o":"m 82 -21 q 38 -9 57 -21 q 16 20 19 3 q 32 54 13 38 l 388 374 l 265 639 q 267 692 251 671 q 321 714 283 714 q 358 706 342 714 q 383 675 374 699 l 514 397 q 528 369 524 379 q 532 353 532 360 q 519 330 532 343 q 479 293 507 317 l 168 18 q 124 -12 144 -3 q 82 -21 103 -21 z "},"Á":{"ha":1157,"x_min":-79,"x_max":1108,"o":"m -21 -19 q -68 2 -57 -19 q -58 54 -79 24 l 803 1354 q 843 1398 822 1386 q 897 1410 864 1410 q 940 1397 924 1410 q 957 1339 956 1383 l 1018 43 q 1005 -2 1021 15 q 953 -19 989 -19 q 913 -8 922 -19 q 900 32 903 4 l 883 396 l 306 396 l 69 36 q 30 -10 44 0 q -21 -19 15 -19 m 382 507 l 879 507 l 846 1214 l 382 507 m 828 1469 q 794 1488 813 1469 q 775 1521 775 1507 q 777 1532 775 1526 q 788 1546 779 1538 l 1007 1747 q 1020 1758 1014 1754 q 1035 1763 1026 1763 q 1066 1750 1049 1763 q 1096 1721 1083 1738 q 1108 1689 1108 1704 q 1106 1672 1108 1679 q 1088 1654 1103 1665 l 854 1483 q 840 1474 846 1478 q 828 1469 833 1469 z "},"Ă":{"ha":1157,"x_min":-79,"x_max":1210,"o":"m -21 -19 q -68 2 -57 -19 q -58 54 -79 24 l 803 1354 q 843 1398 822 1386 q 897 1410 864 1410 q 940 1397 924 1410 q 957 1339 956 1383 l 1018 43 q 1005 -2 1021 15 q 953 -19 989 -19 q 913 -8 922 -19 q 900 32 903 4 l 883 396 l 306 396 l 69 36 q 30 -10 44 0 q -21 -19 15 -19 m 382 507 l 879 507 l 846 1214 l 382 507 m 900 1469 q 746 1531 799 1469 q 707 1721 693 1593 q 722 1750 710 1742 q 756 1758 735 1758 q 790 1748 776 1758 q 803 1721 803 1738 q 835 1619 801 1650 q 922 1589 869 1589 q 1033 1626 986 1589 q 1104 1717 1079 1663 q 1128 1750 1115 1742 q 1160 1758 1140 1758 q 1197 1746 1183 1758 q 1203 1713 1210 1733 q 1131 1564 1171 1617 q 1035 1490 1092 1511 q 900 1469 979 1469 z "},"Ǎ":{"ha":1157,"x_min":-79,"x_max":1206,"o":"m -21 -19 q -68 2 -57 -19 q -58 54 -79 24 l 803 1354 q 843 1398 822 1386 q 897 1410 864 1410 q 940 1397 924 1410 q 957 1339 956 1383 l 1018 43 q 1005 -2 1021 15 q 953 -19 989 -19 q 913 -8 922 -19 q 900 32 903 4 l 883 396 l 306 396 l 69 36 q 30 -10 44 0 q -21 -19 15 -19 m 382 507 l 879 507 l 846 1214 l 382 507 m 1163 1758 q 1192 1742 1179 1758 q 1206 1710 1206 1725 q 1201 1689 1206 1696 q 1190 1676 1197 1682 l 964 1501 q 925 1477 943 1485 q 885 1469 907 1469 q 852 1479 867 1469 q 825 1507 838 1489 l 697 1688 q 689 1706 690 1699 q 688 1718 688 1713 q 708 1747 688 1735 q 742 1758 728 1758 q 763 1752 756 1758 q 779 1736 769 1746 l 910 1611 l 1122 1738 q 1142 1751 1132 1743 q 1163 1758 1151 1758 z "},"Â":{"ha":1157,"x_min":-79,"x_max":1169,"o":"m -21 -19 q -68 2 -57 -19 q -58 54 -79 24 l 803 1354 q 843 1398 822 1386 q 897 1410 864 1410 q 940 1397 924 1410 q 957 1339 956 1383 l 1018 43 q 1005 -2 1021 15 q 953 -19 989 -19 q 913 -8 922 -19 q 900 32 903 4 l 883 396 l 306 396 l 69 36 q 30 -10 44 0 q -21 -19 15 -19 m 382 507 l 879 507 l 846 1214 l 382 507 m 692 1469 q 664 1486 675 1469 q 653 1518 653 1503 q 658 1539 653 1532 q 668 1551 663 1546 l 893 1726 q 933 1751 914 1744 q 974 1758 951 1758 q 1006 1749 992 1758 q 1032 1722 1021 1740 l 1161 1542 q 1169 1524 1168 1532 q 1169 1510 1169 1517 q 1151 1481 1169 1493 q 1121 1469 1133 1469 q 1097 1476 1107 1469 q 1076 1493 1088 1483 l 947 1618 l 735 1485 q 715 1474 725 1479 q 692 1469 704 1469 z "},"Ä":{"ha":1157,"x_min":-79,"x_max":1181,"o":"m -21 -19 q -68 2 -57 -19 q -58 54 -79 24 l 803 1354 q 843 1398 822 1386 q 897 1410 864 1410 q 940 1397 924 1410 q 957 1339 956 1383 l 1018 43 q 1005 -2 1021 15 q 953 -19 989 -19 q 913 -8 922 -19 q 900 32 903 4 l 883 396 l 306 396 l 69 36 q 30 -10 44 0 q -21 -19 15 -19 m 382 507 l 879 507 l 846 1214 l 382 507 m 738 1517 q 689 1535 708 1517 q 669 1589 669 1553 q 695 1659 669 1626 q 771 1692 721 1692 q 818 1674 799 1692 q 838 1621 838 1657 q 814 1550 838 1583 q 738 1517 790 1517 m 1079 1517 q 1031 1535 1051 1517 q 1011 1589 1011 1553 q 1037 1659 1011 1626 q 1113 1692 1063 1692 q 1160 1674 1140 1692 q 1181 1621 1181 1657 q 1156 1550 1181 1583 q 1079 1517 1132 1517 z "},"Ǽ":{"ha":1486,"x_min":-76,"x_max":1747,"o":"m 1278 0 l 704 0 q 655 13 669 0 q 650 56 640 25 l 838 638 l 544 638 l 50 3 q 15 -19 36 -15 q -33 -17 -6 -24 q -68 9 -60 -8 q -61 46 -76 26 l 951 1342 q 985 1376 968 1365 q 1028 1386 1003 1386 l 1721 1386 q 1742 1372 1736 1386 q 1740 1331 1747 1358 q 1718 1289 1732 1303 q 1689 1275 1704 1275 l 1167 1275 l 997 749 l 1418 749 q 1439 735 1433 749 q 1436 693 1444 721 q 1415 651 1429 665 q 1386 638 1401 638 l 961 638 l 792 111 l 1310 111 q 1331 98 1325 111 q 1328 56 1336 85 q 1307 15 1321 29 q 1278 0 1293 0 m 631 749 l 874 749 l 1046 1282 l 631 749 m 1324 1469 q 1290 1488 1308 1469 q 1271 1521 1271 1507 q 1273 1532 1271 1526 q 1283 1546 1275 1538 l 1503 1747 q 1516 1758 1510 1754 q 1531 1763 1522 1763 q 1562 1750 1544 1763 q 1592 1721 1579 1738 q 1604 1689 1604 1704 q 1601 1672 1604 1679 q 1583 1654 1599 1665 l 1350 1483 q 1335 1474 1342 1478 q 1324 1469 1329 1469 z "},"À":{"ha":1157,"x_min":-79,"x_max":1022,"o":"m -21 -19 q -68 2 -57 -19 q -58 54 -79 24 l 803 1354 q 843 1398 822 1386 q 897 1410 864 1410 q 940 1397 924 1410 q 957 1339 956 1383 l 1018 43 q 1005 -2 1021 15 q 953 -19 989 -19 q 913 -8 922 -19 q 900 32 903 4 l 883 396 l 306 396 l 69 36 q 30 -10 44 0 q -21 -19 15 -19 m 382 507 l 879 507 l 846 1214 l 382 507 m 969 1469 q 957 1474 964 1469 q 943 1483 950 1478 l 744 1656 q 727 1674 731 1667 q 724 1690 724 1681 q 737 1722 724 1706 q 768 1751 750 1739 q 799 1763 786 1763 q 815 1758 808 1763 q 828 1747 821 1754 l 1011 1544 q 1021 1530 1019 1535 q 1022 1521 1022 1525 q 1003 1488 1022 1507 q 969 1469 985 1469 z "},"Ā":{"ha":1157,"x_min":-79,"x_max":1167,"o":"m -21 -19 q -68 2 -57 -19 q -58 54 -79 24 l 803 1354 q 843 1398 822 1386 q 897 1410 864 1410 q 940 1397 924 1410 q 957 1339 956 1383 l 1018 43 q 1005 -2 1021 15 q 953 -19 989 -19 q 913 -8 922 -19 q 900 32 903 4 l 883 396 l 306 396 l 69 36 q 30 -10 44 0 q -21 -19 15 -19 m 382 507 l 879 507 l 846 1214 l 382 507 m 731 1556 q 698 1572 704 1556 q 699 1613 692 1588 q 718 1658 706 1643 q 756 1674 731 1674 l 1128 1674 q 1162 1656 1156 1674 q 1161 1613 1168 1639 q 1142 1569 1154 1583 q 1104 1556 1129 1556 l 731 1556 z "},"Ą":{"ha":1157,"x_min":-79,"x_max":1021,"o":"m -21 -19 q -68 2 -57 -19 q -58 54 -79 24 l 803 1354 q 843 1398 822 1386 q 897 1410 864 1410 q 940 1397 924 1410 q 957 1339 956 1383 l 1018 43 q 1005 -2 1021 15 q 953 -19 989 -19 q 913 -8 922 -19 q 900 32 903 4 l 883 396 l 306 396 l 69 36 q 30 -10 44 0 q -21 -19 15 -19 m 382 507 l 879 507 l 846 1214 l 382 507 m 735 -357 q 673 -336 696 -357 q 650 -276 650 -315 q 669 -206 650 -242 q 724 -134 688 -171 q 812 -58 760 -97 q 929 28 864 -18 l 1013 25 l 1013 18 q 918 -59 961 -22 q 844 -128 875 -96 q 797 -185 814 -160 q 781 -228 781 -210 q 787 -246 781 -240 q 803 -251 793 -251 q 853 -234 828 -251 q 915 -183 878 -217 q 938 -174 922 -176 q 968 -187 953 -172 q 981 -212 979 -199 q 975 -237 983 -225 q 907 -299 949 -272 q 820 -342 865 -326 q 735 -357 775 -357 z "},"Å":{"ha":1157,"x_min":-79,"x_max":1133,"o":"m -21 -19 q -68 2 -57 -19 q -58 54 -79 24 l 803 1354 q 843 1398 822 1386 q 897 1410 864 1410 q 940 1397 924 1410 q 957 1339 956 1383 l 1018 43 q 1005 -2 1021 15 q 953 -19 989 -19 q 913 -8 922 -19 q 900 32 903 4 l 883 396 l 306 396 l 69 36 q 30 -10 44 0 q -21 -19 15 -19 m 382 507 l 879 507 l 846 1214 l 382 507 m 910 1460 q 816 1478 854 1460 q 758 1529 778 1496 q 739 1608 739 1563 q 768 1704 739 1661 q 847 1772 797 1747 q 958 1797 897 1797 q 1054 1779 1015 1797 q 1113 1728 1093 1761 q 1133 1647 1133 1694 q 1103 1551 1133 1593 q 1024 1484 1074 1508 q 910 1460 974 1460 m 917 1543 q 999 1572 965 1543 q 1032 1644 1032 1601 q 1013 1696 1032 1678 q 953 1714 993 1714 q 874 1684 907 1714 q 840 1613 840 1654 q 860 1561 840 1579 q 917 1543 881 1543 z "},"Ã":{"ha":1157,"x_min":-79,"x_max":1197,"o":"m -21 -19 q -68 2 -57 -19 q -58 54 -79 24 l 803 1354 q 843 1398 822 1386 q 897 1410 864 1410 q 940 1397 924 1410 q 957 1339 956 1383 l 1018 43 q 1005 -2 1021 15 q 953 -19 989 -19 q 913 -8 922 -19 q 900 32 903 4 l 883 396 l 306 396 l 69 36 q 30 -10 44 0 q -21 -19 15 -19 m 382 507 l 879 507 l 846 1214 l 382 507 m 707 1511 q 665 1550 664 1511 q 703 1683 671 1640 q 796 1725 736 1725 q 874 1710 836 1725 q 947 1676 913 1696 q 1010 1641 981 1656 q 1060 1626 1039 1626 q 1083 1641 1071 1626 q 1100 1690 1094 1656 q 1157 1726 1104 1726 q 1188 1717 1179 1726 q 1196 1690 1197 1708 q 1159 1556 1190 1599 q 1064 1513 1128 1513 q 983 1527 1021 1513 q 913 1561 946 1542 q 853 1595 881 1581 q 800 1610 825 1610 q 773 1594 783 1610 q 758 1547 763 1579 q 743 1520 757 1529 q 707 1511 729 1511 z "},"Ắ":{"ha":1157,"x_min":-79,"x_max":1210,"o":"m -21 -19 q -68 2 -57 -19 q -58 54 -79 24 l 803 1354 q 843 1398 822 1386 q 897 1410 864 1410 q 940 1397 924 1410 q 957 1339 956 1383 l 1018 43 q 1005 -2 1021 15 q 953 -19 989 -19 q 913 -8 922 -19 q 900 32 903 4 l 883 396 l 306 396 l 69 36 q 30 -10 44 0 q -21 -19 15 -19 m 382 507 l 879 507 l 846 1214 l 382 507 m 900 1469 q 746 1531 799 1469 q 707 1721 693 1593 q 722 1750 710 1742 q 756 1758 735 1758 q 790 1748 776 1758 q 803 1721 803 1738 q 835 1619 801 1650 q 922 1589 869 1589 q 1033 1626 986 1589 q 1104 1717 1079 1663 q 1128 1750 1115 1742 q 1160 1758 1140 1758 q 1197 1746 1183 1758 q 1203 1713 1210 1733 q 1131 1564 1171 1617 q 1035 1490 1092 1511 q 900 1469 979 1469 m 896 1740 q 862 1759 881 1740 q 843 1793 843 1778 q 845 1803 843 1799 q 856 1817 847 1808 l 1075 2018 q 1088 2029 1082 2025 q 1103 2033 1094 2033 q 1134 2021 1117 2033 q 1164 1992 1151 2008 q 1176 1961 1176 1975 q 1174 1944 1176 1951 q 1156 1926 1171 1936 l 922 1754 q 908 1744 914 1749 q 896 1740 901 1740 z "},"Ặ":{"ha":1157,"x_min":-79,"x_max":1210,"o":"m -21 -19 q -68 2 -57 -19 q -58 54 -79 24 l 803 1354 q 843 1398 822 1386 q 897 1410 864 1410 q 940 1397 924 1410 q 957 1339 956 1383 l 1018 43 q 1005 -2 1021 15 q 953 -19 989 -19 q 913 -8 922 -19 q 900 32 903 4 l 883 396 l 306 396 l 69 36 q 30 -10 44 0 q -21 -19 15 -19 m 382 507 l 879 507 l 846 1214 l 382 507 m 371 -322 q 324 -304 343 -322 q 304 -251 304 -286 q 328 -181 304 -214 q 404 -147 353 -147 q 453 -165 433 -147 q 472 -218 472 -183 q 448 -290 472 -257 q 371 -322 424 -322 m 900 1469 q 746 1531 799 1469 q 707 1721 693 1593 q 722 1750 710 1742 q 756 1758 735 1758 q 790 1748 776 1758 q 803 1721 803 1738 q 835 1619 801 1650 q 922 1589 869 1589 q 1033 1626 986 1589 q 1104 1717 1079 1663 q 1128 1750 1115 1742 q 1160 1758 1140 1758 q 1197 1746 1183 1758 q 1203 1713 1210 1733 q 1131 1564 1171 1617 q 1035 1490 1092 1511 q 900 1469 979 1469 z "},"Ằ":{"ha":1157,"x_min":-79,"x_max":1210,"o":"m -21 -19 q -68 2 -57 -19 q -58 54 -79 24 l 803 1354 q 843 1398 822 1386 q 897 1410 864 1410 q 940 1397 924 1410 q 957 1339 956 1383 l 1018 43 q 1005 -2 1021 15 q 953 -19 989 -19 q 913 -8 922 -19 q 900 32 903 4 l 883 396 l 306 396 l 69 36 q 30 -10 44 0 q -21 -19 15 -19 m 382 507 l 879 507 l 846 1214 l 382 507 m 900 1469 q 746 1531 799 1469 q 707 1721 693 1593 q 722 1750 710 1742 q 756 1758 735 1758 q 790 1748 776 1758 q 803 1721 803 1738 q 835 1619 801 1650 q 922 1589 869 1589 q 1033 1626 986 1589 q 1104 1717 1079 1663 q 1128 1750 1115 1742 q 1160 1758 1140 1758 q 1197 1746 1183 1758 q 1203 1713 1210 1733 q 1131 1564 1171 1617 q 1035 1490 1092 1511 q 900 1469 979 1469 m 1025 1736 q 1013 1740 1019 1736 q 999 1750 1006 1744 l 800 1922 q 783 1940 786 1933 q 779 1957 779 1947 q 792 1989 779 1972 q 824 2017 806 2006 q 856 2029 842 2029 q 869 2025 863 2029 q 882 2014 875 2021 l 1065 1811 q 1076 1797 1075 1801 q 1078 1788 1078 1793 q 1059 1754 1078 1772 q 1025 1736 1040 1736 z "},"Ẳ":{"ha":1157,"x_min":-79,"x_max":1210,"o":"m -21 -19 q -68 2 -57 -19 q -58 54 -79 24 l 803 1354 q 843 1398 822 1386 q 897 1410 864 1410 q 940 1397 924 1410 q 957 1339 956 1383 l 1018 43 q 1005 -2 1021 15 q 953 -19 989 -19 q 913 -8 922 -19 q 900 32 903 4 l 883 396 l 306 396 l 69 36 q 30 -10 44 0 q -21 -19 15 -19 m 382 507 l 879 507 l 846 1214 l 382 507 m 900 1469 q 746 1531 799 1469 q 707 1721 693 1593 q 722 1750 710 1742 q 756 1758 735 1758 q 790 1748 776 1758 q 803 1721 803 1738 q 835 1619 801 1650 q 922 1589 869 1589 q 1033 1626 986 1589 q 1104 1717 1079 1663 q 1128 1750 1115 1742 q 1160 1758 1140 1758 q 1197 1746 1183 1758 q 1203 1713 1210 1733 q 1131 1564 1171 1617 q 1035 1490 1092 1511 q 900 1469 979 1469 m 1008 2046 q 1106 2018 1071 2046 q 1140 1942 1140 1990 q 1120 1871 1140 1903 q 1057 1810 1100 1839 q 1025 1783 1035 1794 q 1013 1756 1015 1771 l 1008 1735 q 990 1708 1006 1717 q 957 1701 975 1700 q 925 1711 939 1701 q 910 1738 911 1721 l 908 1768 q 919 1824 906 1801 q 958 1867 932 1847 q 994 1898 982 1883 q 1006 1922 1006 1913 q 997 1939 1006 1933 q 972 1944 989 1944 q 940 1940 958 1944 q 899 1928 922 1935 q 843 1953 863 1911 q 867 2014 828 1994 q 934 2038 900 2029 q 1008 2046 968 2046 z "},"Ẵ":{"ha":1157,"x_min":-79,"x_max":1256,"o":"m -21 -19 q -68 2 -57 -19 q -58 54 -79 24 l 803 1354 q 843 1398 822 1386 q 897 1410 864 1410 q 940 1397 924 1410 q 957 1339 956 1383 l 1018 43 q 1005 -2 1021 15 q 953 -19 989 -19 q 913 -8 922 -19 q 900 32 903 4 l 883 396 l 306 396 l 69 36 q 30 -10 44 0 q -21 -19 15 -19 m 382 507 l 879 507 l 846 1214 l 382 507 m 900 1469 q 746 1531 799 1469 q 707 1721 693 1593 q 722 1750 710 1742 q 756 1758 735 1758 q 790 1748 776 1758 q 803 1721 803 1738 q 835 1619 801 1650 q 922 1589 869 1589 q 1033 1626 986 1589 q 1104 1717 1079 1663 q 1128 1750 1115 1742 q 1160 1758 1140 1758 q 1197 1746 1183 1758 q 1203 1713 1210 1733 q 1131 1564 1171 1617 q 1035 1490 1092 1511 q 900 1469 979 1469 m 767 1800 q 725 1839 724 1800 q 763 1972 731 1929 q 856 2014 796 2014 q 934 1999 896 2014 q 1006 1965 972 1985 q 1069 1930 1040 1944 q 1119 1915 1099 1915 q 1142 1930 1131 1915 q 1160 1979 1154 1944 q 1217 2015 1164 2015 q 1248 2006 1239 2015 q 1256 1979 1257 1997 q 1219 1844 1250 1888 q 1124 1801 1188 1801 q 1043 1816 1081 1801 q 973 1850 1006 1831 q 913 1884 940 1869 q 860 1899 885 1899 q 833 1883 843 1899 q 818 1836 822 1868 q 803 1809 817 1818 q 767 1800 789 1800 z "},"Ấ":{"ha":1157,"x_min":-79,"x_max":1411,"o":"m -21 -19 q -68 2 -57 -19 q -58 54 -79 24 l 803 1354 q 843 1398 822 1386 q 897 1410 864 1410 q 940 1397 924 1410 q 957 1339 956 1383 l 1018 43 q 1005 -2 1021 15 q 953 -19 989 -19 q 913 -8 922 -19 q 900 32 903 4 l 883 396 l 306 396 l 69 36 q 30 -10 44 0 q -21 -19 15 -19 m 382 507 l 879 507 l 846 1214 l 382 507 m 692 1469 q 664 1486 675 1469 q 653 1518 653 1503 q 658 1539 653 1532 q 668 1551 663 1546 l 893 1726 q 933 1751 914 1744 q 974 1758 951 1758 q 1006 1749 992 1758 q 1032 1722 1021 1740 l 1161 1542 q 1169 1524 1168 1532 q 1169 1510 1169 1517 q 1151 1481 1169 1493 q 1121 1469 1133 1469 q 1097 1476 1107 1469 q 1076 1493 1088 1483 l 947 1618 l 735 1485 q 715 1474 725 1479 q 692 1469 704 1469 m 1168 1685 q 1134 1704 1153 1685 q 1115 1736 1115 1724 q 1117 1747 1115 1742 q 1129 1763 1119 1753 l 1310 1939 q 1323 1951 1317 1947 q 1338 1956 1329 1956 q 1369 1943 1351 1956 q 1400 1913 1388 1931 q 1413 1881 1413 1896 q 1409 1864 1413 1871 q 1390 1847 1406 1857 l 1194 1699 q 1180 1688 1186 1692 q 1168 1685 1174 1685 z "},"Ậ":{"ha":1157,"x_min":-79,"x_max":1169,"o":"m -21 -19 q -68 2 -57 -19 q -58 54 -79 24 l 803 1354 q 843 1398 822 1386 q 897 1410 864 1410 q 940 1397 924 1410 q 957 1339 956 1383 l 1018 43 q 1005 -2 1021 15 q 953 -19 989 -19 q 913 -8 922 -19 q 900 32 903 4 l 883 396 l 306 396 l 69 36 q 30 -10 44 0 q -21 -19 15 -19 m 382 507 l 879 507 l 846 1214 l 382 507 m 371 -322 q 324 -304 343 -322 q 304 -251 304 -286 q 328 -181 304 -214 q 404 -147 353 -147 q 453 -165 433 -147 q 472 -218 472 -183 q 448 -290 472 -257 q 371 -322 424 -322 m 692 1469 q 664 1486 675 1469 q 653 1518 653 1503 q 658 1539 653 1532 q 668 1551 663 1546 l 893 1726 q 933 1751 914 1744 q 974 1758 951 1758 q 1006 1749 992 1758 q 1032 1722 1021 1740 l 1161 1542 q 1169 1524 1168 1532 q 1169 1510 1169 1517 q 1151 1481 1169 1493 q 1121 1469 1133 1469 q 1097 1476 1107 1469 q 1076 1493 1088 1483 l 947 1618 l 735 1485 q 715 1474 725 1479 q 692 1469 704 1469 z "},"Ầ":{"ha":1157,"x_min":-79,"x_max":1303,"o":"m -21 -19 q -68 2 -57 -19 q -58 54 -79 24 l 803 1354 q 843 1398 822 1386 q 897 1410 864 1410 q 940 1397 924 1410 q 957 1339 956 1383 l 1018 43 q 1005 -2 1021 15 q 953 -19 989 -19 q 913 -8 922 -19 q 900 32 903 4 l 883 396 l 306 396 l 69 36 q 30 -10 44 0 q -21 -19 15 -19 m 382 507 l 879 507 l 846 1214 l 382 507 m 692 1469 q 664 1486 675 1469 q 653 1518 653 1503 q 658 1539 653 1532 q 668 1551 663 1546 l 893 1726 q 933 1751 914 1744 q 974 1758 951 1758 q 1006 1749 992 1758 q 1032 1722 1021 1740 l 1161 1542 q 1169 1524 1168 1532 q 1169 1510 1169 1517 q 1151 1481 1169 1493 q 1121 1469 1133 1469 q 1097 1476 1107 1469 q 1076 1493 1088 1483 l 947 1618 l 735 1485 q 715 1474 725 1479 q 692 1469 704 1469 m 1247 1663 q 1235 1665 1242 1663 q 1222 1675 1229 1668 l 1050 1865 q 1034 1885 1039 1878 q 1029 1901 1029 1892 q 1042 1933 1029 1917 q 1075 1960 1056 1950 q 1110 1971 1094 1971 q 1126 1967 1118 1971 q 1139 1956 1133 1963 l 1292 1740 q 1301 1724 1299 1729 q 1303 1713 1303 1718 q 1285 1680 1303 1697 q 1247 1663 1267 1663 z "},"Ẩ":{"ha":1157,"x_min":-79,"x_max":1374,"o":"m -21 -19 q -68 2 -57 -19 q -58 54 -79 24 l 803 1354 q 843 1398 822 1386 q 897 1410 864 1410 q 940 1397 924 1410 q 957 1339 956 1383 l 1018 43 q 1005 -2 1021 15 q 953 -19 989 -19 q 913 -8 922 -19 q 900 32 903 4 l 883 396 l 306 396 l 69 36 q 30 -10 44 0 q -21 -19 15 -19 m 382 507 l 879 507 l 846 1214 l 382 507 m 692 1469 q 664 1486 675 1469 q 653 1518 653 1503 q 658 1539 653 1532 q 668 1551 663 1546 l 893 1726 q 933 1751 914 1744 q 974 1758 951 1758 q 1006 1749 992 1758 q 1032 1722 1021 1740 l 1161 1542 q 1169 1524 1168 1532 q 1169 1510 1169 1517 q 1151 1481 1169 1493 q 1121 1469 1133 1469 q 1097 1476 1107 1469 q 1076 1493 1088 1483 l 947 1618 l 735 1485 q 715 1474 725 1479 q 692 1469 704 1469 m 1242 1996 q 1339 1968 1304 1996 q 1374 1892 1374 1940 q 1353 1821 1374 1853 q 1290 1760 1333 1789 q 1258 1733 1268 1744 q 1246 1706 1249 1721 l 1242 1685 q 1224 1658 1239 1667 q 1190 1651 1208 1650 q 1158 1661 1172 1651 q 1143 1688 1144 1671 l 1142 1718 q 1152 1774 1139 1751 q 1192 1817 1165 1797 q 1227 1848 1215 1833 q 1239 1872 1239 1863 q 1231 1889 1239 1883 q 1206 1894 1222 1894 q 1174 1890 1192 1894 q 1132 1878 1156 1885 q 1076 1903 1096 1861 q 1100 1964 1061 1944 q 1167 1988 1133 1979 q 1242 1996 1201 1996 z "},"Ẫ":{"ha":1157,"x_min":-79,"x_max":1263,"o":"m -21 -19 q -68 2 -57 -19 q -58 54 -79 24 l 803 1354 q 843 1398 822 1386 q 897 1410 864 1410 q 940 1397 924 1410 q 957 1339 956 1383 l 1018 43 q 1005 -2 1021 15 q 953 -19 989 -19 q 913 -8 922 -19 q 900 32 903 4 l 883 396 l 306 396 l 69 36 q 30 -10 44 0 q -21 -19 15 -19 m 382 507 l 879 507 l 846 1214 l 382 507 m 692 1469 q 664 1486 675 1469 q 653 1518 653 1503 q 658 1539 653 1532 q 668 1551 663 1546 l 893 1726 q 933 1751 914 1744 q 974 1758 951 1758 q 1006 1749 992 1758 q 1032 1722 1021 1740 l 1161 1542 q 1169 1524 1168 1532 q 1169 1510 1169 1517 q 1151 1481 1169 1493 q 1121 1469 1133 1469 q 1097 1476 1107 1469 q 1076 1493 1088 1483 l 947 1618 l 735 1485 q 715 1474 725 1479 q 692 1469 704 1469 m 774 1781 q 732 1819 731 1781 q 770 1952 738 1910 q 863 1994 803 1994 q 941 1980 903 1994 q 1013 1945 979 1965 q 1076 1910 1047 1925 q 1125 1896 1106 1896 q 1148 1910 1136 1896 q 1165 1960 1160 1925 q 1224 1996 1169 1996 q 1253 1987 1244 1996 q 1261 1960 1263 1978 q 1224 1825 1256 1868 q 1129 1782 1193 1782 q 1049 1797 1086 1782 q 980 1831 1013 1811 q 919 1865 947 1850 q 867 1879 892 1879 q 840 1864 850 1879 q 825 1817 829 1849 q 810 1790 824 1799 q 774 1781 796 1781 z "},"Ạ":{"ha":1157,"x_min":-79,"x_max":1021,"o":"m -21 -19 q -68 2 -57 -19 q -58 54 -79 24 l 803 1354 q 843 1398 822 1386 q 897 1410 864 1410 q 940 1397 924 1410 q 957 1339 956 1383 l 1018 43 q 1005 -2 1021 15 q 953 -19 989 -19 q 913 -8 922 -19 q 900 32 903 4 l 883 396 l 306 396 l 69 36 q 30 -10 44 0 q -21 -19 15 -19 m 382 507 l 879 507 l 846 1214 l 382 507 m 371 -322 q 324 -304 343 -322 q 304 -251 304 -286 q 328 -181 304 -214 q 404 -147 353 -147 q 453 -165 433 -147 q 472 -218 472 -183 q 448 -290 472 -257 q 371 -322 424 -322 z "},"Ả":{"ha":1157,"x_min":-79,"x_max":1089,"o":"m -21 -19 q -68 2 -57 -19 q -58 54 -79 24 l 803 1354 q 843 1398 822 1386 q 897 1410 864 1410 q 940 1397 924 1410 q 957 1339 956 1383 l 1018 43 q 1005 -2 1021 15 q 953 -19 989 -19 q 913 -8 922 -19 q 900 32 903 4 l 883 396 l 306 396 l 69 36 q 30 -10 44 0 q -21 -19 15 -19 m 382 507 l 879 507 l 846 1214 l 382 507 m 957 1800 q 1054 1772 1019 1800 q 1089 1696 1089 1744 q 1069 1625 1089 1657 q 1006 1564 1049 1593 q 974 1537 983 1549 q 961 1510 964 1525 l 957 1489 q 939 1463 954 1471 q 906 1455 924 1454 q 874 1465 888 1456 q 858 1492 860 1475 l 857 1522 q 867 1578 854 1556 q 907 1621 881 1601 q 942 1652 931 1638 q 954 1676 954 1667 q 946 1693 954 1688 q 921 1699 938 1699 q 889 1694 907 1699 q 847 1682 871 1689 q 792 1707 811 1665 q 815 1768 776 1749 q 883 1792 849 1783 q 957 1800 917 1800 z "},"Ć":{"ha":1197,"x_min":207,"x_max":1385,"o":"m 644 -26 q 460 6 540 -26 q 322 103 379 39 q 236 260 265 167 q 207 469 207 353 q 229 671 207 565 q 297 882 251 776 q 408 1082 342 988 q 564 1251 475 1176 q 763 1367 653 1325 q 1004 1410 872 1410 q 1161 1391 1092 1410 q 1283 1335 1231 1372 q 1374 1242 1336 1297 q 1378 1215 1385 1226 q 1353 1189 1372 1204 q 1322 1172 1335 1175 q 1289 1186 1308 1169 q 1213 1245 1254 1222 q 1115 1280 1171 1268 q 983 1292 1060 1292 q 802 1256 888 1292 q 644 1159 717 1221 q 515 1018 572 1097 q 419 849 458 939 q 358 667 379 758 q 338 490 338 575 q 356 315 338 390 q 415 191 375 240 q 517 117 456 142 q 664 92 579 92 q 776 111 722 92 q 882 166 831 131 q 985 251 933 201 q 1089 363 1036 301 q 1120 372 1104 379 q 1151 350 1136 365 q 1172 319 1169 332 q 1158 285 1174 306 q 974 96 1067 164 q 798 1 882 28 q 644 -26 714 -26 m 963 1469 q 928 1488 947 1469 q 910 1521 910 1507 q 912 1532 910 1526 q 922 1546 914 1538 l 1142 1747 q 1155 1758 1149 1754 q 1169 1763 1161 1763 q 1201 1750 1183 1763 q 1231 1721 1218 1738 q 1243 1689 1243 1704 q 1240 1672 1243 1679 q 1222 1654 1238 1665 l 989 1483 q 974 1474 981 1478 q 963 1469 968 1469 z "},"Č":{"ha":1197,"x_min":207,"x_max":1385,"o":"m 644 -26 q 460 6 540 -26 q 322 103 379 39 q 236 260 265 167 q 207 469 207 353 q 229 671 207 565 q 297 882 251 776 q 408 1082 342 988 q 564 1251 475 1176 q 763 1367 653 1325 q 1004 1410 872 1410 q 1161 1391 1092 1410 q 1283 1335 1231 1372 q 1374 1242 1336 1297 q 1378 1215 1385 1226 q 1353 1189 1372 1204 q 1322 1172 1335 1175 q 1289 1186 1308 1169 q 1213 1245 1254 1222 q 1115 1280 1171 1268 q 983 1292 1060 1292 q 802 1256 888 1292 q 644 1159 717 1221 q 515 1018 572 1097 q 419 849 458 939 q 358 667 379 758 q 338 490 338 575 q 356 315 338 390 q 415 191 375 240 q 517 117 456 142 q 664 92 579 92 q 776 111 722 92 q 882 166 831 131 q 985 251 933 201 q 1089 363 1036 301 q 1120 372 1104 379 q 1151 350 1136 365 q 1172 319 1169 332 q 1158 285 1174 306 q 974 96 1067 164 q 798 1 882 28 q 644 -26 714 -26 m 1297 1758 q 1327 1742 1314 1758 q 1340 1710 1340 1725 q 1336 1689 1340 1696 q 1325 1676 1332 1682 l 1099 1501 q 1060 1477 1078 1485 q 1019 1469 1042 1469 q 987 1479 1001 1469 q 960 1507 972 1489 l 832 1688 q 824 1706 825 1699 q 822 1718 822 1713 q 842 1747 822 1735 q 876 1758 863 1758 q 897 1752 890 1758 q 914 1736 904 1746 l 1044 1611 l 1257 1738 q 1276 1751 1267 1743 q 1297 1758 1286 1758 z "},"Ç":{"ha":1197,"x_min":207,"x_max":1385,"o":"m 644 -26 q 460 6 540 -26 q 322 103 379 39 q 236 260 265 167 q 207 469 207 353 q 229 671 207 565 q 297 882 251 776 q 408 1082 342 988 q 564 1251 475 1176 q 763 1367 653 1325 q 1004 1410 872 1410 q 1161 1391 1092 1410 q 1283 1335 1231 1372 q 1374 1242 1336 1297 q 1378 1215 1385 1226 q 1353 1189 1372 1204 q 1322 1172 1335 1175 q 1289 1186 1308 1169 q 1213 1245 1254 1222 q 1115 1280 1171 1268 q 983 1292 1060 1292 q 802 1256 888 1292 q 644 1159 717 1221 q 515 1018 572 1097 q 419 849 458 939 q 358 667 379 758 q 338 490 338 575 q 356 315 338 390 q 415 191 375 240 q 517 117 456 142 q 664 92 579 92 q 776 111 722 92 q 882 166 831 131 q 985 251 933 201 q 1089 363 1036 301 q 1120 372 1104 379 q 1151 350 1136 365 q 1172 319 1169 332 q 1158 285 1174 306 q 974 96 1067 164 q 798 1 882 28 q 644 -26 714 -26 m 479 -374 q 387 -363 428 -374 q 322 -335 346 -353 q 313 -306 311 -324 q 321 -276 314 -289 q 342 -252 331 -258 q 368 -251 354 -246 q 413 -269 386 -260 q 482 -278 439 -278 q 536 -267 517 -278 q 556 -229 556 -257 q 528 -191 556 -199 q 464 -187 501 -183 q 442 -185 449 -189 q 431 -172 436 -181 q 427 -153 425 -162 q 436 -135 429 -144 l 538 18 l 628 18 l 522 -146 l 482 -124 q 586 -112 543 -104 q 652 -147 629 -119 q 675 -215 675 -175 q 648 -302 675 -267 q 576 -356 621 -337 q 479 -374 532 -374 z "},"Ĉ":{"ha":1197,"x_min":207,"x_max":1385,"o":"m 644 -26 q 460 6 540 -26 q 322 103 379 39 q 236 260 265 167 q 207 469 207 353 q 229 671 207 565 q 297 882 251 776 q 408 1082 342 988 q 564 1251 475 1176 q 763 1367 653 1325 q 1004 1410 872 1410 q 1161 1391 1092 1410 q 1283 1335 1231 1372 q 1374 1242 1336 1297 q 1378 1215 1385 1226 q 1353 1189 1372 1204 q 1322 1172 1335 1175 q 1289 1186 1308 1169 q 1213 1245 1254 1222 q 1115 1280 1171 1268 q 983 1292 1060 1292 q 802 1256 888 1292 q 644 1159 717 1221 q 515 1018 572 1097 q 419 849 458 939 q 358 667 379 758 q 338 490 338 575 q 356 315 338 390 q 415 191 375 240 q 517 117 456 142 q 664 92 579 92 q 776 111 722 92 q 882 166 831 131 q 985 251 933 201 q 1089 363 1036 301 q 1120 372 1104 379 q 1151 350 1136 365 q 1172 319 1169 332 q 1158 285 1174 306 q 974 96 1067 164 q 798 1 882 28 q 644 -26 714 -26 m 826 1469 q 799 1486 810 1469 q 788 1518 788 1503 q 792 1539 788 1532 q 803 1551 797 1546 l 1028 1726 q 1067 1751 1049 1744 q 1108 1758 1086 1758 q 1141 1749 1126 1758 q 1167 1722 1156 1740 l 1296 1542 q 1303 1524 1303 1532 q 1304 1510 1304 1517 q 1286 1481 1304 1493 q 1256 1469 1268 1469 q 1232 1476 1242 1469 q 1211 1493 1222 1483 l 1082 1618 l 869 1485 q 849 1474 860 1479 q 826 1469 839 1469 z "},"Ċ":{"ha":1197,"x_min":207,"x_max":1385,"o":"m 644 -26 q 460 6 540 -26 q 322 103 379 39 q 236 260 265 167 q 207 469 207 353 q 229 671 207 565 q 297 882 251 776 q 408 1082 342 988 q 564 1251 475 1176 q 763 1367 653 1325 q 1004 1410 872 1410 q 1161 1391 1092 1410 q 1283 1335 1231 1372 q 1374 1242 1336 1297 q 1378 1215 1385 1226 q 1353 1189 1372 1204 q 1322 1172 1335 1175 q 1289 1186 1308 1169 q 1213 1245 1254 1222 q 1115 1280 1171 1268 q 983 1292 1060 1292 q 802 1256 888 1292 q 644 1159 717 1221 q 515 1018 572 1097 q 419 849 458 939 q 358 667 379 758 q 338 490 338 575 q 356 315 338 390 q 415 191 375 240 q 517 117 456 142 q 664 92 579 92 q 776 111 722 92 q 882 166 831 131 q 985 251 933 201 q 1089 363 1036 301 q 1120 372 1104 379 q 1151 350 1136 365 q 1172 319 1169 332 q 1158 285 1174 306 q 974 96 1067 164 q 798 1 882 28 q 644 -26 714 -26 m 1046 1517 q 997 1535 1017 1517 q 978 1589 978 1553 q 1003 1659 978 1626 q 1079 1692 1028 1692 q 1126 1674 1107 1692 q 1146 1621 1146 1657 q 1122 1550 1146 1583 q 1046 1517 1099 1517 z "},"Ď":{"ha":1340,"x_min":86,"x_max":1367,"o":"m 147 0 q 99 39 86 0 l 525 1347 q 550 1376 532 1367 q 599 1386 568 1386 l 839 1386 q 1070 1353 971 1386 q 1235 1261 1169 1319 q 1334 1124 1301 1203 q 1367 954 1367 1044 q 1319 641 1367 786 q 1184 378 1271 496 q 981 176 1097 260 q 723 46 864 92 q 428 0 582 0 l 147 0 m 246 118 l 428 118 q 673 156 554 118 q 892 265 792 193 q 1069 440 993 338 q 1186 672 1144 543 q 1228 953 1228 801 q 1201 1085 1228 1026 q 1122 1185 1174 1144 q 999 1247 1071 1225 q 838 1268 926 1268 l 621 1268 l 246 118 m 1243 1758 q 1273 1742 1260 1758 q 1286 1710 1286 1725 q 1282 1689 1286 1696 q 1271 1676 1278 1682 l 1044 1501 q 1006 1477 1024 1485 q 965 1469 988 1469 q 933 1479 947 1469 q 906 1507 918 1489 l 778 1688 q 769 1706 771 1699 q 768 1718 768 1713 q 788 1747 768 1735 q 822 1758 808 1758 q 843 1752 836 1758 q 860 1736 850 1746 l 990 1611 l 1203 1738 q 1222 1751 1213 1743 q 1243 1758 1232 1758 z "},"Đ":{"ha":1340,"x_min":86,"x_max":1367,"o":"m 147 0 q 99 39 86 0 l 525 1347 q 550 1376 532 1367 q 599 1386 568 1386 l 839 1386 q 1070 1353 971 1386 q 1235 1261 1169 1319 q 1334 1124 1301 1203 q 1367 954 1367 1044 q 1319 641 1367 786 q 1184 378 1271 496 q 981 176 1097 260 q 723 46 864 92 q 428 0 582 0 l 147 0 m 246 118 l 428 118 q 673 156 554 118 q 892 265 792 193 q 1069 440 993 338 q 1186 672 1144 543 q 1228 953 1228 801 q 1201 1085 1228 1026 q 1122 1185 1174 1144 q 999 1247 1071 1225 q 838 1268 926 1268 l 621 1268 l 246 118 m 165 650 q 138 665 140 650 q 139 699 135 681 q 153 735 143 718 q 189 751 163 751 l 736 751 q 765 735 763 751 q 764 699 768 718 q 750 665 760 681 q 715 650 740 650 l 165 650 z "},"É":{"ha":1022,"x_min":99,"x_max":1283,"o":"m 161 0 q 113 13 126 0 q 107 56 99 25 l 524 1347 q 545 1376 529 1367 q 589 1386 561 1386 l 1257 1386 q 1278 1372 1272 1386 q 1275 1331 1283 1358 q 1254 1289 1268 1303 q 1225 1275 1240 1275 l 622 1275 l 465 789 l 965 789 q 986 775 981 789 q 985 733 992 761 q 963 692 976 706 q 933 678 949 678 l 429 678 l 249 111 l 844 111 q 866 98 860 111 q 864 56 872 85 q 843 15 857 29 q 814 0 829 0 l 161 0 m 857 1469 q 823 1488 842 1469 q 804 1521 804 1507 q 806 1532 804 1526 q 817 1546 808 1538 l 1036 1747 q 1049 1758 1043 1754 q 1064 1763 1056 1763 q 1095 1750 1078 1763 q 1125 1721 1113 1738 q 1138 1689 1138 1704 q 1135 1672 1138 1679 q 1117 1654 1132 1665 l 883 1483 q 869 1474 875 1478 q 857 1469 863 1469 z "},"Ĕ":{"ha":1022,"x_min":99,"x_max":1283,"o":"m 161 0 q 113 13 126 0 q 107 56 99 25 l 524 1347 q 545 1376 529 1367 q 589 1386 561 1386 l 1257 1386 q 1278 1372 1272 1386 q 1275 1331 1283 1358 q 1254 1289 1268 1303 q 1225 1275 1240 1275 l 622 1275 l 465 789 l 965 789 q 986 775 981 789 q 985 733 992 761 q 963 692 976 706 q 933 678 949 678 l 429 678 l 249 111 l 844 111 q 866 98 860 111 q 864 56 872 85 q 843 15 857 29 q 814 0 829 0 l 161 0 m 929 1469 q 775 1531 828 1469 q 736 1721 722 1593 q 751 1750 739 1742 q 785 1758 764 1758 q 819 1748 806 1758 q 832 1721 832 1738 q 865 1619 831 1650 q 951 1589 899 1589 q 1062 1626 1015 1589 q 1133 1717 1108 1663 q 1157 1750 1144 1742 q 1189 1758 1169 1758 q 1226 1746 1213 1758 q 1232 1713 1239 1733 q 1160 1564 1200 1617 q 1065 1490 1121 1511 q 929 1469 1008 1469 z "},"Ě":{"ha":1022,"x_min":99,"x_max":1283,"o":"m 161 0 q 113 13 126 0 q 107 56 99 25 l 524 1347 q 545 1376 529 1367 q 589 1386 561 1386 l 1257 1386 q 1278 1372 1272 1386 q 1275 1331 1283 1358 q 1254 1289 1268 1303 q 1225 1275 1240 1275 l 622 1275 l 465 789 l 965 789 q 986 775 981 789 q 985 733 992 761 q 963 692 976 706 q 933 678 949 678 l 429 678 l 249 111 l 844 111 q 866 98 860 111 q 864 56 872 85 q 843 15 857 29 q 814 0 829 0 l 161 0 m 1192 1758 q 1222 1742 1208 1758 q 1235 1710 1235 1725 q 1231 1689 1235 1696 q 1219 1676 1226 1682 l 993 1501 q 954 1477 972 1485 q 914 1469 936 1469 q 881 1479 896 1469 q 854 1507 867 1489 l 726 1688 q 718 1706 719 1699 q 717 1718 717 1713 q 737 1747 717 1735 q 771 1758 757 1758 q 792 1752 785 1758 q 808 1736 799 1746 l 939 1611 l 1151 1738 q 1171 1751 1161 1743 q 1192 1758 1181 1758 z "},"Ê":{"ha":1022,"x_min":99,"x_max":1283,"o":"m 161 0 q 113 13 126 0 q 107 56 99 25 l 524 1347 q 545 1376 529 1367 q 589 1386 561 1386 l 1257 1386 q 1278 1372 1272 1386 q 1275 1331 1283 1358 q 1254 1289 1268 1303 q 1225 1275 1240 1275 l 622 1275 l 465 789 l 965 789 q 986 775 981 789 q 985 733 992 761 q 963 692 976 706 q 933 678 949 678 l 429 678 l 249 111 l 844 111 q 866 98 860 111 q 864 56 872 85 q 843 15 857 29 q 814 0 829 0 l 161 0 m 721 1469 q 693 1486 704 1469 q 682 1518 682 1503 q 687 1539 682 1532 q 697 1551 692 1546 l 922 1726 q 962 1751 943 1744 q 1003 1758 981 1758 q 1035 1749 1021 1758 q 1061 1722 1050 1740 l 1190 1542 q 1198 1524 1197 1532 q 1199 1510 1199 1517 q 1181 1481 1199 1493 q 1150 1469 1163 1469 q 1126 1476 1136 1469 q 1106 1493 1117 1483 l 976 1618 l 764 1485 q 744 1474 754 1479 q 721 1469 733 1469 z "},"Ë":{"ha":1022,"x_min":99,"x_max":1283,"o":"m 161 0 q 113 13 126 0 q 107 56 99 25 l 524 1347 q 545 1376 529 1367 q 589 1386 561 1386 l 1257 1386 q 1278 1372 1272 1386 q 1275 1331 1283 1358 q 1254 1289 1268 1303 q 1225 1275 1240 1275 l 622 1275 l 465 789 l 965 789 q 986 775 981 789 q 985 733 992 761 q 963 692 976 706 q 933 678 949 678 l 429 678 l 249 111 l 844 111 q 866 98 860 111 q 864 56 872 85 q 843 15 857 29 q 814 0 829 0 l 161 0 m 767 1517 q 718 1535 738 1517 q 699 1589 699 1553 q 724 1659 699 1626 q 800 1692 750 1692 q 847 1674 828 1692 q 867 1621 867 1657 q 843 1550 867 1583 q 767 1517 819 1517 m 1108 1517 q 1060 1535 1081 1517 q 1040 1589 1040 1553 q 1066 1659 1040 1626 q 1142 1692 1092 1692 q 1190 1674 1169 1692 q 1210 1621 1210 1657 q 1185 1550 1210 1583 q 1108 1517 1161 1517 z "},"Ė":{"ha":1022,"x_min":99,"x_max":1283,"o":"m 161 0 q 113 13 126 0 q 107 56 99 25 l 524 1347 q 545 1376 529 1367 q 589 1386 561 1386 l 1257 1386 q 1278 1372 1272 1386 q 1275 1331 1283 1358 q 1254 1289 1268 1303 q 1225 1275 1240 1275 l 622 1275 l 465 789 l 965 789 q 986 775 981 789 q 985 733 992 761 q 963 692 976 706 q 933 678 949 678 l 429 678 l 249 111 l 844 111 q 866 98 860 111 q 864 56 872 85 q 843 15 857 29 q 814 0 829 0 l 161 0 m 940 1517 q 892 1535 911 1517 q 872 1589 872 1553 q 897 1659 872 1626 q 974 1692 922 1692 q 1021 1674 1001 1692 q 1040 1621 1040 1657 q 1017 1550 1040 1583 q 940 1517 993 1517 z "},"È":{"ha":1022,"x_min":99,"x_max":1283,"o":"m 161 0 q 113 13 126 0 q 107 56 99 25 l 524 1347 q 545 1376 529 1367 q 589 1386 561 1386 l 1257 1386 q 1278 1372 1272 1386 q 1275 1331 1283 1358 q 1254 1289 1268 1303 q 1225 1275 1240 1275 l 622 1275 l 465 789 l 965 789 q 986 775 981 789 q 985 733 992 761 q 963 692 976 706 q 933 678 949 678 l 429 678 l 249 111 l 844 111 q 866 98 860 111 q 864 56 872 85 q 843 15 857 29 q 814 0 829 0 l 161 0 m 999 1469 q 986 1474 993 1469 q 972 1483 979 1478 l 774 1656 q 756 1674 760 1667 q 753 1690 753 1681 q 766 1722 753 1706 q 797 1751 779 1739 q 828 1763 815 1763 q 844 1758 838 1763 q 857 1747 850 1754 l 1040 1544 q 1050 1530 1049 1535 q 1051 1521 1051 1525 q 1033 1488 1051 1507 q 999 1469 1014 1469 z "},"Ē":{"ha":1022,"x_min":99,"x_max":1283,"o":"m 161 0 q 113 13 126 0 q 107 56 99 25 l 524 1347 q 545 1376 529 1367 q 589 1386 561 1386 l 1257 1386 q 1278 1372 1272 1386 q 1275 1331 1283 1358 q 1254 1289 1268 1303 q 1225 1275 1240 1275 l 622 1275 l 465 789 l 965 789 q 986 775 981 789 q 985 733 992 761 q 963 692 976 706 q 933 678 949 678 l 429 678 l 249 111 l 844 111 q 866 98 860 111 q 864 56 872 85 q 843 15 857 29 q 814 0 829 0 l 161 0 m 760 1556 q 727 1572 733 1556 q 728 1613 721 1588 q 747 1658 735 1643 q 785 1674 760 1674 l 1157 1674 q 1191 1656 1185 1674 q 1190 1613 1197 1639 q 1171 1569 1183 1583 q 1133 1556 1158 1556 l 760 1556 z "},"Ę":{"ha":1022,"x_min":99,"x_max":1283,"o":"m 161 0 q 113 13 126 0 q 107 56 99 25 l 524 1347 q 545 1376 529 1367 q 589 1386 561 1386 l 1257 1386 q 1278 1372 1272 1386 q 1275 1331 1283 1358 q 1254 1289 1268 1303 q 1225 1275 1240 1275 l 622 1275 l 465 789 l 965 789 q 986 775 981 789 q 985 733 992 761 q 963 692 976 706 q 933 678 949 678 l 429 678 l 249 111 l 844 111 q 866 98 860 111 q 864 56 872 85 q 843 15 857 29 q 814 0 829 0 l 161 0 m 567 -350 q 505 -329 528 -350 q 482 -269 482 -308 q 501 -199 482 -235 q 556 -127 519 -164 q 644 -51 592 -90 q 761 35 696 -11 l 844 32 l 844 25 q 750 -52 793 -15 q 676 -121 707 -89 q 629 -178 646 -153 q 613 -221 613 -203 q 619 -239 613 -233 q 635 -244 625 -244 q 685 -227 660 -244 q 747 -176 710 -210 q 769 -167 754 -169 q 800 -181 785 -165 q 813 -205 811 -192 q 807 -231 815 -218 q 739 -292 781 -265 q 652 -335 697 -319 q 567 -350 607 -350 z "},"Ế":{"ha":1022,"x_min":99,"x_max":1442,"o":"m 161 0 q 113 13 126 0 q 107 56 99 25 l 524 1347 q 545 1376 529 1367 q 589 1386 561 1386 l 1257 1386 q 1278 1372 1272 1386 q 1275 1331 1283 1358 q 1254 1289 1268 1303 q 1225 1275 1240 1275 l 622 1275 l 465 789 l 965 789 q 986 775 981 789 q 985 733 992 761 q 963 692 976 706 q 933 678 949 678 l 429 678 l 249 111 l 844 111 q 866 98 860 111 q 864 56 872 85 q 843 15 857 29 q 814 0 829 0 l 161 0 m 721 1469 q 693 1486 704 1469 q 682 1518 682 1503 q 687 1539 682 1532 q 697 1551 692 1546 l 922 1726 q 962 1751 943 1744 q 1003 1758 981 1758 q 1035 1749 1021 1758 q 1061 1722 1050 1740 l 1190 1542 q 1198 1524 1197 1532 q 1199 1510 1199 1517 q 1181 1481 1199 1493 q 1150 1469 1163 1469 q 1126 1476 1136 1469 q 1106 1493 1117 1483 l 976 1618 l 764 1485 q 744 1474 754 1479 q 721 1469 733 1469 m 1197 1685 q 1163 1704 1182 1685 q 1144 1736 1144 1724 q 1147 1747 1144 1742 q 1158 1763 1149 1753 l 1339 1939 q 1352 1951 1346 1947 q 1367 1956 1358 1956 q 1399 1943 1381 1956 q 1429 1913 1417 1931 q 1442 1881 1442 1896 q 1438 1864 1442 1871 q 1419 1847 1435 1857 l 1224 1699 q 1209 1688 1215 1692 q 1197 1685 1203 1685 z "},"Ệ":{"ha":1022,"x_min":99,"x_max":1283,"o":"m 161 0 q 113 13 126 0 q 107 56 99 25 l 524 1347 q 545 1376 529 1367 q 589 1386 561 1386 l 1257 1386 q 1278 1372 1272 1386 q 1275 1331 1283 1358 q 1254 1289 1268 1303 q 1225 1275 1240 1275 l 622 1275 l 465 789 l 965 789 q 986 775 981 789 q 985 733 992 761 q 963 692 976 706 q 933 678 949 678 l 429 678 l 249 111 l 844 111 q 866 98 860 111 q 864 56 872 85 q 843 15 857 29 q 814 0 829 0 l 161 0 m 406 -322 q 358 -304 378 -322 q 339 -251 339 -286 q 363 -181 339 -214 q 439 -147 388 -147 q 488 -165 468 -147 q 507 -218 507 -183 q 483 -290 507 -257 q 406 -322 458 -322 m 721 1469 q 693 1486 704 1469 q 682 1518 682 1503 q 687 1539 682 1532 q 697 1551 692 1546 l 922 1726 q 962 1751 943 1744 q 1003 1758 981 1758 q 1035 1749 1021 1758 q 1061 1722 1050 1740 l 1190 1542 q 1198 1524 1197 1532 q 1199 1510 1199 1517 q 1181 1481 1199 1493 q 1150 1469 1163 1469 q 1126 1476 1136 1469 q 1106 1493 1117 1483 l 976 1618 l 764 1485 q 744 1474 754 1479 q 721 1469 733 1469 z "},"Ề":{"ha":1022,"x_min":99,"x_max":1332,"o":"m 161 0 q 113 13 126 0 q 107 56 99 25 l 524 1347 q 545 1376 529 1367 q 589 1386 561 1386 l 1257 1386 q 1278 1372 1272 1386 q 1275 1331 1283 1358 q 1254 1289 1268 1303 q 1225 1275 1240 1275 l 622 1275 l 465 789 l 965 789 q 986 775 981 789 q 985 733 992 761 q 963 692 976 706 q 933 678 949 678 l 429 678 l 249 111 l 844 111 q 866 98 860 111 q 864 56 872 85 q 843 15 857 29 q 814 0 829 0 l 161 0 m 721 1469 q 693 1486 704 1469 q 682 1518 682 1503 q 687 1539 682 1532 q 697 1551 692 1546 l 922 1726 q 962 1751 943 1744 q 1003 1758 981 1758 q 1035 1749 1021 1758 q 1061 1722 1050 1740 l 1190 1542 q 1198 1524 1197 1532 q 1199 1510 1199 1517 q 1181 1481 1199 1493 q 1150 1469 1163 1469 q 1126 1476 1136 1469 q 1106 1493 1117 1483 l 976 1618 l 764 1485 q 744 1474 754 1479 q 721 1469 733 1469 m 1276 1663 q 1265 1665 1271 1663 q 1251 1675 1258 1668 l 1079 1865 q 1063 1885 1068 1878 q 1058 1901 1058 1892 q 1072 1933 1058 1917 q 1104 1960 1085 1950 q 1139 1971 1124 1971 q 1155 1967 1147 1971 q 1168 1956 1163 1963 l 1321 1740 q 1330 1724 1328 1729 q 1332 1713 1332 1718 q 1314 1680 1332 1697 q 1276 1663 1296 1663 z "},"Ể":{"ha":1022,"x_min":99,"x_max":1403,"o":"m 161 0 q 113 13 126 0 q 107 56 99 25 l 524 1347 q 545 1376 529 1367 q 589 1386 561 1386 l 1257 1386 q 1278 1372 1272 1386 q 1275 1331 1283 1358 q 1254 1289 1268 1303 q 1225 1275 1240 1275 l 622 1275 l 465 789 l 965 789 q 986 775 981 789 q 985 733 992 761 q 963 692 976 706 q 933 678 949 678 l 429 678 l 249 111 l 844 111 q 866 98 860 111 q 864 56 872 85 q 843 15 857 29 q 814 0 829 0 l 161 0 m 721 1469 q 693 1486 704 1469 q 682 1518 682 1503 q 687 1539 682 1532 q 697 1551 692 1546 l 922 1726 q 962 1751 943 1744 q 1003 1758 981 1758 q 1035 1749 1021 1758 q 1061 1722 1050 1740 l 1190 1542 q 1198 1524 1197 1532 q 1199 1510 1199 1517 q 1181 1481 1199 1493 q 1150 1469 1163 1469 q 1126 1476 1136 1469 q 1106 1493 1117 1483 l 976 1618 l 764 1485 q 744 1474 754 1479 q 721 1469 733 1469 m 1271 1996 q 1368 1968 1333 1996 q 1403 1892 1403 1940 q 1383 1821 1403 1853 q 1319 1760 1363 1789 q 1288 1733 1297 1744 q 1275 1706 1278 1721 l 1271 1685 q 1253 1658 1268 1667 q 1219 1651 1238 1650 q 1188 1661 1201 1651 q 1172 1688 1174 1671 l 1171 1718 q 1181 1774 1168 1751 q 1221 1817 1194 1797 q 1256 1848 1244 1833 q 1268 1872 1268 1863 q 1260 1889 1268 1883 q 1235 1894 1251 1894 q 1203 1890 1221 1894 q 1161 1878 1185 1885 q 1106 1903 1125 1861 q 1129 1964 1090 1944 q 1197 1988 1163 1979 q 1271 1996 1231 1996 z "},"Ễ":{"ha":1022,"x_min":99,"x_max":1292,"o":"m 161 0 q 113 13 126 0 q 107 56 99 25 l 524 1347 q 545 1376 529 1367 q 589 1386 561 1386 l 1257 1386 q 1278 1372 1272 1386 q 1275 1331 1283 1358 q 1254 1289 1268 1303 q 1225 1275 1240 1275 l 622 1275 l 465 789 l 965 789 q 986 775 981 789 q 985 733 992 761 q 963 692 976 706 q 933 678 949 678 l 429 678 l 249 111 l 844 111 q 866 98 860 111 q 864 56 872 85 q 843 15 857 29 q 814 0 829 0 l 161 0 m 721 1469 q 693 1486 704 1469 q 682 1518 682 1503 q 687 1539 682 1532 q 697 1551 692 1546 l 922 1726 q 962 1751 943 1744 q 1003 1758 981 1758 q 1035 1749 1021 1758 q 1061 1722 1050 1740 l 1190 1542 q 1198 1524 1197 1532 q 1199 1510 1199 1517 q 1181 1481 1199 1493 q 1150 1469 1163 1469 q 1126 1476 1136 1469 q 1106 1493 1117 1483 l 976 1618 l 764 1485 q 744 1474 754 1479 q 721 1469 733 1469 m 803 1781 q 761 1819 760 1781 q 799 1952 767 1910 q 892 1994 832 1994 q 970 1980 932 1994 q 1042 1945 1008 1965 q 1106 1910 1076 1925 q 1154 1896 1135 1896 q 1177 1910 1165 1896 q 1194 1960 1189 1925 q 1253 1996 1199 1996 q 1283 1987 1274 1996 q 1290 1960 1292 1978 q 1253 1825 1285 1868 q 1158 1782 1222 1782 q 1078 1797 1115 1782 q 1009 1831 1042 1811 q 949 1865 976 1850 q 896 1879 921 1879 q 869 1864 879 1879 q 854 1817 858 1849 q 839 1790 853 1799 q 803 1781 825 1781 z "},"Ẹ":{"ha":1022,"x_min":99,"x_max":1283,"o":"m 161 0 q 113 13 126 0 q 107 56 99 25 l 524 1347 q 545 1376 529 1367 q 589 1386 561 1386 l 1257 1386 q 1278 1372 1272 1386 q 1275 1331 1283 1358 q 1254 1289 1268 1303 q 1225 1275 1240 1275 l 622 1275 l 465 789 l 965 789 q 986 775 981 789 q 985 733 992 761 q 963 692 976 706 q 933 678 949 678 l 429 678 l 249 111 l 844 111 q 866 98 860 111 q 864 56 872 85 q 843 15 857 29 q 814 0 829 0 l 161 0 m 406 -322 q 358 -304 378 -322 q 339 -251 339 -286 q 363 -181 339 -214 q 439 -147 388 -147 q 488 -165 468 -147 q 507 -218 507 -183 q 483 -290 507 -257 q 406 -322 458 -322 z "},"Ẻ":{"ha":1022,"x_min":99,"x_max":1283,"o":"m 161 0 q 113 13 126 0 q 107 56 99 25 l 524 1347 q 545 1376 529 1367 q 589 1386 561 1386 l 1257 1386 q 1278 1372 1272 1386 q 1275 1331 1283 1358 q 1254 1289 1268 1303 q 1225 1275 1240 1275 l 622 1275 l 465 789 l 965 789 q 986 775 981 789 q 985 733 992 761 q 963 692 976 706 q 933 678 949 678 l 429 678 l 249 111 l 844 111 q 866 98 860 111 q 864 56 872 85 q 843 15 857 29 q 814 0 829 0 l 161 0 m 988 1800 q 1085 1772 1050 1800 q 1119 1696 1119 1744 q 1099 1625 1119 1657 q 1036 1564 1079 1593 q 1004 1537 1014 1549 q 992 1510 994 1525 l 988 1489 q 969 1463 985 1471 q 936 1455 954 1454 q 904 1465 918 1456 q 889 1492 890 1475 l 888 1522 q 898 1578 885 1556 q 938 1621 911 1601 q 973 1652 961 1638 q 985 1676 985 1667 q 976 1693 985 1688 q 951 1699 968 1699 q 919 1694 938 1699 q 878 1682 901 1689 q 822 1707 842 1665 q 846 1768 807 1749 q 913 1792 879 1783 q 988 1800 947 1800 z "},"Ẽ":{"ha":1022,"x_min":99,"x_max":1283,"o":"m 161 0 q 113 13 126 0 q 107 56 99 25 l 524 1347 q 545 1376 529 1367 q 589 1386 561 1386 l 1257 1386 q 1278 1372 1272 1386 q 1275 1331 1283 1358 q 1254 1289 1268 1303 q 1225 1275 1240 1275 l 622 1275 l 465 789 l 965 789 q 986 775 981 789 q 985 733 992 761 q 963 692 976 706 q 933 678 949 678 l 429 678 l 249 111 l 844 111 q 866 98 860 111 q 864 56 872 85 q 843 15 857 29 q 814 0 829 0 l 161 0 m 738 1511 q 696 1550 694 1511 q 734 1683 701 1640 q 826 1725 767 1725 q 905 1710 867 1725 q 977 1676 943 1696 q 1040 1641 1011 1656 q 1090 1626 1069 1626 q 1113 1641 1101 1626 q 1131 1690 1125 1656 q 1188 1726 1135 1726 q 1219 1717 1210 1726 q 1226 1690 1228 1708 q 1190 1556 1221 1599 q 1094 1513 1158 1513 q 1014 1527 1051 1513 q 944 1561 976 1542 q 883 1595 911 1581 q 831 1610 856 1610 q 803 1594 814 1610 q 789 1547 793 1579 q 774 1520 788 1529 q 738 1511 760 1511 z "},"Ğ":{"ha":1351,"x_min":206,"x_max":1382,"o":"m 644 -26 q 460 8 540 -25 q 322 104 379 40 q 235 259 265 168 q 206 467 206 350 q 228 669 206 563 q 297 881 251 775 q 409 1081 342 986 q 565 1251 476 1176 q 765 1367 654 1325 q 1006 1410 875 1410 q 1159 1390 1090 1410 q 1281 1334 1228 1371 q 1371 1242 1333 1297 q 1376 1215 1382 1226 q 1350 1188 1369 1203 q 1319 1172 1332 1174 q 1286 1186 1306 1169 q 1210 1245 1251 1222 q 1115 1280 1169 1268 q 986 1292 1061 1292 q 803 1256 889 1292 q 645 1159 718 1221 q 515 1017 572 1097 q 419 847 458 938 q 358 665 379 757 q 336 488 336 572 q 356 315 336 389 q 415 191 375 240 q 516 117 454 142 q 663 92 578 92 q 779 113 721 92 q 894 174 838 133 q 1002 279 950 215 q 1100 430 1054 343 q 1183 626 1146 517 l 826 626 q 802 639 806 626 q 808 682 799 651 q 831 726 819 714 q 864 738 843 738 l 1306 738 q 1331 726 1326 738 q 1326 682 1336 714 q 1194 346 1272 482 q 1023 127 1115 210 q 833 9 931 44 q 644 -26 736 -26 m 1042 1469 q 888 1531 940 1469 q 849 1721 835 1593 q 864 1750 851 1742 q 897 1758 876 1758 q 931 1748 918 1758 q 944 1721 944 1738 q 977 1619 943 1650 q 1064 1589 1011 1589 q 1174 1626 1128 1589 q 1246 1717 1221 1663 q 1269 1750 1257 1742 q 1301 1758 1282 1758 q 1338 1746 1325 1758 q 1344 1713 1351 1733 q 1273 1564 1313 1617 q 1177 1490 1233 1511 q 1042 1469 1121 1469 z "},"Ĝ":{"ha":1351,"x_min":206,"x_max":1382,"o":"m 644 -26 q 460 8 540 -25 q 322 104 379 40 q 235 259 265 168 q 206 467 206 350 q 228 669 206 563 q 297 881 251 775 q 409 1081 342 986 q 565 1251 476 1176 q 765 1367 654 1325 q 1006 1410 875 1410 q 1159 1390 1090 1410 q 1281 1334 1228 1371 q 1371 1242 1333 1297 q 1376 1215 1382 1226 q 1350 1188 1369 1203 q 1319 1172 1332 1174 q 1286 1186 1306 1169 q 1210 1245 1251 1222 q 1115 1280 1169 1268 q 986 1292 1061 1292 q 803 1256 889 1292 q 645 1159 718 1221 q 515 1017 572 1097 q 419 847 458 938 q 358 665 379 757 q 336 488 336 572 q 356 315 336 389 q 415 191 375 240 q 516 117 454 142 q 663 92 578 92 q 779 113 721 92 q 894 174 838 133 q 1002 279 950 215 q 1100 430 1054 343 q 1183 626 1146 517 l 826 626 q 802 639 806 626 q 808 682 799 651 q 831 726 819 714 q 864 738 843 738 l 1306 738 q 1331 726 1326 738 q 1326 682 1336 714 q 1194 346 1272 482 q 1023 127 1115 210 q 833 9 931 44 q 644 -26 736 -26 m 833 1469 q 806 1486 817 1469 q 794 1518 794 1503 q 799 1539 794 1532 q 810 1551 804 1546 l 1035 1726 q 1074 1751 1056 1744 q 1115 1758 1093 1758 q 1148 1749 1133 1758 q 1174 1722 1163 1740 l 1303 1542 q 1310 1524 1310 1532 q 1311 1510 1311 1517 q 1293 1481 1311 1493 q 1263 1469 1275 1469 q 1239 1476 1249 1469 q 1218 1493 1229 1483 l 1089 1618 l 876 1485 q 856 1474 867 1479 q 833 1469 846 1469 z "},"Ģ":{"ha":1351,"x_min":206,"x_max":1382,"o":"m 644 -26 q 460 8 540 -25 q 322 104 379 40 q 235 259 265 168 q 206 467 206 350 q 228 669 206 563 q 297 881 251 775 q 409 1081 342 986 q 565 1251 476 1176 q 765 1367 654 1325 q 1006 1410 875 1410 q 1159 1390 1090 1410 q 1281 1334 1228 1371 q 1371 1242 1333 1297 q 1376 1215 1382 1226 q 1350 1188 1369 1203 q 1319 1172 1332 1174 q 1286 1186 1306 1169 q 1210 1245 1251 1222 q 1115 1280 1169 1268 q 986 1292 1061 1292 q 803 1256 889 1292 q 645 1159 718 1221 q 515 1017 572 1097 q 419 847 458 938 q 358 665 379 757 q 336 488 336 572 q 356 315 336 389 q 415 191 375 240 q 516 117 454 142 q 663 92 578 92 q 779 113 721 92 q 894 174 838 133 q 1002 279 950 215 q 1100 430 1054 343 q 1183 626 1146 517 l 826 626 q 802 639 806 626 q 808 682 799 651 q 831 726 819 714 q 864 738 843 738 l 1306 738 q 1331 726 1326 738 q 1326 682 1336 714 q 1194 346 1272 482 q 1023 127 1115 210 q 833 9 931 44 q 644 -26 736 -26 m 422 -397 q 403 -372 406 -386 q 414 -340 401 -357 q 456 -273 439 -303 q 481 -212 472 -243 q 494 -139 490 -181 q 513 -106 497 -115 q 556 -96 529 -96 q 603 -111 588 -96 q 615 -153 618 -126 q 594 -226 613 -187 q 549 -303 576 -265 q 490 -375 522 -340 q 456 -400 472 -393 q 422 -397 439 -407 z "},"Ġ":{"ha":1351,"x_min":206,"x_max":1382,"o":"m 644 -26 q 460 8 540 -25 q 322 104 379 40 q 235 259 265 168 q 206 467 206 350 q 228 669 206 563 q 297 881 251 775 q 409 1081 342 986 q 565 1251 476 1176 q 765 1367 654 1325 q 1006 1410 875 1410 q 1159 1390 1090 1410 q 1281 1334 1228 1371 q 1371 1242 1333 1297 q 1376 1215 1382 1226 q 1350 1188 1369 1203 q 1319 1172 1332 1174 q 1286 1186 1306 1169 q 1210 1245 1251 1222 q 1115 1280 1169 1268 q 986 1292 1061 1292 q 803 1256 889 1292 q 645 1159 718 1221 q 515 1017 572 1097 q 419 847 458 938 q 358 665 379 757 q 336 488 336 572 q 356 315 336 389 q 415 191 375 240 q 516 117 454 142 q 663 92 578 92 q 779 113 721 92 q 894 174 838 133 q 1002 279 950 215 q 1100 430 1054 343 q 1183 626 1146 517 l 826 626 q 802 639 806 626 q 808 682 799 651 q 831 726 819 714 q 864 738 843 738 l 1306 738 q 1331 726 1326 738 q 1326 682 1336 714 q 1194 346 1272 482 q 1023 127 1115 210 q 833 9 931 44 q 644 -26 736 -26 m 1053 1517 q 1004 1535 1024 1517 q 985 1589 985 1553 q 1010 1659 985 1626 q 1086 1692 1035 1692 q 1133 1674 1114 1692 q 1153 1621 1153 1657 q 1129 1550 1153 1583 q 1053 1517 1106 1517 z "},"Ħ":{"ha":1368,"x_min":81,"x_max":1550,"o":"m 142 -19 q 93 19 81 -19 l 532 1372 q 557 1401 539 1392 q 604 1410 575 1410 q 653 1372 668 1410 l 463 782 l 1189 782 l 1379 1372 q 1404 1401 1386 1392 q 1453 1410 1422 1410 q 1501 1372 1515 1410 l 1063 19 q 1039 -10 1057 0 q 990 -19 1021 -19 q 942 19 929 -19 l 1153 671 l 426 671 l 215 19 q 191 -10 210 0 q 142 -19 172 -19 m 319 1019 q 292 1035 294 1019 q 293 1068 289 1050 q 307 1104 297 1088 q 343 1121 317 1121 l 1518 1121 q 1547 1104 1544 1121 q 1546 1068 1550 1088 q 1533 1035 1543 1050 q 1497 1019 1522 1019 l 319 1019 z "},"Ĥ":{"ha":1368,"x_min":81,"x_max":1515,"o":"m 142 -19 q 93 19 81 -19 l 532 1372 q 557 1401 539 1392 q 604 1410 575 1410 q 653 1372 668 1410 l 463 782 l 1189 782 l 1379 1372 q 1404 1401 1386 1392 q 1453 1410 1422 1410 q 1501 1372 1515 1410 l 1063 19 q 1039 -10 1057 0 q 990 -19 1021 -19 q 942 19 929 -19 l 1153 671 l 426 671 l 215 19 q 191 -10 210 0 q 142 -19 172 -19 m 831 1469 q 803 1486 814 1469 q 792 1518 792 1503 q 797 1539 792 1532 q 807 1551 801 1546 l 1032 1726 q 1072 1751 1053 1744 q 1113 1758 1090 1758 q 1145 1749 1131 1758 q 1171 1722 1160 1740 l 1300 1542 q 1308 1524 1307 1532 q 1308 1510 1308 1517 q 1290 1481 1308 1493 q 1260 1469 1272 1469 q 1236 1476 1246 1469 q 1215 1493 1226 1483 l 1086 1618 l 874 1485 q 853 1474 864 1479 q 831 1469 843 1469 z "},"Í":{"ha":521,"x_min":88,"x_max":839,"o":"m 149 -19 q 102 -10 117 -19 q 93 22 88 0 l 528 1372 q 552 1401 535 1392 q 600 1410 569 1410 q 646 1400 632 1410 q 653 1368 660 1390 l 218 19 q 196 -10 213 0 q 149 -19 179 -19 m 558 1469 q 524 1488 543 1469 q 506 1521 506 1507 q 508 1532 506 1526 q 518 1546 510 1538 l 738 1747 q 751 1758 744 1754 q 765 1763 757 1763 q 797 1750 779 1763 q 826 1721 814 1738 q 839 1689 839 1704 q 836 1672 839 1679 q 818 1654 833 1665 l 585 1483 q 570 1474 576 1478 q 558 1469 564 1469 z "},"Ĭ":{"ha":521,"x_min":88,"x_max":940,"o":"m 149 -19 q 102 -10 117 -19 q 93 22 88 0 l 528 1372 q 552 1401 535 1392 q 600 1410 569 1410 q 646 1400 632 1410 q 653 1368 660 1390 l 218 19 q 196 -10 213 0 q 149 -19 179 -19 m 631 1469 q 476 1531 529 1469 q 438 1721 424 1593 q 453 1750 440 1742 q 486 1758 465 1758 q 520 1748 507 1758 q 533 1721 533 1738 q 566 1619 532 1650 q 653 1589 600 1589 q 763 1626 717 1589 q 835 1717 810 1663 q 858 1750 846 1742 q 890 1758 871 1758 q 927 1746 914 1758 q 933 1713 940 1733 q 862 1564 901 1617 q 766 1490 822 1511 q 631 1469 710 1469 z "},"Ǐ":{"ha":521,"x_min":88,"x_max":936,"o":"m 149 -19 q 102 -10 117 -19 q 93 22 88 0 l 528 1372 q 552 1401 535 1392 q 600 1410 569 1410 q 646 1400 632 1410 q 653 1368 660 1390 l 218 19 q 196 -10 213 0 q 149 -19 179 -19 m 893 1758 q 923 1742 910 1758 q 936 1710 936 1725 q 932 1689 936 1696 q 921 1676 928 1682 l 694 1501 q 656 1477 674 1485 q 615 1469 638 1469 q 583 1479 597 1469 q 556 1507 568 1489 l 428 1688 q 419 1706 421 1699 q 418 1718 418 1713 q 438 1747 418 1735 q 472 1758 458 1758 q 493 1752 486 1758 q 510 1736 500 1746 l 640 1611 l 853 1738 q 872 1751 863 1743 q 893 1758 882 1758 z "},"Î":{"ha":521,"x_min":88,"x_max":900,"o":"m 149 -19 q 102 -10 117 -19 q 93 22 88 0 l 528 1372 q 552 1401 535 1392 q 600 1410 569 1410 q 646 1400 632 1410 q 653 1368 660 1390 l 218 19 q 196 -10 213 0 q 149 -19 179 -19 m 422 1469 q 394 1486 406 1469 q 383 1518 383 1503 q 388 1539 383 1532 q 399 1551 393 1546 l 624 1726 q 663 1751 644 1744 q 704 1758 682 1758 q 737 1749 722 1758 q 763 1722 751 1740 l 892 1542 q 899 1524 899 1532 q 900 1510 900 1517 q 882 1481 900 1493 q 851 1469 864 1469 q 828 1476 838 1469 q 807 1493 818 1483 l 678 1618 l 465 1485 q 445 1474 456 1479 q 422 1469 435 1469 z "},"Ï":{"ha":521,"x_min":88,"x_max":911,"o":"m 149 -19 q 102 -10 117 -19 q 93 22 88 0 l 528 1372 q 552 1401 535 1392 q 600 1410 569 1410 q 646 1400 632 1410 q 653 1368 660 1390 l 218 19 q 196 -10 213 0 q 149 -19 179 -19 m 468 1517 q 419 1535 439 1517 q 400 1589 400 1553 q 426 1659 400 1626 q 501 1692 451 1692 q 549 1674 529 1692 q 568 1621 568 1657 q 544 1550 568 1583 q 468 1517 521 1517 m 810 1517 q 762 1535 782 1517 q 742 1589 742 1553 q 767 1659 742 1626 q 843 1692 793 1692 q 891 1674 871 1692 q 911 1621 911 1657 q 887 1550 911 1583 q 810 1517 863 1517 z "},"İ":{"ha":521,"x_min":88,"x_max":740,"o":"m 149 -19 q 102 -10 117 -19 q 93 22 88 0 l 528 1372 q 552 1401 535 1392 q 600 1410 569 1410 q 646 1400 632 1410 q 653 1368 660 1390 l 218 19 q 196 -10 213 0 q 149 -19 179 -19 m 642 1517 q 593 1535 613 1517 q 574 1589 574 1553 q 599 1659 574 1626 q 675 1692 624 1692 q 722 1674 703 1692 q 742 1621 742 1657 q 718 1550 742 1583 q 642 1517 694 1517 z "},"Ì":{"ha":521,"x_min":88,"x_max":753,"o":"m 149 -19 q 102 -10 117 -19 q 93 22 88 0 l 528 1372 q 552 1401 535 1392 q 600 1410 569 1410 q 646 1400 632 1410 q 653 1368 660 1390 l 218 19 q 196 -10 213 0 q 149 -19 179 -19 m 700 1469 q 688 1474 694 1469 q 674 1483 681 1478 l 475 1656 q 458 1674 461 1667 q 454 1690 454 1681 q 467 1722 454 1706 q 499 1751 481 1739 q 529 1763 517 1763 q 545 1758 539 1763 q 558 1747 551 1754 l 742 1544 q 751 1530 750 1535 q 753 1521 753 1525 q 734 1488 753 1507 q 700 1469 715 1469 z "},"Ī":{"ha":521,"x_min":88,"x_max":897,"o":"m 149 -19 q 102 -10 117 -19 q 93 22 88 0 l 528 1372 q 552 1401 535 1392 q 600 1410 569 1410 q 646 1400 632 1410 q 653 1368 660 1390 l 218 19 q 196 -10 213 0 q 149 -19 179 -19 m 461 1556 q 428 1572 435 1556 q 429 1613 422 1588 q 449 1658 436 1643 q 486 1674 461 1674 l 858 1674 q 892 1656 886 1674 q 892 1613 899 1639 q 872 1569 885 1583 q 835 1556 860 1556 l 461 1556 z "},"Į":{"ha":521,"x_min":-160,"x_max":660,"o":"m 149 -19 q 102 -10 117 -19 q 93 22 88 0 l 528 1372 q 552 1401 535 1392 q 600 1410 569 1410 q 646 1400 632 1410 q 653 1368 660 1390 l 218 19 q 196 -10 213 0 q 149 -19 179 -19 m -75 -365 q -137 -344 -114 -365 q -160 -285 -160 -324 q -141 -215 -160 -250 q -86 -142 -122 -179 q 2 -66 -50 -106 q 119 19 54 -26 l 203 17 l 203 10 q 108 -67 151 -31 q 35 -136 65 -104 q -12 -193 4 -168 q -29 -236 -29 -218 q -23 -254 -29 -249 q -7 -260 -17 -260 q 43 -242 18 -260 q 106 -192 68 -225 q 128 -183 113 -185 q 158 -196 143 -181 q 172 -220 169 -207 q 165 -246 174 -233 q 97 -308 139 -281 q 10 -350 56 -335 q -75 -365 -35 -365 z "},"Ĩ":{"ha":521,"x_min":88,"x_max":928,"o":"m 149 -19 q 102 -10 117 -19 q 93 22 88 0 l 528 1372 q 552 1401 535 1392 q 600 1410 569 1410 q 646 1400 632 1410 q 653 1368 660 1390 l 218 19 q 196 -10 213 0 q 149 -19 179 -19 m 438 1511 q 396 1550 394 1511 q 434 1683 401 1640 q 526 1725 467 1725 q 605 1710 567 1725 q 677 1676 643 1696 q 740 1641 711 1656 q 790 1626 769 1626 q 813 1641 801 1626 q 831 1690 825 1656 q 888 1726 835 1726 q 919 1717 910 1726 q 926 1690 928 1708 q 890 1556 921 1599 q 794 1513 858 1513 q 714 1527 751 1513 q 644 1561 676 1542 q 583 1595 611 1581 q 531 1610 556 1610 q 503 1594 514 1610 q 489 1547 493 1579 q 474 1520 488 1529 q 438 1511 460 1511 z "},"Ị":{"ha":521,"x_min":-12,"x_max":660,"o":"m 149 -19 q 102 -10 117 -19 q 93 22 88 0 l 528 1372 q 552 1401 535 1392 q 600 1410 569 1410 q 646 1400 632 1410 q 653 1368 660 1390 l 218 19 q 196 -10 213 0 q 149 -19 179 -19 m 54 -322 q 7 -304 26 -322 q -12 -251 -12 -286 q 12 -181 -12 -214 q 88 -147 36 -147 q 136 -165 117 -147 q 156 -218 156 -183 q 131 -290 156 -257 q 54 -322 107 -322 z "},"Ỉ":{"ha":521,"x_min":88,"x_max":819,"o":"m 149 -19 q 102 -10 117 -19 q 93 22 88 0 l 528 1372 q 552 1401 535 1392 q 600 1410 569 1410 q 646 1400 632 1410 q 653 1368 660 1390 l 218 19 q 196 -10 213 0 q 149 -19 179 -19 m 688 1800 q 785 1772 750 1800 q 819 1696 819 1744 q 799 1625 819 1657 q 736 1564 779 1593 q 704 1537 714 1549 q 692 1510 694 1525 l 688 1489 q 669 1463 685 1471 q 636 1455 654 1454 q 604 1465 618 1456 q 589 1492 590 1475 l 588 1522 q 598 1578 585 1556 q 638 1621 611 1601 q 673 1652 661 1638 q 685 1676 685 1667 q 676 1693 685 1688 q 651 1699 668 1699 q 619 1694 638 1699 q 578 1682 601 1689 q 522 1707 542 1665 q 546 1768 507 1749 q 613 1792 579 1783 q 688 1800 647 1800 z "},"Ĵ":{"ha":1001,"x_min":31,"x_max":1408,"o":"m 385 -26 q 239 6 313 -26 q 110 101 165 39 q 36 249 54 163 q 42 284 31 274 q 76 301 53 294 q 126 301 111 310 q 149 265 140 293 q 201 173 167 213 q 282 113 235 133 q 386 92 329 92 q 473 101 432 92 q 549 131 514 110 q 617 190 585 153 q 676 279 649 226 q 726 407 703 332 l 1040 1372 q 1065 1401 1047 1392 q 1113 1410 1083 1410 q 1156 1401 1143 1410 q 1161 1372 1168 1392 l 847 400 q 779 235 817 306 q 699 115 742 164 q 608 33 657 65 q 503 -12 558 1 q 385 -26 447 -26 m 931 1469 q 903 1486 914 1469 q 892 1518 892 1503 q 897 1539 892 1532 q 907 1551 901 1546 l 1132 1726 q 1172 1751 1153 1744 q 1213 1758 1190 1758 q 1245 1749 1231 1758 q 1271 1722 1260 1740 l 1400 1542 q 1408 1524 1407 1532 q 1408 1510 1408 1517 q 1390 1481 1408 1493 q 1360 1469 1372 1469 q 1336 1476 1346 1469 q 1315 1493 1326 1483 l 1186 1618 l 974 1485 q 953 1474 964 1479 q 931 1469 943 1469 z "},"Ķ":{"ha":1060,"x_min":86,"x_max":1314,"o":"m 140 -22 q 98 -12 110 -22 q 92 18 86 -3 l 532 1371 q 606 1410 544 1410 q 654 1371 668 1410 l 468 800 l 1217 1388 q 1260 1406 1243 1408 q 1296 1378 1278 1403 q 1312 1338 1314 1353 q 1281 1301 1310 1322 l 531 719 q 657 477 593 589 q 790 265 721 365 q 940 64 860 165 q 954 22 960 39 q 919 -17 949 6 q 879 -26 899 -31 q 847 -6 860 -21 q 726 159 785 75 q 616 330 668 243 q 518 507 564 417 q 432 689 472 597 l 214 18 q 190 -12 208 -3 q 140 -22 171 -22 m 315 -397 q 297 -372 299 -386 q 307 -340 294 -357 q 349 -273 332 -303 q 374 -212 365 -243 q 388 -139 383 -181 q 406 -106 390 -115 q 449 -96 422 -96 q 496 -111 481 -96 q 508 -153 511 -126 q 488 -226 506 -187 q 442 -303 469 -265 q 383 -375 415 -340 q 349 -400 365 -393 q 315 -397 332 -407 z "},"Ĺ":{"ha":964,"x_min":89,"x_max":849,"o":"m 151 0 q 107 56 89 0 l 532 1372 q 553 1401 539 1392 q 597 1410 567 1410 q 644 1400 629 1410 q 651 1368 660 1390 l 246 111 l 817 111 q 838 98 832 111 q 835 56 843 85 q 814 15 828 29 q 785 0 800 0 l 151 0 m 568 1469 q 534 1488 553 1469 q 515 1521 515 1507 q 517 1532 515 1526 q 528 1546 519 1538 l 747 1747 q 760 1758 754 1754 q 775 1763 767 1763 q 806 1750 789 1763 q 836 1721 824 1738 q 849 1689 849 1704 q 846 1672 849 1679 q 828 1654 843 1665 l 594 1483 q 580 1474 586 1478 q 568 1469 574 1469 z "},"Ľ":{"ha":964,"x_min":89,"x_max":929,"o":"m 151 0 q 107 56 89 0 l 532 1372 q 553 1401 539 1392 q 597 1410 567 1410 q 644 1400 629 1410 q 651 1368 660 1390 l 246 111 l 817 111 q 838 98 832 111 q 835 56 843 85 q 814 15 828 29 q 785 0 800 0 l 151 0 m 736 1072 q 710 1096 715 1082 q 719 1135 706 1110 q 750 1199 733 1160 q 781 1283 767 1239 q 801 1367 794 1328 q 817 1401 804 1390 q 864 1413 829 1413 q 913 1401 897 1413 q 926 1367 929 1390 q 899 1274 919 1325 q 853 1174 879 1224 q 799 1086 826 1125 q 776 1069 792 1076 q 736 1072 760 1061 z "},"Ļ":{"ha":964,"x_min":89,"x_max":843,"o":"m 151 0 q 107 56 89 0 l 532 1372 q 553 1401 539 1392 q 597 1410 567 1410 q 644 1400 629 1410 q 651 1368 660 1390 l 246 111 l 817 111 q 838 98 832 111 q 835 56 843 85 q 814 15 828 29 q 785 0 800 0 l 151 0 m 306 -397 q 287 -372 289 -386 q 297 -340 285 -357 q 339 -273 322 -303 q 365 -212 356 -243 q 378 -139 374 -181 q 397 -106 381 -115 q 439 -96 413 -96 q 486 -111 471 -96 q 499 -153 501 -126 q 478 -226 496 -187 q 433 -303 460 -265 q 374 -375 406 -340 q 339 -400 356 -393 q 306 -397 322 -407 z "},"Ŀ":{"ha":964,"x_min":89,"x_max":924,"o":"m 151 0 q 107 56 89 0 l 532 1372 q 553 1401 539 1392 q 597 1410 567 1410 q 644 1400 629 1410 q 651 1368 660 1390 l 246 111 l 817 111 q 838 98 832 111 q 835 56 843 85 q 814 15 828 29 q 785 0 800 0 l 151 0 m 824 629 q 776 647 796 629 q 756 700 756 665 q 781 772 756 739 q 857 804 806 804 q 905 787 885 804 q 925 733 925 769 q 901 663 925 696 q 824 629 876 629 z "},"Ł":{"ha":964,"x_min":89,"x_max":843,"o":"m 151 0 q 107 56 89 0 l 532 1372 q 553 1401 539 1392 q 597 1410 567 1410 q 644 1400 629 1410 q 651 1368 660 1390 l 246 111 l 817 111 q 838 98 832 111 q 835 56 843 85 q 814 15 828 29 q 785 0 800 0 l 151 0 m 197 589 q 163 590 176 582 q 138 621 149 597 q 135 658 132 639 q 157 683 138 676 l 689 878 q 720 880 708 885 q 742 854 732 875 q 732 789 767 804 l 197 589 z "},"Ń":{"ha":1369,"x_min":81,"x_max":1517,"o":"m 142 -19 q 93 19 81 -19 l 532 1372 q 557 1401 539 1392 q 604 1410 575 1410 q 642 1401 629 1410 q 663 1372 656 1392 l 1007 221 l 1381 1372 q 1406 1401 1388 1392 q 1453 1410 1424 1410 q 1501 1372 1517 1410 l 1064 19 q 1040 -10 1058 0 q 993 -19 1021 -19 q 960 -12 971 -19 q 942 19 949 -6 l 593 1185 l 214 19 q 190 -10 208 0 q 142 -19 172 -19 m 994 1469 q 960 1488 979 1469 q 942 1521 942 1507 q 944 1532 942 1526 q 954 1546 946 1538 l 1174 1747 q 1187 1758 1181 1754 q 1201 1763 1193 1763 q 1233 1750 1215 1763 q 1263 1721 1250 1738 q 1275 1689 1275 1704 q 1272 1672 1275 1679 q 1254 1654 1269 1665 l 1021 1483 q 1006 1474 1013 1478 q 994 1469 1000 1469 z "},"Ň":{"ha":1369,"x_min":81,"x_max":1517,"o":"m 142 -19 q 93 19 81 -19 l 532 1372 q 557 1401 539 1392 q 604 1410 575 1410 q 642 1401 629 1410 q 663 1372 656 1392 l 1007 221 l 1381 1372 q 1406 1401 1388 1392 q 1453 1410 1424 1410 q 1501 1372 1517 1410 l 1064 19 q 1040 -10 1058 0 q 993 -19 1021 -19 q 960 -12 971 -19 q 942 19 949 -6 l 593 1185 l 214 19 q 190 -10 208 0 q 142 -19 172 -19 m 1329 1758 q 1359 1742 1346 1758 q 1372 1710 1372 1725 q 1368 1689 1372 1696 q 1357 1676 1364 1682 l 1131 1501 q 1092 1477 1110 1485 q 1051 1469 1074 1469 q 1019 1479 1033 1469 q 992 1507 1004 1489 l 864 1688 q 856 1706 857 1699 q 854 1718 854 1713 q 874 1747 854 1735 q 908 1758 894 1758 q 929 1752 922 1758 q 946 1736 936 1746 l 1076 1611 l 1289 1738 q 1308 1751 1299 1743 q 1329 1758 1318 1758 z "},"Ņ":{"ha":1369,"x_min":81,"x_max":1517,"o":"m 142 -19 q 93 19 81 -19 l 532 1372 q 557 1401 539 1392 q 604 1410 575 1410 q 642 1401 629 1410 q 663 1372 656 1392 l 1007 221 l 1381 1372 q 1406 1401 1388 1392 q 1453 1410 1424 1410 q 1501 1372 1517 1410 l 1064 19 q 1040 -10 1058 0 q 993 -19 1021 -19 q 960 -12 971 -19 q 942 19 949 -6 l 593 1185 l 214 19 q 190 -10 208 0 q 142 -19 172 -19 m 413 -397 q 394 -372 396 -386 q 404 -340 392 -357 q 446 -273 429 -303 q 472 -212 463 -243 q 485 -139 481 -181 q 503 -106 488 -115 q 546 -96 519 -96 q 593 -111 578 -96 q 606 -153 608 -126 q 585 -226 603 -187 q 540 -303 567 -265 q 481 -375 513 -340 q 446 -400 463 -393 q 413 -397 429 -407 z "},"Ñ":{"ha":1369,"x_min":81,"x_max":1517,"o":"m 142 -19 q 93 19 81 -19 l 532 1372 q 557 1401 539 1392 q 604 1410 575 1410 q 642 1401 629 1410 q 663 1372 656 1392 l 1007 221 l 1381 1372 q 1406 1401 1388 1392 q 1453 1410 1424 1410 q 1501 1372 1517 1410 l 1064 19 q 1040 -10 1058 0 q 993 -19 1021 -19 q 960 -12 971 -19 q 942 19 949 -6 l 593 1185 l 214 19 q 190 -10 208 0 q 142 -19 172 -19 m 874 1511 q 832 1550 831 1511 q 870 1683 838 1640 q 963 1725 903 1725 q 1041 1710 1003 1725 q 1113 1676 1079 1696 q 1176 1641 1147 1656 q 1226 1626 1206 1626 q 1249 1641 1238 1626 q 1267 1690 1261 1656 q 1324 1726 1271 1726 q 1355 1717 1346 1726 q 1363 1690 1364 1708 q 1326 1556 1357 1599 q 1231 1513 1294 1513 q 1150 1527 1188 1513 q 1080 1561 1113 1542 q 1019 1595 1047 1581 q 967 1610 992 1610 q 940 1594 950 1610 q 925 1547 929 1579 q 910 1520 924 1529 q 874 1511 896 1511 z "},"Ó":{"ha":1426,"x_min":214,"x_max":1435,"o":"m 674 -26 q 485 9 569 -26 q 340 112 400 44 q 247 274 279 179 q 214 488 214 369 q 237 695 214 589 q 304 905 260 801 q 413 1099 349 1008 q 563 1260 478 1190 q 753 1370 649 1331 q 979 1410 857 1410 q 1167 1374 1083 1410 q 1310 1272 1251 1339 q 1402 1111 1369 1206 q 1435 900 1435 1017 q 1411 681 1435 792 q 1342 467 1388 571 q 1231 274 1296 364 q 1081 117 1165 185 q 894 12 996 50 q 674 -26 792 -26 m 694 92 q 871 125 789 92 q 1022 217 953 158 q 1143 354 1090 276 q 1232 521 1196 432 q 1287 701 1268 610 q 1306 882 1306 793 q 1283 1058 1306 982 q 1217 1187 1261 1135 q 1108 1265 1172 1239 q 958 1292 1043 1292 q 783 1258 865 1292 q 632 1165 700 1225 q 510 1028 564 1106 q 419 862 457 950 q 363 683 382 774 q 344 504 344 592 q 367 328 344 406 q 433 199 389 251 q 542 119 476 147 q 694 92 607 92 m 985 1469 q 951 1488 969 1469 q 932 1521 932 1507 q 934 1532 932 1526 q 944 1546 936 1538 l 1164 1747 q 1177 1758 1171 1754 q 1192 1763 1183 1763 q 1223 1750 1206 1763 q 1253 1721 1240 1738 q 1265 1689 1265 1704 q 1263 1672 1265 1679 q 1244 1654 1260 1665 l 1011 1483 q 997 1474 1003 1478 q 985 1469 990 1469 z "},"Ŏ":{"ha":1426,"x_min":214,"x_max":1435,"o":"m 674 -26 q 485 9 569 -26 q 340 112 400 44 q 247 274 279 179 q 214 488 214 369 q 237 695 214 589 q 304 905 260 801 q 413 1099 349 1008 q 563 1260 478 1190 q 753 1370 649 1331 q 979 1410 857 1410 q 1167 1374 1083 1410 q 1310 1272 1251 1339 q 1402 1111 1369 1206 q 1435 900 1435 1017 q 1411 681 1435 792 q 1342 467 1388 571 q 1231 274 1296 364 q 1081 117 1165 185 q 894 12 996 50 q 674 -26 792 -26 m 694 92 q 871 125 789 92 q 1022 217 953 158 q 1143 354 1090 276 q 1232 521 1196 432 q 1287 701 1268 610 q 1306 882 1306 793 q 1283 1058 1306 982 q 1217 1187 1261 1135 q 1108 1265 1172 1239 q 958 1292 1043 1292 q 783 1258 865 1292 q 632 1165 700 1225 q 510 1028 564 1106 q 419 862 457 950 q 363 683 382 774 q 344 504 344 592 q 367 328 344 406 q 433 199 389 251 q 542 119 476 147 q 694 92 607 92 m 1057 1469 q 903 1531 956 1469 q 864 1721 850 1593 q 879 1750 867 1742 q 913 1758 892 1758 q 947 1748 933 1758 q 960 1721 960 1738 q 992 1619 958 1650 q 1079 1589 1026 1589 q 1190 1626 1143 1589 q 1261 1717 1236 1663 q 1285 1750 1272 1742 q 1317 1758 1297 1758 q 1353 1746 1340 1758 q 1360 1713 1367 1733 q 1288 1564 1328 1617 q 1192 1490 1249 1511 q 1057 1469 1136 1469 z "},"Ǒ":{"ha":1426,"x_min":214,"x_max":1435,"o":"m 674 -26 q 485 9 569 -26 q 340 112 400 44 q 247 274 279 179 q 214 488 214 369 q 237 695 214 589 q 304 905 260 801 q 413 1099 349 1008 q 563 1260 478 1190 q 753 1370 649 1331 q 979 1410 857 1410 q 1167 1374 1083 1410 q 1310 1272 1251 1339 q 1402 1111 1369 1206 q 1435 900 1435 1017 q 1411 681 1435 792 q 1342 467 1388 571 q 1231 274 1296 364 q 1081 117 1165 185 q 894 12 996 50 q 674 -26 792 -26 m 694 92 q 871 125 789 92 q 1022 217 953 158 q 1143 354 1090 276 q 1232 521 1196 432 q 1287 701 1268 610 q 1306 882 1306 793 q 1283 1058 1306 982 q 1217 1187 1261 1135 q 1108 1265 1172 1239 q 958 1292 1043 1292 q 783 1258 865 1292 q 632 1165 700 1225 q 510 1028 564 1106 q 419 862 457 950 q 363 683 382 774 q 344 504 344 592 q 367 328 344 406 q 433 199 389 251 q 542 119 476 147 q 694 92 607 92 m 1319 1758 q 1349 1742 1336 1758 q 1363 1710 1363 1725 q 1358 1689 1363 1696 q 1347 1676 1354 1682 l 1121 1501 q 1082 1477 1100 1485 q 1042 1469 1064 1469 q 1009 1479 1024 1469 q 982 1507 994 1489 l 854 1688 q 846 1706 847 1699 q 844 1718 844 1713 q 865 1747 844 1735 q 899 1758 885 1758 q 919 1752 913 1758 q 936 1736 926 1746 l 1067 1611 l 1279 1738 q 1299 1751 1289 1743 q 1319 1758 1308 1758 z "},"Ô":{"ha":1426,"x_min":214,"x_max":1435,"o":"m 674 -26 q 485 9 569 -26 q 340 112 400 44 q 247 274 279 179 q 214 488 214 369 q 237 695 214 589 q 304 905 260 801 q 413 1099 349 1008 q 563 1260 478 1190 q 753 1370 649 1331 q 979 1410 857 1410 q 1167 1374 1083 1410 q 1310 1272 1251 1339 q 1402 1111 1369 1206 q 1435 900 1435 1017 q 1411 681 1435 792 q 1342 467 1388 571 q 1231 274 1296 364 q 1081 117 1165 185 q 894 12 996 50 q 674 -26 792 -26 m 694 92 q 871 125 789 92 q 1022 217 953 158 q 1143 354 1090 276 q 1232 521 1196 432 q 1287 701 1268 610 q 1306 882 1306 793 q 1283 1058 1306 982 q 1217 1187 1261 1135 q 1108 1265 1172 1239 q 958 1292 1043 1292 q 783 1258 865 1292 q 632 1165 700 1225 q 510 1028 564 1106 q 419 862 457 950 q 363 683 382 774 q 344 504 344 592 q 367 328 344 406 q 433 199 389 251 q 542 119 476 147 q 694 92 607 92 m 849 1469 q 821 1486 832 1469 q 810 1518 810 1503 q 815 1539 810 1532 q 825 1551 819 1546 l 1050 1726 q 1090 1751 1071 1744 q 1131 1758 1108 1758 q 1163 1749 1149 1758 q 1189 1722 1178 1740 l 1318 1542 q 1326 1524 1325 1532 q 1326 1510 1326 1517 q 1308 1481 1326 1493 q 1278 1469 1290 1469 q 1254 1476 1264 1469 q 1233 1493 1244 1483 l 1104 1618 l 892 1485 q 872 1474 882 1479 q 849 1469 861 1469 z "},"Ö":{"ha":1426,"x_min":214,"x_max":1435,"o":"m 674 -26 q 485 9 569 -26 q 340 112 400 44 q 247 274 279 179 q 214 488 214 369 q 237 695 214 589 q 304 905 260 801 q 413 1099 349 1008 q 563 1260 478 1190 q 753 1370 649 1331 q 979 1410 857 1410 q 1167 1374 1083 1410 q 1310 1272 1251 1339 q 1402 1111 1369 1206 q 1435 900 1435 1017 q 1411 681 1435 792 q 1342 467 1388 571 q 1231 274 1296 364 q 1081 117 1165 185 q 894 12 996 50 q 674 -26 792 -26 m 694 92 q 871 125 789 92 q 1022 217 953 158 q 1143 354 1090 276 q 1232 521 1196 432 q 1287 701 1268 610 q 1306 882 1306 793 q 1283 1058 1306 982 q 1217 1187 1261 1135 q 1108 1265 1172 1239 q 958 1292 1043 1292 q 783 1258 865 1292 q 632 1165 700 1225 q 510 1028 564 1106 q 419 862 457 950 q 363 683 382 774 q 344 504 344 592 q 367 328 344 406 q 433 199 389 251 q 542 119 476 147 q 694 92 607 92 m 896 1517 q 847 1535 867 1517 q 828 1589 828 1553 q 853 1659 828 1626 q 929 1692 879 1692 q 976 1674 957 1692 q 996 1621 996 1657 q 972 1550 996 1583 q 896 1517 949 1517 m 1238 1517 q 1190 1535 1210 1517 q 1169 1589 1169 1553 q 1195 1659 1169 1626 q 1271 1692 1221 1692 q 1319 1674 1299 1692 q 1339 1621 1339 1657 q 1315 1550 1339 1583 q 1238 1517 1290 1517 z "},"Ò":{"ha":1426,"x_min":214,"x_max":1435,"o":"m 674 -26 q 485 9 569 -26 q 340 112 400 44 q 247 274 279 179 q 214 488 214 369 q 237 695 214 589 q 304 905 260 801 q 413 1099 349 1008 q 563 1260 478 1190 q 753 1370 649 1331 q 979 1410 857 1410 q 1167 1374 1083 1410 q 1310 1272 1251 1339 q 1402 1111 1369 1206 q 1435 900 1435 1017 q 1411 681 1435 792 q 1342 467 1388 571 q 1231 274 1296 364 q 1081 117 1165 185 q 894 12 996 50 q 674 -26 792 -26 m 694 92 q 871 125 789 92 q 1022 217 953 158 q 1143 354 1090 276 q 1232 521 1196 432 q 1287 701 1268 610 q 1306 882 1306 793 q 1283 1058 1306 982 q 1217 1187 1261 1135 q 1108 1265 1172 1239 q 958 1292 1043 1292 q 783 1258 865 1292 q 632 1165 700 1225 q 510 1028 564 1106 q 419 862 457 950 q 363 683 382 774 q 344 504 344 592 q 367 328 344 406 q 433 199 389 251 q 542 119 476 147 q 694 92 607 92 m 1126 1469 q 1114 1474 1121 1469 q 1100 1483 1107 1478 l 901 1656 q 884 1674 888 1667 q 881 1690 881 1681 q 894 1722 881 1706 q 925 1751 907 1739 q 956 1763 943 1763 q 972 1758 965 1763 q 985 1747 978 1754 l 1168 1544 q 1178 1530 1176 1535 q 1179 1521 1179 1525 q 1160 1488 1179 1507 q 1126 1469 1142 1469 z "},"Ő":{"ha":1426,"x_min":214,"x_max":1435,"o":"m 674 -26 q 485 9 569 -26 q 340 112 400 44 q 247 274 279 179 q 214 488 214 369 q 237 695 214 589 q 304 905 260 801 q 413 1099 349 1008 q 563 1260 478 1190 q 753 1370 649 1331 q 979 1410 857 1410 q 1167 1374 1083 1410 q 1310 1272 1251 1339 q 1402 1111 1369 1206 q 1435 900 1435 1017 q 1411 681 1435 792 q 1342 467 1388 571 q 1231 274 1296 364 q 1081 117 1165 185 q 894 12 996 50 q 674 -26 792 -26 m 694 92 q 871 125 789 92 q 1022 217 953 158 q 1143 354 1090 276 q 1232 521 1196 432 q 1287 701 1268 610 q 1306 882 1306 793 q 1283 1058 1306 982 q 1217 1187 1261 1135 q 1108 1265 1172 1239 q 958 1292 1043 1292 q 783 1258 865 1292 q 632 1165 700 1225 q 510 1028 564 1106 q 419 862 457 950 q 363 683 382 774 q 344 504 344 592 q 367 328 344 406 q 433 199 389 251 q 542 119 476 147 q 694 92 607 92 m 904 1469 q 871 1488 889 1469 q 853 1521 853 1507 q 854 1532 853 1526 q 865 1546 856 1538 l 1061 1747 q 1074 1758 1068 1754 q 1088 1763 1079 1763 q 1119 1750 1101 1763 q 1150 1721 1138 1738 q 1163 1690 1163 1704 q 1160 1672 1163 1679 q 1142 1654 1157 1665 l 932 1483 q 917 1474 924 1478 q 904 1469 910 1469 m 1176 1469 q 1142 1488 1161 1469 q 1124 1521 1124 1507 q 1125 1532 1124 1526 q 1136 1546 1126 1538 l 1331 1747 q 1345 1758 1339 1754 q 1360 1763 1351 1763 q 1391 1750 1374 1763 q 1422 1721 1408 1738 q 1435 1690 1435 1704 q 1432 1672 1435 1679 q 1414 1654 1429 1665 l 1201 1483 q 1188 1474 1194 1478 q 1176 1469 1182 1469 z "},"Ō":{"ha":1426,"x_min":214,"x_max":1435,"o":"m 674 -26 q 485 9 569 -26 q 340 112 400 44 q 247 274 279 179 q 214 488 214 369 q 237 695 214 589 q 304 905 260 801 q 413 1099 349 1008 q 563 1260 478 1190 q 753 1370 649 1331 q 979 1410 857 1410 q 1167 1374 1083 1410 q 1310 1272 1251 1339 q 1402 1111 1369 1206 q 1435 900 1435 1017 q 1411 681 1435 792 q 1342 467 1388 571 q 1231 274 1296 364 q 1081 117 1165 185 q 894 12 996 50 q 674 -26 792 -26 m 694 92 q 871 125 789 92 q 1022 217 953 158 q 1143 354 1090 276 q 1232 521 1196 432 q 1287 701 1268 610 q 1306 882 1306 793 q 1283 1058 1306 982 q 1217 1187 1261 1135 q 1108 1265 1172 1239 q 958 1292 1043 1292 q 783 1258 865 1292 q 632 1165 700 1225 q 510 1028 564 1106 q 419 862 457 950 q 363 683 382 774 q 344 504 344 592 q 367 328 344 406 q 433 199 389 251 q 542 119 476 147 q 694 92 607 92 m 888 1556 q 855 1572 861 1556 q 856 1613 849 1588 q 875 1658 863 1643 q 913 1674 888 1674 l 1285 1674 q 1319 1656 1313 1674 q 1318 1613 1325 1639 q 1299 1569 1311 1583 q 1261 1556 1286 1556 l 888 1556 z "},"Ø":{"ha":1426,"x_min":149,"x_max":1483,"o":"m 674 -26 q 485 9 569 -26 q 340 112 400 44 q 247 274 279 179 q 214 488 214 369 q 237 695 214 589 q 304 905 260 801 q 413 1099 349 1008 q 563 1260 478 1190 q 753 1370 649 1331 q 979 1410 857 1410 q 1167 1374 1083 1410 q 1310 1272 1251 1339 q 1402 1111 1369 1206 q 1435 900 1435 1017 q 1411 681 1435 792 q 1342 467 1388 571 q 1231 274 1296 364 q 1081 117 1165 185 q 894 12 996 50 q 674 -26 792 -26 m 694 92 q 871 125 789 92 q 1022 217 953 158 q 1143 354 1090 276 q 1232 521 1196 432 q 1287 701 1268 610 q 1306 882 1306 793 q 1283 1058 1306 982 q 1217 1187 1261 1135 q 1108 1265 1172 1239 q 958 1292 1043 1292 q 783 1258 865 1292 q 632 1165 700 1225 q 510 1028 564 1106 q 419 862 457 950 q 363 683 382 774 q 344 504 344 592 q 367 328 344 406 q 433 199 389 251 q 542 119 476 147 q 694 92 607 92 m 269 -42 q 240 -60 260 -56 q 193 -43 219 -65 q 179 28 150 -8 l 1379 1415 q 1413 1431 1390 1431 q 1457 1415 1435 1432 q 1480 1381 1476 1401 q 1468 1342 1483 1361 l 269 -42 z "},"Õ":{"ha":1426,"x_min":214,"x_max":1435,"o":"m 674 -26 q 485 9 569 -26 q 340 112 400 44 q 247 274 279 179 q 214 488 214 369 q 237 695 214 589 q 304 905 260 801 q 413 1099 349 1008 q 563 1260 478 1190 q 753 1370 649 1331 q 979 1410 857 1410 q 1167 1374 1083 1410 q 1310 1272 1251 1339 q 1402 1111 1369 1206 q 1435 900 1435 1017 q 1411 681 1435 792 q 1342 467 1388 571 q 1231 274 1296 364 q 1081 117 1165 185 q 894 12 996 50 q 674 -26 792 -26 m 694 92 q 871 125 789 92 q 1022 217 953 158 q 1143 354 1090 276 q 1232 521 1196 432 q 1287 701 1268 610 q 1306 882 1306 793 q 1283 1058 1306 982 q 1217 1187 1261 1135 q 1108 1265 1172 1239 q 958 1292 1043 1292 q 783 1258 865 1292 q 632 1165 700 1225 q 510 1028 564 1106 q 419 862 457 950 q 363 683 382 774 q 344 504 344 592 q 367 328 344 406 q 433 199 389 251 q 542 119 476 147 q 694 92 607 92 m 865 1511 q 824 1550 822 1511 q 862 1683 829 1640 q 954 1725 894 1725 q 1033 1710 994 1725 q 1105 1676 1071 1696 q 1168 1641 1139 1656 q 1218 1626 1197 1626 q 1241 1641 1229 1626 q 1258 1690 1253 1656 q 1315 1726 1263 1726 q 1347 1717 1338 1726 q 1354 1690 1356 1708 q 1317 1556 1349 1599 q 1222 1513 1286 1513 q 1142 1527 1179 1513 q 1072 1561 1104 1542 q 1011 1595 1039 1581 q 958 1610 983 1610 q 931 1594 942 1610 q 917 1547 921 1579 q 901 1520 915 1529 q 865 1511 888 1511 z "},"Ố":{"ha":1426,"x_min":214,"x_max":1569,"o":"m 674 -26 q 485 9 569 -26 q 340 112 400 44 q 247 274 279 179 q 214 488 214 369 q 237 695 214 589 q 304 905 260 801 q 413 1099 349 1008 q 563 1260 478 1190 q 753 1370 649 1331 q 979 1410 857 1410 q 1167 1374 1083 1410 q 1310 1272 1251 1339 q 1402 1111 1369 1206 q 1435 900 1435 1017 q 1411 681 1435 792 q 1342 467 1388 571 q 1231 274 1296 364 q 1081 117 1165 185 q 894 12 996 50 q 674 -26 792 -26 m 694 92 q 871 125 789 92 q 1022 217 953 158 q 1143 354 1090 276 q 1232 521 1196 432 q 1287 701 1268 610 q 1306 882 1306 793 q 1283 1058 1306 982 q 1217 1187 1261 1135 q 1108 1265 1172 1239 q 958 1292 1043 1292 q 783 1258 865 1292 q 632 1165 700 1225 q 510 1028 564 1106 q 419 862 457 950 q 363 683 382 774 q 344 504 344 592 q 367 328 344 406 q 433 199 389 251 q 542 119 476 147 q 694 92 607 92 m 849 1469 q 821 1486 832 1469 q 810 1518 810 1503 q 815 1539 810 1532 q 825 1551 819 1546 l 1050 1726 q 1090 1751 1071 1744 q 1131 1758 1108 1758 q 1163 1749 1149 1758 q 1189 1722 1178 1740 l 1318 1542 q 1326 1524 1325 1532 q 1326 1510 1326 1517 q 1308 1481 1326 1493 q 1278 1469 1290 1469 q 1254 1476 1264 1469 q 1233 1493 1244 1483 l 1104 1618 l 892 1485 q 872 1474 882 1479 q 849 1469 861 1469 m 1325 1685 q 1291 1704 1310 1685 q 1272 1736 1272 1724 q 1274 1747 1272 1742 q 1286 1763 1276 1753 l 1467 1939 q 1480 1951 1474 1947 q 1494 1956 1486 1956 q 1526 1943 1508 1956 q 1557 1913 1544 1931 q 1569 1881 1569 1896 q 1566 1864 1569 1871 q 1547 1847 1563 1857 l 1351 1699 q 1337 1688 1343 1692 q 1325 1685 1331 1685 z "},"Ộ":{"ha":1426,"x_min":214,"x_max":1435,"o":"m 674 -26 q 485 9 569 -26 q 340 112 400 44 q 247 274 279 179 q 214 488 214 369 q 237 695 214 589 q 304 905 260 801 q 413 1099 349 1008 q 563 1260 478 1190 q 753 1370 649 1331 q 979 1410 857 1410 q 1167 1374 1083 1410 q 1310 1272 1251 1339 q 1402 1111 1369 1206 q 1435 900 1435 1017 q 1411 681 1435 792 q 1342 467 1388 571 q 1231 274 1296 364 q 1081 117 1165 185 q 894 12 996 50 q 674 -26 792 -26 m 694 92 q 871 125 789 92 q 1022 217 953 158 q 1143 354 1090 276 q 1232 521 1196 432 q 1287 701 1268 610 q 1306 882 1306 793 q 1283 1058 1306 982 q 1217 1187 1261 1135 q 1108 1265 1172 1239 q 958 1292 1043 1292 q 783 1258 865 1292 q 632 1165 700 1225 q 510 1028 564 1106 q 419 862 457 950 q 363 683 382 774 q 344 504 344 592 q 367 328 344 406 q 433 199 389 251 q 542 119 476 147 q 694 92 607 92 m 506 -322 q 458 -304 478 -322 q 439 -251 439 -286 q 463 -181 439 -214 q 539 -147 488 -147 q 588 -165 568 -147 q 607 -218 607 -183 q 583 -290 607 -257 q 506 -322 558 -322 m 849 1469 q 821 1486 832 1469 q 810 1518 810 1503 q 815 1539 810 1532 q 825 1551 819 1546 l 1050 1726 q 1090 1751 1071 1744 q 1131 1758 1108 1758 q 1163 1749 1149 1758 q 1189 1722 1178 1740 l 1318 1542 q 1326 1524 1325 1532 q 1326 1510 1326 1517 q 1308 1481 1326 1493 q 1278 1469 1290 1469 q 1254 1476 1264 1469 q 1233 1493 1244 1483 l 1104 1618 l 892 1485 q 872 1474 882 1479 q 849 1469 861 1469 z "},"Ồ":{"ha":1426,"x_min":214,"x_max":1460,"o":"m 674 -26 q 485 9 569 -26 q 340 112 400 44 q 247 274 279 179 q 214 488 214 369 q 237 695 214 589 q 304 905 260 801 q 413 1099 349 1008 q 563 1260 478 1190 q 753 1370 649 1331 q 979 1410 857 1410 q 1167 1374 1083 1410 q 1310 1272 1251 1339 q 1402 1111 1369 1206 q 1435 900 1435 1017 q 1411 681 1435 792 q 1342 467 1388 571 q 1231 274 1296 364 q 1081 117 1165 185 q 894 12 996 50 q 674 -26 792 -26 m 694 92 q 871 125 789 92 q 1022 217 953 158 q 1143 354 1090 276 q 1232 521 1196 432 q 1287 701 1268 610 q 1306 882 1306 793 q 1283 1058 1306 982 q 1217 1187 1261 1135 q 1108 1265 1172 1239 q 958 1292 1043 1292 q 783 1258 865 1292 q 632 1165 700 1225 q 510 1028 564 1106 q 419 862 457 950 q 363 683 382 774 q 344 504 344 592 q 367 328 344 406 q 433 199 389 251 q 542 119 476 147 q 694 92 607 92 m 849 1469 q 821 1486 832 1469 q 810 1518 810 1503 q 815 1539 810 1532 q 825 1551 819 1546 l 1050 1726 q 1090 1751 1071 1744 q 1131 1758 1108 1758 q 1163 1749 1149 1758 q 1189 1722 1178 1740 l 1318 1542 q 1326 1524 1325 1532 q 1326 1510 1326 1517 q 1308 1481 1326 1493 q 1278 1469 1290 1469 q 1254 1476 1264 1469 q 1233 1493 1244 1483 l 1104 1618 l 892 1485 q 872 1474 882 1479 q 849 1469 861 1469 m 1404 1663 q 1392 1665 1399 1663 q 1379 1675 1386 1668 l 1207 1865 q 1191 1885 1196 1878 q 1186 1901 1186 1892 q 1199 1933 1186 1917 q 1232 1960 1213 1950 q 1267 1971 1251 1971 q 1283 1967 1275 1971 q 1296 1956 1290 1963 l 1449 1740 q 1458 1724 1456 1729 q 1460 1713 1460 1718 q 1442 1680 1460 1697 q 1404 1663 1424 1663 z "},"Ổ":{"ha":1426,"x_min":214,"x_max":1532,"o":"m 674 -26 q 485 9 569 -26 q 340 112 400 44 q 247 274 279 179 q 214 488 214 369 q 237 695 214 589 q 304 905 260 801 q 413 1099 349 1008 q 563 1260 478 1190 q 753 1370 649 1331 q 979 1410 857 1410 q 1167 1374 1083 1410 q 1310 1272 1251 1339 q 1402 1111 1369 1206 q 1435 900 1435 1017 q 1411 681 1435 792 q 1342 467 1388 571 q 1231 274 1296 364 q 1081 117 1165 185 q 894 12 996 50 q 674 -26 792 -26 m 694 92 q 871 125 789 92 q 1022 217 953 158 q 1143 354 1090 276 q 1232 521 1196 432 q 1287 701 1268 610 q 1306 882 1306 793 q 1283 1058 1306 982 q 1217 1187 1261 1135 q 1108 1265 1172 1239 q 958 1292 1043 1292 q 783 1258 865 1292 q 632 1165 700 1225 q 510 1028 564 1106 q 419 862 457 950 q 363 683 382 774 q 344 504 344 592 q 367 328 344 406 q 433 199 389 251 q 542 119 476 147 q 694 92 607 92 m 849 1469 q 821 1486 832 1469 q 810 1518 810 1503 q 815 1539 810 1532 q 825 1551 819 1546 l 1050 1726 q 1090 1751 1071 1744 q 1131 1758 1108 1758 q 1163 1749 1149 1758 q 1189 1722 1178 1740 l 1318 1542 q 1326 1524 1325 1532 q 1326 1510 1326 1517 q 1308 1481 1326 1493 q 1278 1469 1290 1469 q 1254 1476 1264 1469 q 1233 1493 1244 1483 l 1104 1618 l 892 1485 q 872 1474 882 1479 q 849 1469 861 1469 m 1399 1996 q 1496 1968 1461 1996 q 1531 1892 1531 1940 q 1510 1821 1531 1853 q 1447 1760 1490 1789 q 1415 1733 1425 1744 q 1403 1706 1406 1721 l 1399 1685 q 1381 1658 1396 1667 q 1347 1651 1365 1650 q 1315 1661 1329 1651 q 1300 1688 1301 1671 l 1299 1718 q 1309 1774 1296 1751 q 1349 1817 1322 1797 q 1384 1848 1372 1833 q 1396 1872 1396 1863 q 1388 1889 1396 1883 q 1363 1894 1379 1894 q 1331 1890 1349 1894 q 1289 1878 1313 1885 q 1233 1903 1253 1861 q 1257 1964 1218 1944 q 1324 1988 1290 1979 q 1399 1996 1358 1996 z "},"Ỗ":{"ha":1426,"x_min":214,"x_max":1435,"o":"m 674 -26 q 485 9 569 -26 q 340 112 400 44 q 247 274 279 179 q 214 488 214 369 q 237 695 214 589 q 304 905 260 801 q 413 1099 349 1008 q 563 1260 478 1190 q 753 1370 649 1331 q 979 1410 857 1410 q 1167 1374 1083 1410 q 1310 1272 1251 1339 q 1402 1111 1369 1206 q 1435 900 1435 1017 q 1411 681 1435 792 q 1342 467 1388 571 q 1231 274 1296 364 q 1081 117 1165 185 q 894 12 996 50 q 674 -26 792 -26 m 694 92 q 871 125 789 92 q 1022 217 953 158 q 1143 354 1090 276 q 1232 521 1196 432 q 1287 701 1268 610 q 1306 882 1306 793 q 1283 1058 1306 982 q 1217 1187 1261 1135 q 1108 1265 1172 1239 q 958 1292 1043 1292 q 783 1258 865 1292 q 632 1165 700 1225 q 510 1028 564 1106 q 419 862 457 950 q 363 683 382 774 q 344 504 344 592 q 367 328 344 406 q 433 199 389 251 q 542 119 476 147 q 694 92 607 92 m 849 1469 q 821 1486 832 1469 q 810 1518 810 1503 q 815 1539 810 1532 q 825 1551 819 1546 l 1050 1726 q 1090 1751 1071 1744 q 1131 1758 1108 1758 q 1163 1749 1149 1758 q 1189 1722 1178 1740 l 1318 1542 q 1326 1524 1325 1532 q 1326 1510 1326 1517 q 1308 1481 1326 1493 q 1278 1469 1290 1469 q 1254 1476 1264 1469 q 1233 1493 1244 1483 l 1104 1618 l 892 1485 q 872 1474 882 1479 q 849 1469 861 1469 m 931 1781 q 889 1819 888 1781 q 927 1952 894 1910 q 1019 1994 960 1994 q 1098 1980 1060 1994 q 1170 1945 1136 1965 q 1233 1910 1204 1925 q 1282 1896 1263 1896 q 1305 1910 1293 1896 q 1322 1960 1317 1925 q 1381 1996 1326 1996 q 1410 1987 1401 1996 q 1418 1960 1419 1978 q 1381 1825 1413 1868 q 1286 1782 1350 1782 q 1206 1797 1243 1782 q 1137 1831 1169 1811 q 1076 1865 1104 1850 q 1024 1879 1049 1879 q 997 1864 1007 1879 q 982 1817 986 1849 q 967 1790 981 1799 q 931 1781 953 1781 z "},"Ọ":{"ha":1426,"x_min":214,"x_max":1435,"o":"m 674 -26 q 485 9 569 -26 q 340 112 400 44 q 247 274 279 179 q 214 488 214 369 q 237 695 214 589 q 304 905 260 801 q 413 1099 349 1008 q 563 1260 478 1190 q 753 1370 649 1331 q 979 1410 857 1410 q 1167 1374 1083 1410 q 1310 1272 1251 1339 q 1402 1111 1369 1206 q 1435 900 1435 1017 q 1411 681 1435 792 q 1342 467 1388 571 q 1231 274 1296 364 q 1081 117 1165 185 q 894 12 996 50 q 674 -26 792 -26 m 694 92 q 871 125 789 92 q 1022 217 953 158 q 1143 354 1090 276 q 1232 521 1196 432 q 1287 701 1268 610 q 1306 882 1306 793 q 1283 1058 1306 982 q 1217 1187 1261 1135 q 1108 1265 1172 1239 q 958 1292 1043 1292 q 783 1258 865 1292 q 632 1165 700 1225 q 510 1028 564 1106 q 419 862 457 950 q 363 683 382 774 q 344 504 344 592 q 367 328 344 406 q 433 199 389 251 q 542 119 476 147 q 694 92 607 92 m 506 -322 q 458 -304 478 -322 q 439 -251 439 -286 q 463 -181 439 -214 q 539 -147 488 -147 q 588 -165 568 -147 q 607 -218 607 -183 q 583 -290 607 -257 q 506 -322 558 -322 z "},"Ỏ":{"ha":1426,"x_min":214,"x_max":1435,"o":"m 674 -26 q 485 9 569 -26 q 340 112 400 44 q 247 274 279 179 q 214 488 214 369 q 237 695 214 589 q 304 905 260 801 q 413 1099 349 1008 q 563 1260 478 1190 q 753 1370 649 1331 q 979 1410 857 1410 q 1167 1374 1083 1410 q 1310 1272 1251 1339 q 1402 1111 1369 1206 q 1435 900 1435 1017 q 1411 681 1435 792 q 1342 467 1388 571 q 1231 274 1296 364 q 1081 117 1165 185 q 894 12 996 50 q 674 -26 792 -26 m 694 92 q 871 125 789 92 q 1022 217 953 158 q 1143 354 1090 276 q 1232 521 1196 432 q 1287 701 1268 610 q 1306 882 1306 793 q 1283 1058 1306 982 q 1217 1187 1261 1135 q 1108 1265 1172 1239 q 958 1292 1043 1292 q 783 1258 865 1292 q 632 1165 700 1225 q 510 1028 564 1106 q 419 862 457 950 q 363 683 382 774 q 344 504 344 592 q 367 328 344 406 q 433 199 389 251 q 542 119 476 147 q 694 92 607 92 m 1115 1800 q 1213 1772 1178 1800 q 1247 1696 1247 1744 q 1227 1625 1247 1657 q 1164 1564 1207 1593 q 1132 1537 1142 1549 q 1119 1510 1122 1525 l 1115 1489 q 1097 1463 1113 1471 q 1064 1455 1082 1454 q 1032 1465 1046 1456 q 1017 1492 1018 1475 l 1015 1522 q 1026 1578 1013 1556 q 1065 1621 1039 1601 q 1101 1652 1089 1638 q 1113 1676 1113 1667 q 1104 1693 1113 1688 q 1079 1699 1096 1699 q 1047 1694 1065 1699 q 1006 1682 1029 1689 q 950 1707 969 1665 q 974 1768 935 1749 q 1041 1792 1007 1783 q 1115 1800 1075 1800 z "},"Ơ":{"ha":1426,"x_min":214,"x_max":1518,"o":"m 674 -26 q 485 9 569 -26 q 340 112 400 44 q 247 274 279 179 q 214 488 214 369 q 237 695 214 589 q 304 905 260 801 q 413 1099 349 1008 q 563 1260 478 1190 q 753 1370 649 1331 q 979 1410 857 1410 q 1079 1399 1032 1410 q 1167 1368 1126 1389 q 1291 1386 1243 1371 q 1365 1433 1339 1401 q 1400 1515 1392 1464 q 1406 1643 1408 1567 q 1421 1672 1406 1663 q 1457 1683 1436 1682 q 1494 1676 1478 1685 q 1513 1649 1511 1668 q 1513 1524 1518 1581 q 1482 1422 1507 1467 q 1408 1346 1457 1376 q 1278 1303 1358 1315 q 1394 1133 1353 1236 q 1435 900 1435 1031 q 1411 681 1435 792 q 1342 467 1388 571 q 1231 274 1296 364 q 1081 117 1165 185 q 894 12 996 50 q 674 -26 792 -26 m 694 92 q 871 125 789 92 q 1022 217 953 158 q 1143 354 1090 276 q 1232 521 1196 432 q 1287 701 1268 610 q 1306 882 1306 793 q 1283 1058 1306 982 q 1217 1187 1261 1135 q 1108 1265 1172 1239 q 958 1292 1043 1292 q 783 1258 865 1292 q 632 1165 700 1225 q 510 1028 564 1106 q 419 862 457 950 q 363 683 382 774 q 344 504 344 592 q 367 328 344 406 q 433 199 389 251 q 542 119 476 147 q 694 92 607 92 z "},"Ớ":{"ha":1426,"x_min":214,"x_max":1518,"o":"m 674 -26 q 485 9 569 -26 q 340 112 400 44 q 247 274 279 179 q 214 488 214 369 q 237 695 214 589 q 304 905 260 801 q 413 1099 349 1008 q 563 1260 478 1190 q 753 1370 649 1331 q 979 1410 857 1410 q 1079 1399 1032 1410 q 1167 1368 1126 1389 q 1291 1386 1243 1371 q 1365 1433 1339 1401 q 1400 1515 1392 1464 q 1406 1643 1408 1567 q 1421 1672 1406 1663 q 1457 1683 1436 1682 q 1494 1676 1478 1685 q 1513 1649 1511 1668 q 1513 1524 1518 1581 q 1482 1422 1507 1467 q 1408 1346 1457 1376 q 1278 1303 1358 1315 q 1394 1133 1353 1236 q 1435 900 1435 1031 q 1411 681 1435 792 q 1342 467 1388 571 q 1231 274 1296 364 q 1081 117 1165 185 q 894 12 996 50 q 674 -26 792 -26 m 694 92 q 871 125 789 92 q 1022 217 953 158 q 1143 354 1090 276 q 1232 521 1196 432 q 1287 701 1268 610 q 1306 882 1306 793 q 1283 1058 1306 982 q 1217 1187 1261 1135 q 1108 1265 1172 1239 q 958 1292 1043 1292 q 783 1258 865 1292 q 632 1165 700 1225 q 510 1028 564 1106 q 419 862 457 950 q 363 683 382 774 q 344 504 344 592 q 367 328 344 406 q 433 199 389 251 q 542 119 476 147 q 694 92 607 92 m 985 1469 q 951 1488 969 1469 q 932 1521 932 1507 q 934 1532 932 1526 q 944 1546 936 1538 l 1164 1747 q 1177 1758 1171 1754 q 1192 1763 1183 1763 q 1223 1750 1206 1763 q 1253 1721 1240 1738 q 1265 1689 1265 1704 q 1263 1672 1265 1679 q 1244 1654 1260 1665 l 1011 1483 q 997 1474 1003 1478 q 985 1469 990 1469 z "},"Ợ":{"ha":1426,"x_min":214,"x_max":1518,"o":"m 674 -26 q 485 9 569 -26 q 340 112 400 44 q 247 274 279 179 q 214 488 214 369 q 237 695 214 589 q 304 905 260 801 q 413 1099 349 1008 q 563 1260 478 1190 q 753 1370 649 1331 q 979 1410 857 1410 q 1079 1399 1032 1410 q 1167 1368 1126 1389 q 1291 1386 1243 1371 q 1365 1433 1339 1401 q 1400 1515 1392 1464 q 1406 1643 1408 1567 q 1421 1672 1406 1663 q 1457 1683 1436 1682 q 1494 1676 1478 1685 q 1513 1649 1511 1668 q 1513 1524 1518 1581 q 1482 1422 1507 1467 q 1408 1346 1457 1376 q 1278 1303 1358 1315 q 1394 1133 1353 1236 q 1435 900 1435 1031 q 1411 681 1435 792 q 1342 467 1388 571 q 1231 274 1296 364 q 1081 117 1165 185 q 894 12 996 50 q 674 -26 792 -26 m 694 92 q 871 125 789 92 q 1022 217 953 158 q 1143 354 1090 276 q 1232 521 1196 432 q 1287 701 1268 610 q 1306 882 1306 793 q 1283 1058 1306 982 q 1217 1187 1261 1135 q 1108 1265 1172 1239 q 958 1292 1043 1292 q 783 1258 865 1292 q 632 1165 700 1225 q 510 1028 564 1106 q 419 862 457 950 q 363 683 382 774 q 344 504 344 592 q 367 328 344 406 q 433 199 389 251 q 542 119 476 147 q 694 92 607 92 m 506 -322 q 458 -304 478 -322 q 439 -251 439 -286 q 463 -181 439 -214 q 539 -147 488 -147 q 588 -165 568 -147 q 607 -218 607 -183 q 583 -290 607 -257 q 506 -322 558 -322 z "},"Ờ":{"ha":1426,"x_min":214,"x_max":1518,"o":"m 674 -26 q 485 9 569 -26 q 340 112 400 44 q 247 274 279 179 q 214 488 214 369 q 237 695 214 589 q 304 905 260 801 q 413 1099 349 1008 q 563 1260 478 1190 q 753 1370 649 1331 q 979 1410 857 1410 q 1079 1399 1032 1410 q 1167 1368 1126 1389 q 1291 1386 1243 1371 q 1365 1433 1339 1401 q 1400 1515 1392 1464 q 1406 1643 1408 1567 q 1421 1672 1406 1663 q 1457 1683 1436 1682 q 1494 1676 1478 1685 q 1513 1649 1511 1668 q 1513 1524 1518 1581 q 1482 1422 1507 1467 q 1408 1346 1457 1376 q 1278 1303 1358 1315 q 1394 1133 1353 1236 q 1435 900 1435 1031 q 1411 681 1435 792 q 1342 467 1388 571 q 1231 274 1296 364 q 1081 117 1165 185 q 894 12 996 50 q 674 -26 792 -26 m 694 92 q 871 125 789 92 q 1022 217 953 158 q 1143 354 1090 276 q 1232 521 1196 432 q 1287 701 1268 610 q 1306 882 1306 793 q 1283 1058 1306 982 q 1217 1187 1261 1135 q 1108 1265 1172 1239 q 958 1292 1043 1292 q 783 1258 865 1292 q 632 1165 700 1225 q 510 1028 564 1106 q 419 862 457 950 q 363 683 382 774 q 344 504 344 592 q 367 328 344 406 q 433 199 389 251 q 542 119 476 147 q 694 92 607 92 m 1126 1469 q 1114 1474 1121 1469 q 1100 1483 1107 1478 l 901 1656 q 884 1674 888 1667 q 881 1690 881 1681 q 894 1722 881 1706 q 925 1751 907 1739 q 956 1763 943 1763 q 972 1758 965 1763 q 985 1747 978 1754 l 1168 1544 q 1178 1530 1176 1535 q 1179 1521 1179 1525 q 1160 1488 1179 1507 q 1126 1469 1142 1469 z "},"Ở":{"ha":1426,"x_min":214,"x_max":1518,"o":"m 674 -26 q 485 9 569 -26 q 340 112 400 44 q 247 274 279 179 q 214 488 214 369 q 237 695 214 589 q 304 905 260 801 q 413 1099 349 1008 q 563 1260 478 1190 q 753 1370 649 1331 q 979 1410 857 1410 q 1079 1399 1032 1410 q 1167 1368 1126 1389 q 1291 1386 1243 1371 q 1365 1433 1339 1401 q 1400 1515 1392 1464 q 1406 1643 1408 1567 q 1421 1672 1406 1663 q 1457 1683 1436 1682 q 1494 1676 1478 1685 q 1513 1649 1511 1668 q 1513 1524 1518 1581 q 1482 1422 1507 1467 q 1408 1346 1457 1376 q 1278 1303 1358 1315 q 1394 1133 1353 1236 q 1435 900 1435 1031 q 1411 681 1435 792 q 1342 467 1388 571 q 1231 274 1296 364 q 1081 117 1165 185 q 894 12 996 50 q 674 -26 792 -26 m 694 92 q 871 125 789 92 q 1022 217 953 158 q 1143 354 1090 276 q 1232 521 1196 432 q 1287 701 1268 610 q 1306 882 1306 793 q 1283 1058 1306 982 q 1217 1187 1261 1135 q 1108 1265 1172 1239 q 958 1292 1043 1292 q 783 1258 865 1292 q 632 1165 700 1225 q 510 1028 564 1106 q 419 862 457 950 q 363 683 382 774 q 344 504 344 592 q 367 328 344 406 q 433 199 389 251 q 542 119 476 147 q 694 92 607 92 m 1115 1800 q 1213 1772 1178 1800 q 1247 1696 1247 1744 q 1227 1625 1247 1657 q 1164 1564 1207 1593 q 1132 1537 1142 1549 q 1119 1510 1122 1525 l 1115 1489 q 1097 1463 1113 1471 q 1064 1455 1082 1454 q 1032 1465 1046 1456 q 1017 1492 1018 1475 l 1015 1522 q 1026 1578 1013 1556 q 1065 1621 1039 1601 q 1101 1652 1089 1638 q 1113 1676 1113 1667 q 1104 1693 1113 1688 q 1079 1699 1096 1699 q 1047 1694 1065 1699 q 1006 1682 1029 1689 q 950 1707 969 1665 q 974 1768 935 1749 q 1041 1792 1007 1783 q 1115 1800 1075 1800 z "},"Ỡ":{"ha":1426,"x_min":214,"x_max":1518,"o":"m 674 -26 q 485 9 569 -26 q 340 112 400 44 q 247 274 279 179 q 214 488 214 369 q 237 695 214 589 q 304 905 260 801 q 413 1099 349 1008 q 563 1260 478 1190 q 753 1370 649 1331 q 979 1410 857 1410 q 1079 1399 1032 1410 q 1167 1368 1126 1389 q 1291 1386 1243 1371 q 1365 1433 1339 1401 q 1400 1515 1392 1464 q 1406 1643 1408 1567 q 1421 1672 1406 1663 q 1457 1683 1436 1682 q 1494 1676 1478 1685 q 1513 1649 1511 1668 q 1513 1524 1518 1581 q 1482 1422 1507 1467 q 1408 1346 1457 1376 q 1278 1303 1358 1315 q 1394 1133 1353 1236 q 1435 900 1435 1031 q 1411 681 1435 792 q 1342 467 1388 571 q 1231 274 1296 364 q 1081 117 1165 185 q 894 12 996 50 q 674 -26 792 -26 m 694 92 q 871 125 789 92 q 1022 217 953 158 q 1143 354 1090 276 q 1232 521 1196 432 q 1287 701 1268 610 q 1306 882 1306 793 q 1283 1058 1306 982 q 1217 1187 1261 1135 q 1108 1265 1172 1239 q 958 1292 1043 1292 q 783 1258 865 1292 q 632 1165 700 1225 q 510 1028 564 1106 q 419 862 457 950 q 363 683 382 774 q 344 504 344 592 q 367 328 344 406 q 433 199 389 251 q 542 119 476 147 q 694 92 607 92 m 821 1511 q 779 1550 778 1511 q 817 1683 785 1640 q 910 1725 850 1725 q 988 1710 950 1725 q 1060 1676 1026 1696 q 1124 1641 1094 1656 q 1174 1626 1153 1626 q 1197 1641 1185 1626 q 1214 1690 1208 1656 q 1271 1726 1218 1726 q 1302 1717 1293 1726 q 1310 1690 1311 1708 q 1273 1556 1304 1599 q 1178 1513 1242 1513 q 1097 1527 1135 1513 q 1027 1561 1060 1542 q 967 1595 994 1581 q 914 1610 939 1610 q 887 1594 897 1610 q 872 1547 876 1579 q 857 1520 871 1529 q 821 1511 843 1511 z "},"Ŕ":{"ha":1069,"x_min":89,"x_max":1222,"o":"m 149 -19 q 103 -10 118 -19 q 94 22 89 0 l 524 1347 q 547 1376 531 1367 q 594 1386 564 1386 l 794 1386 q 1038 1359 943 1386 q 1178 1270 1133 1332 q 1222 1103 1222 1208 q 1201 973 1222 1033 q 1140 861 1181 913 q 1041 769 1100 810 q 905 698 982 728 q 735 650 828 668 q 535 628 643 632 q 640 436 583 531 q 767 251 697 342 q 922 71 836 160 q 938 41 933 60 q 911 -6 943 22 q 870 -20 890 -24 q 833 0 850 -17 q 673 185 751 83 q 527 397 594 286 q 408 615 460 508 l 217 19 q 195 -10 210 0 q 149 -19 181 -19 m 443 725 q 610 733 532 725 q 754 758 688 742 q 875 797 821 774 q 971 850 929 819 q 1041 918 1013 881 q 1083 999 1069 956 q 1097 1093 1097 1043 q 1069 1203 1097 1164 q 970 1259 1040 1243 q 776 1275 900 1275 l 622 1275 l 443 725 m 843 1469 q 809 1488 828 1469 q 790 1521 790 1507 q 792 1532 790 1526 q 803 1546 794 1538 l 1022 1747 q 1035 1758 1029 1754 q 1050 1763 1042 1763 q 1081 1750 1064 1763 q 1111 1721 1099 1738 q 1124 1689 1124 1704 q 1121 1672 1124 1679 q 1103 1654 1118 1665 l 869 1483 q 855 1474 861 1478 q 843 1469 849 1469 z "},"Ř":{"ha":1069,"x_min":89,"x_max":1222,"o":"m 149 -19 q 103 -10 118 -19 q 94 22 89 0 l 524 1347 q 547 1376 531 1367 q 594 1386 564 1386 l 794 1386 q 1038 1359 943 1386 q 1178 1270 1133 1332 q 1222 1103 1222 1208 q 1201 973 1222 1033 q 1140 861 1181 913 q 1041 769 1100 810 q 905 698 982 728 q 735 650 828 668 q 535 628 643 632 q 640 436 583 531 q 767 251 697 342 q 922 71 836 160 q 938 41 933 60 q 911 -6 943 22 q 870 -20 890 -24 q 833 0 850 -17 q 673 185 751 83 q 527 397 594 286 q 408 615 460 508 l 217 19 q 195 -10 210 0 q 149 -19 181 -19 m 443 725 q 610 733 532 725 q 754 758 688 742 q 875 797 821 774 q 971 850 929 819 q 1041 918 1013 881 q 1083 999 1069 956 q 1097 1093 1097 1043 q 1069 1203 1097 1164 q 970 1259 1040 1243 q 776 1275 900 1275 l 622 1275 l 443 725 m 1178 1758 q 1208 1742 1194 1758 q 1221 1710 1221 1725 q 1217 1689 1221 1696 q 1206 1676 1213 1682 l 979 1501 q 940 1477 958 1485 q 900 1469 922 1469 q 867 1479 882 1469 q 840 1507 853 1489 l 713 1688 q 704 1706 706 1699 q 703 1718 703 1713 q 723 1747 703 1735 q 757 1758 743 1758 q 778 1752 771 1758 q 794 1736 785 1746 l 925 1611 l 1138 1738 q 1157 1751 1147 1743 q 1178 1758 1167 1758 z "},"Ŗ":{"ha":1069,"x_min":89,"x_max":1222,"o":"m 149 -19 q 103 -10 118 -19 q 94 22 89 0 l 524 1347 q 547 1376 531 1367 q 594 1386 564 1386 l 794 1386 q 1038 1359 943 1386 q 1178 1270 1133 1332 q 1222 1103 1222 1208 q 1201 973 1222 1033 q 1140 861 1181 913 q 1041 769 1100 810 q 905 698 982 728 q 735 650 828 668 q 535 628 643 632 q 640 436 583 531 q 767 251 697 342 q 922 71 836 160 q 938 41 933 60 q 911 -6 943 22 q 870 -20 890 -24 q 833 0 850 -17 q 673 185 751 83 q 527 397 594 286 q 408 615 460 508 l 217 19 q 195 -10 210 0 q 149 -19 181 -19 m 443 725 q 610 733 532 725 q 754 758 688 742 q 875 797 821 774 q 971 850 929 819 q 1041 918 1013 881 q 1083 999 1069 956 q 1097 1093 1097 1043 q 1069 1203 1097 1164 q 970 1259 1040 1243 q 776 1275 900 1275 l 622 1275 l 443 725 m 321 -397 q 302 -372 304 -386 q 313 -340 300 -357 q 354 -273 338 -303 q 380 -212 371 -243 q 393 -139 389 -181 q 412 -106 396 -115 q 454 -96 428 -96 q 501 -111 486 -96 q 514 -153 517 -126 q 493 -226 511 -187 q 448 -303 475 -265 q 389 -375 421 -340 q 354 -400 371 -393 q 321 -397 338 -407 z "},"Ś":{"ha":1061,"x_min":57,"x_max":1153,"o":"m 478 -26 q 344 -8 407 -26 q 231 41 282 10 q 140 111 181 72 q 68 190 100 150 q 65 222 57 207 q 86 249 72 236 q 119 269 104 264 q 149 258 135 274 q 234 178 185 215 q 345 116 283 140 q 478 92 407 92 q 620 111 554 92 q 735 167 686 131 q 812 258 785 203 q 839 382 839 313 q 825 464 839 426 q 783 534 811 501 q 715 596 756 567 q 622 656 675 625 q 531 710 574 682 q 452 772 488 739 q 391 844 417 806 q 351 932 365 883 q 338 1040 338 981 q 368 1189 338 1121 q 457 1306 399 1257 q 597 1383 515 1356 q 779 1410 679 1410 q 923 1387 858 1410 q 1040 1326 988 1364 q 1138 1244 1093 1289 q 1149 1215 1153 1231 q 1126 1182 1146 1199 q 1095 1165 1111 1167 q 1064 1174 1079 1163 q 988 1231 1028 1204 q 899 1274 949 1257 q 779 1292 849 1292 q 654 1276 711 1292 q 556 1228 597 1260 q 490 1150 514 1197 q 467 1040 467 1103 q 478 954 467 992 q 517 885 490 917 q 586 823 543 853 q 692 760 629 793 q 806 687 756 725 q 893 603 857 649 q 948 503 929 557 q 968 383 967 449 q 931 218 968 293 q 828 88 894 143 q 672 3 761 33 q 478 -26 582 -26 m 760 1469 q 726 1488 744 1469 q 707 1521 707 1507 q 709 1532 707 1526 q 719 1546 711 1538 l 939 1747 q 952 1758 946 1754 q 967 1763 958 1763 q 998 1750 981 1763 q 1028 1721 1015 1738 q 1040 1689 1040 1704 q 1038 1672 1040 1679 q 1019 1654 1035 1665 l 786 1483 q 772 1474 778 1478 q 760 1469 765 1469 z "},"Š":{"ha":1061,"x_min":57,"x_max":1153,"o":"m 478 -26 q 344 -8 407 -26 q 231 41 282 10 q 140 111 181 72 q 68 190 100 150 q 65 222 57 207 q 86 249 72 236 q 119 269 104 264 q 149 258 135 274 q 234 178 185 215 q 345 116 283 140 q 478 92 407 92 q 620 111 554 92 q 735 167 686 131 q 812 258 785 203 q 839 382 839 313 q 825 464 839 426 q 783 534 811 501 q 715 596 756 567 q 622 656 675 625 q 531 710 574 682 q 452 772 488 739 q 391 844 417 806 q 351 932 365 883 q 338 1040 338 981 q 368 1189 338 1121 q 457 1306 399 1257 q 597 1383 515 1356 q 779 1410 679 1410 q 923 1387 858 1410 q 1040 1326 988 1364 q 1138 1244 1093 1289 q 1149 1215 1153 1231 q 1126 1182 1146 1199 q 1095 1165 1111 1167 q 1064 1174 1079 1163 q 988 1231 1028 1204 q 899 1274 949 1257 q 779 1292 849 1292 q 654 1276 711 1292 q 556 1228 597 1260 q 490 1150 514 1197 q 467 1040 467 1103 q 478 954 467 992 q 517 885 490 917 q 586 823 543 853 q 692 760 629 793 q 806 687 756 725 q 893 603 857 649 q 948 503 929 557 q 968 383 967 449 q 931 218 968 293 q 828 88 894 143 q 672 3 761 33 q 478 -26 582 -26 m 1094 1758 q 1124 1742 1111 1758 q 1138 1710 1138 1725 q 1133 1689 1138 1696 q 1122 1676 1129 1682 l 896 1501 q 857 1477 875 1485 q 817 1469 839 1469 q 784 1479 799 1469 q 757 1507 769 1489 l 629 1688 q 621 1706 622 1699 q 619 1718 619 1713 q 640 1747 619 1735 q 674 1758 660 1758 q 694 1752 688 1758 q 711 1736 701 1746 l 842 1611 l 1054 1738 q 1074 1751 1064 1743 q 1094 1758 1083 1758 z "},"Ş":{"ha":1061,"x_min":57,"x_max":1153,"o":"m 478 -26 q 344 -8 407 -26 q 231 41 282 10 q 140 111 181 72 q 68 190 100 150 q 65 222 57 207 q 86 249 72 236 q 119 269 104 264 q 149 258 135 274 q 234 178 185 215 q 345 116 283 140 q 478 92 407 92 q 620 111 554 92 q 735 167 686 131 q 812 258 785 203 q 839 382 839 313 q 825 464 839 426 q 783 534 811 501 q 715 596 756 567 q 622 656 675 625 q 531 710 574 682 q 452 772 488 739 q 391 844 417 806 q 351 932 365 883 q 338 1040 338 981 q 368 1189 338 1121 q 457 1306 399 1257 q 597 1383 515 1356 q 779 1410 679 1410 q 923 1387 858 1410 q 1040 1326 988 1364 q 1138 1244 1093 1289 q 1149 1215 1153 1231 q 1126 1182 1146 1199 q 1095 1165 1111 1167 q 1064 1174 1079 1163 q 988 1231 1028 1204 q 899 1274 949 1257 q 779 1292 849 1292 q 654 1276 711 1292 q 556 1228 597 1260 q 490 1150 514 1197 q 467 1040 467 1103 q 478 954 467 992 q 517 885 490 917 q 586 823 543 853 q 692 760 629 793 q 806 687 756 725 q 893 603 857 649 q 948 503 929 557 q 968 383 967 449 q 931 218 968 293 q 828 88 894 143 q 672 3 761 33 q 478 -26 582 -26 m 371 -374 q 278 -363 319 -374 q 214 -335 238 -353 q 204 -306 203 -324 q 213 -276 206 -289 q 234 -252 222 -258 q 260 -251 246 -246 q 304 -269 278 -260 q 374 -278 331 -278 q 428 -267 408 -278 q 447 -229 447 -257 q 420 -191 447 -199 q 356 -187 393 -183 q 334 -185 340 -189 q 322 -172 328 -181 q 319 -153 317 -162 q 328 -135 321 -144 l 429 18 l 519 18 l 414 -146 l 374 -124 q 478 -112 435 -104 q 544 -147 521 -119 q 567 -215 567 -175 q 540 -302 567 -267 q 468 -356 513 -337 q 371 -374 424 -374 z "},"Ŝ":{"ha":1061,"x_min":57,"x_max":1153,"o":"m 478 -26 q 344 -8 407 -26 q 231 41 282 10 q 140 111 181 72 q 68 190 100 150 q 65 222 57 207 q 86 249 72 236 q 119 269 104 264 q 149 258 135 274 q 234 178 185 215 q 345 116 283 140 q 478 92 407 92 q 620 111 554 92 q 735 167 686 131 q 812 258 785 203 q 839 382 839 313 q 825 464 839 426 q 783 534 811 501 q 715 596 756 567 q 622 656 675 625 q 531 710 574 682 q 452 772 488 739 q 391 844 417 806 q 351 932 365 883 q 338 1040 338 981 q 368 1189 338 1121 q 457 1306 399 1257 q 597 1383 515 1356 q 779 1410 679 1410 q 923 1387 858 1410 q 1040 1326 988 1364 q 1138 1244 1093 1289 q 1149 1215 1153 1231 q 1126 1182 1146 1199 q 1095 1165 1111 1167 q 1064 1174 1079 1163 q 988 1231 1028 1204 q 899 1274 949 1257 q 779 1292 849 1292 q 654 1276 711 1292 q 556 1228 597 1260 q 490 1150 514 1197 q 467 1040 467 1103 q 478 954 467 992 q 517 885 490 917 q 586 823 543 853 q 692 760 629 793 q 806 687 756 725 q 893 603 857 649 q 948 503 929 557 q 968 383 967 449 q 931 218 968 293 q 828 88 894 143 q 672 3 761 33 q 478 -26 582 -26 m 624 1469 q 596 1486 607 1469 q 585 1518 585 1503 q 590 1539 585 1532 q 600 1551 594 1546 l 825 1726 q 865 1751 846 1744 q 906 1758 883 1758 q 938 1749 924 1758 q 964 1722 953 1740 l 1093 1542 q 1101 1524 1100 1532 q 1101 1510 1101 1517 q 1083 1481 1101 1493 q 1053 1469 1065 1469 q 1029 1476 1039 1469 q 1008 1493 1019 1483 l 879 1618 l 667 1485 q 647 1474 657 1479 q 624 1469 636 1469 z "},"Ș":{"ha":1061,"x_min":57,"x_max":1153,"o":"m 478 -26 q 344 -8 407 -26 q 231 41 282 10 q 140 111 181 72 q 68 190 100 150 q 65 222 57 207 q 86 249 72 236 q 119 269 104 264 q 149 258 135 274 q 234 178 185 215 q 345 116 283 140 q 478 92 407 92 q 620 111 554 92 q 735 167 686 131 q 812 258 785 203 q 839 382 839 313 q 825 464 839 426 q 783 534 811 501 q 715 596 756 567 q 622 656 675 625 q 531 710 574 682 q 452 772 488 739 q 391 844 417 806 q 351 932 365 883 q 338 1040 338 981 q 368 1189 338 1121 q 457 1306 399 1257 q 597 1383 515 1356 q 779 1410 679 1410 q 923 1387 858 1410 q 1040 1326 988 1364 q 1138 1244 1093 1289 q 1149 1215 1153 1231 q 1126 1182 1146 1199 q 1095 1165 1111 1167 q 1064 1174 1079 1163 q 988 1231 1028 1204 q 899 1274 949 1257 q 779 1292 849 1292 q 654 1276 711 1292 q 556 1228 597 1260 q 490 1150 514 1197 q 467 1040 467 1103 q 478 954 467 992 q 517 885 490 917 q 586 823 543 853 q 692 760 629 793 q 806 687 756 725 q 893 603 857 649 q 948 503 929 557 q 968 383 967 449 q 931 218 968 293 q 828 88 894 143 q 672 3 761 33 q 478 -26 582 -26 m 294 -397 q 276 -372 278 -386 q 286 -340 274 -357 q 328 -273 311 -303 q 353 -212 344 -243 q 367 -139 363 -181 q 385 -106 369 -115 q 428 -96 401 -96 q 475 -111 460 -96 q 488 -153 490 -126 q 467 -226 485 -187 q 422 -303 449 -265 q 363 -375 394 -340 q 328 -400 344 -393 q 294 -397 311 -407 z "},"Ŧ":{"ha":1064,"x_min":335,"x_max":1368,"o":"m 414 -21 q 365 18 356 -21 l 775 1275 l 367 1275 q 341 1288 346 1275 q 346 1331 336 1300 q 369 1374 357 1363 q 403 1386 382 1386 l 1338 1386 q 1363 1374 1358 1386 q 1357 1331 1368 1363 q 1335 1288 1347 1300 q 1301 1275 1322 1275 l 896 1275 l 486 18 q 463 -11 481 -1 q 414 -21 444 -21 m 365 642 q 338 657 340 642 q 339 690 335 672 q 353 726 343 710 q 389 743 363 743 l 936 743 q 965 726 963 743 q 964 690 968 710 q 950 657 960 672 q 915 642 940 642 l 365 642 z "},"Ť":{"ha":1064,"x_min":336,"x_max":1368,"o":"m 414 -21 q 365 18 356 -21 l 775 1275 l 367 1275 q 341 1288 346 1275 q 346 1331 336 1300 q 369 1374 357 1363 q 403 1386 382 1386 l 1338 1386 q 1363 1374 1358 1386 q 1357 1331 1368 1363 q 1335 1288 1347 1300 q 1301 1275 1322 1275 l 896 1275 l 486 18 q 463 -11 481 -1 q 414 -21 444 -21 m 1169 1758 q 1199 1742 1186 1758 q 1213 1710 1213 1725 q 1208 1689 1213 1696 q 1197 1676 1204 1682 l 971 1501 q 932 1477 950 1485 q 892 1469 914 1469 q 859 1479 874 1469 q 832 1507 844 1489 l 704 1688 q 696 1706 697 1699 q 694 1718 694 1713 q 715 1747 694 1735 q 749 1758 735 1758 q 769 1752 763 1758 q 786 1736 776 1746 l 917 1611 l 1129 1738 q 1149 1751 1139 1743 q 1169 1758 1158 1758 z "},"Ţ":{"ha":1064,"x_min":165,"x_max":1368,"o":"m 414 -21 q 365 18 356 -21 l 775 1275 l 367 1275 q 341 1288 346 1275 q 346 1331 336 1300 q 369 1374 357 1363 q 403 1386 382 1386 l 1338 1386 q 1363 1374 1358 1386 q 1357 1331 1368 1363 q 1335 1288 1347 1300 q 1301 1275 1322 1275 l 896 1275 l 486 18 q 463 -11 481 -1 q 414 -21 444 -21 m 335 -374 q 242 -363 283 -374 q 178 -335 201 -353 q 168 -306 167 -324 q 176 -276 169 -289 q 198 -252 186 -258 q 224 -251 210 -246 q 268 -269 242 -260 q 338 -278 294 -278 q 392 -267 372 -278 q 411 -229 411 -257 q 384 -191 411 -199 q 319 -187 357 -183 q 298 -185 304 -189 q 286 -172 292 -181 q 283 -153 281 -162 q 292 -135 285 -144 l 393 18 l 483 18 l 378 -146 l 338 -124 q 442 -112 399 -104 q 508 -147 485 -119 q 531 -215 531 -175 q 503 -302 531 -267 q 432 -356 476 -337 q 335 -374 388 -374 z "},"Ț":{"ha":1064,"x_min":238,"x_max":1368,"o":"m 414 -21 q 365 18 356 -21 l 775 1275 l 367 1275 q 341 1288 346 1275 q 346 1331 336 1300 q 369 1374 357 1363 q 403 1386 382 1386 l 1338 1386 q 1363 1374 1358 1386 q 1357 1331 1368 1363 q 1335 1288 1347 1300 q 1301 1275 1322 1275 l 896 1275 l 486 18 q 463 -11 481 -1 q 414 -21 444 -21 m 258 -397 q 240 -372 242 -386 q 250 -340 238 -357 q 292 -273 275 -303 q 317 -212 308 -243 q 331 -139 326 -181 q 349 -106 333 -115 q 392 -96 365 -96 q 439 -111 424 -96 q 451 -153 454 -126 q 431 -226 449 -187 q 385 -303 413 -265 q 326 -375 358 -340 q 292 -400 308 -393 q 258 -397 275 -407 z "},"Ú":{"ha":1331,"x_min":186,"x_max":1482,"o":"m 576 -26 q 378 6 461 -26 q 247 101 294 39 q 193 256 200 164 q 224 467 186 347 l 513 1372 q 535 1401 519 1392 q 585 1410 551 1410 q 632 1400 617 1410 q 640 1368 647 1390 l 343 450 q 321 247 303 326 q 408 129 339 167 q 588 92 476 92 q 802 133 710 92 q 958 253 894 174 q 1058 450 1022 333 l 1344 1372 q 1367 1401 1351 1392 q 1415 1410 1383 1410 q 1469 1368 1482 1410 l 1179 435 q 1047 181 1132 283 q 843 26 961 78 q 576 -26 725 -26 m 940 1469 q 906 1488 925 1469 q 888 1521 888 1507 q 890 1532 888 1526 q 900 1546 892 1538 l 1119 1747 q 1133 1758 1126 1754 q 1147 1763 1139 1763 q 1178 1750 1161 1763 q 1208 1721 1196 1738 q 1221 1689 1221 1704 q 1218 1672 1221 1679 q 1200 1654 1215 1665 l 967 1483 q 952 1474 958 1478 q 940 1469 946 1469 z "},"Ŭ":{"ha":1331,"x_min":186,"x_max":1482,"o":"m 576 -26 q 378 6 461 -26 q 247 101 294 39 q 193 256 200 164 q 224 467 186 347 l 513 1372 q 535 1401 519 1392 q 585 1410 551 1410 q 632 1400 617 1410 q 640 1368 647 1390 l 343 450 q 321 247 303 326 q 408 129 339 167 q 588 92 476 92 q 802 133 710 92 q 958 253 894 174 q 1058 450 1022 333 l 1344 1372 q 1367 1401 1351 1392 q 1415 1410 1383 1410 q 1469 1368 1482 1410 l 1179 435 q 1047 181 1132 283 q 843 26 961 78 q 576 -26 725 -26 m 1013 1469 q 858 1531 911 1469 q 819 1721 806 1593 q 835 1750 822 1742 q 868 1758 847 1758 q 902 1748 889 1758 q 915 1721 915 1738 q 948 1619 914 1650 q 1035 1589 982 1589 q 1145 1626 1099 1589 q 1217 1717 1192 1663 q 1240 1750 1228 1742 q 1272 1758 1253 1758 q 1309 1746 1296 1758 q 1315 1713 1322 1733 q 1244 1564 1283 1617 q 1148 1490 1204 1511 q 1013 1469 1092 1469 z "},"Ǔ":{"ha":1331,"x_min":186,"x_max":1482,"o":"m 576 -26 q 378 6 461 -26 q 247 101 294 39 q 193 256 200 164 q 224 467 186 347 l 513 1372 q 535 1401 519 1392 q 585 1410 551 1410 q 632 1400 617 1410 q 640 1368 647 1390 l 343 450 q 321 247 303 326 q 408 129 339 167 q 588 92 476 92 q 802 133 710 92 q 958 253 894 174 q 1058 450 1022 333 l 1344 1372 q 1367 1401 1351 1392 q 1415 1410 1383 1410 q 1469 1368 1482 1410 l 1179 435 q 1047 181 1132 283 q 843 26 961 78 q 576 -26 725 -26 m 1275 1758 q 1305 1742 1292 1758 q 1318 1710 1318 1725 q 1314 1689 1318 1696 q 1303 1676 1310 1682 l 1076 1501 q 1038 1477 1056 1485 q 997 1469 1019 1469 q 965 1479 979 1469 q 938 1507 950 1489 l 810 1688 q 801 1706 803 1699 q 800 1718 800 1713 q 820 1747 800 1735 q 854 1758 840 1758 q 875 1752 868 1758 q 892 1736 882 1746 l 1022 1611 l 1235 1738 q 1254 1751 1244 1743 q 1275 1758 1264 1758 z "},"Û":{"ha":1331,"x_min":186,"x_max":1482,"o":"m 576 -26 q 378 6 461 -26 q 247 101 294 39 q 193 256 200 164 q 224 467 186 347 l 513 1372 q 535 1401 519 1392 q 585 1410 551 1410 q 632 1400 617 1410 q 640 1368 647 1390 l 343 450 q 321 247 303 326 q 408 129 339 167 q 588 92 476 92 q 802 133 710 92 q 958 253 894 174 q 1058 450 1022 333 l 1344 1372 q 1367 1401 1351 1392 q 1415 1410 1383 1410 q 1469 1368 1482 1410 l 1179 435 q 1047 181 1132 283 q 843 26 961 78 q 576 -26 725 -26 m 804 1469 q 776 1486 788 1469 q 765 1518 765 1503 q 770 1539 765 1532 q 781 1551 775 1546 l 1006 1726 q 1045 1751 1026 1744 q 1086 1758 1064 1758 q 1119 1749 1104 1758 q 1144 1722 1133 1740 l 1274 1542 q 1281 1524 1281 1532 q 1282 1510 1282 1517 q 1264 1481 1282 1493 q 1233 1469 1246 1469 q 1210 1476 1219 1469 q 1189 1493 1200 1483 l 1060 1618 l 847 1485 q 827 1474 838 1479 q 804 1469 817 1469 z "},"Ü":{"ha":1331,"x_min":186,"x_max":1482,"o":"m 576 -26 q 378 6 461 -26 q 247 101 294 39 q 193 256 200 164 q 224 467 186 347 l 513 1372 q 535 1401 519 1392 q 585 1410 551 1410 q 632 1400 617 1410 q 640 1368 647 1390 l 343 450 q 321 247 303 326 q 408 129 339 167 q 588 92 476 92 q 802 133 710 92 q 958 253 894 174 q 1058 450 1022 333 l 1344 1372 q 1367 1401 1351 1392 q 1415 1410 1383 1410 q 1469 1368 1482 1410 l 1179 435 q 1047 181 1132 283 q 843 26 961 78 q 576 -26 725 -26 m 851 1517 q 803 1535 822 1517 q 783 1589 783 1553 q 809 1659 783 1626 q 885 1692 835 1692 q 932 1674 913 1692 q 951 1621 951 1657 q 928 1550 951 1583 q 851 1517 904 1517 m 1193 1517 q 1145 1535 1165 1517 q 1125 1589 1125 1553 q 1151 1659 1125 1626 q 1226 1692 1176 1692 q 1274 1674 1254 1692 q 1294 1621 1294 1657 q 1270 1550 1294 1583 q 1193 1517 1246 1517 z "},"Ù":{"ha":1331,"x_min":186,"x_max":1482,"o":"m 576 -26 q 378 6 461 -26 q 247 101 294 39 q 193 256 200 164 q 224 467 186 347 l 513 1372 q 535 1401 519 1392 q 585 1410 551 1410 q 632 1400 617 1410 q 640 1368 647 1390 l 343 450 q 321 247 303 326 q 408 129 339 167 q 588 92 476 92 q 802 133 710 92 q 958 253 894 174 q 1058 450 1022 333 l 1344 1372 q 1367 1401 1351 1392 q 1415 1410 1383 1410 q 1469 1368 1482 1410 l 1179 435 q 1047 181 1132 283 q 843 26 961 78 q 576 -26 725 -26 m 1082 1469 q 1069 1474 1076 1469 q 1056 1483 1063 1478 l 857 1656 q 840 1674 843 1667 q 836 1690 836 1681 q 849 1722 836 1706 q 881 1751 863 1739 q 911 1763 899 1763 q 927 1758 921 1763 q 940 1747 933 1754 l 1124 1544 q 1133 1530 1132 1535 q 1135 1521 1135 1525 q 1116 1488 1135 1507 q 1082 1469 1097 1469 z "},"Ű":{"ha":1331,"x_min":186,"x_max":1482,"o":"m 576 -26 q 378 6 461 -26 q 247 101 294 39 q 193 256 200 164 q 224 467 186 347 l 513 1372 q 535 1401 519 1392 q 585 1410 551 1410 q 632 1400 617 1410 q 640 1368 647 1390 l 343 450 q 321 247 303 326 q 408 129 339 167 q 588 92 476 92 q 802 133 710 92 q 958 253 894 174 q 1058 450 1022 333 l 1344 1372 q 1367 1401 1351 1392 q 1415 1410 1383 1410 q 1469 1368 1482 1410 l 1179 435 q 1047 181 1132 283 q 843 26 961 78 q 576 -26 725 -26 m 860 1469 q 826 1488 844 1469 q 808 1521 808 1507 q 810 1532 808 1526 q 821 1546 811 1538 l 1017 1747 q 1029 1758 1024 1754 q 1043 1763 1035 1763 q 1075 1750 1057 1763 q 1106 1721 1093 1738 q 1118 1690 1118 1704 q 1115 1672 1118 1679 q 1097 1654 1113 1665 l 888 1483 q 872 1474 879 1478 q 860 1469 865 1469 m 1132 1469 q 1098 1488 1117 1469 q 1079 1521 1079 1507 q 1081 1532 1079 1526 q 1092 1546 1082 1538 l 1286 1747 q 1301 1758 1294 1754 q 1315 1763 1307 1763 q 1347 1750 1329 1763 q 1377 1721 1364 1738 q 1390 1690 1390 1704 q 1388 1672 1390 1679 q 1369 1654 1385 1665 l 1157 1483 q 1144 1474 1150 1478 q 1132 1469 1138 1469 z "},"Ū":{"ha":1331,"x_min":186,"x_max":1482,"o":"m 576 -26 q 378 6 461 -26 q 247 101 294 39 q 193 256 200 164 q 224 467 186 347 l 513 1372 q 535 1401 519 1392 q 585 1410 551 1410 q 632 1400 617 1410 q 640 1368 647 1390 l 343 450 q 321 247 303 326 q 408 129 339 167 q 588 92 476 92 q 802 133 710 92 q 958 253 894 174 q 1058 450 1022 333 l 1344 1372 q 1367 1401 1351 1392 q 1415 1410 1383 1410 q 1469 1368 1482 1410 l 1179 435 q 1047 181 1132 283 q 843 26 961 78 q 576 -26 725 -26 m 843 1556 q 810 1572 817 1556 q 811 1613 804 1588 q 831 1658 818 1643 q 868 1674 843 1674 l 1240 1674 q 1274 1656 1268 1674 q 1274 1613 1281 1639 q 1254 1569 1267 1583 q 1217 1556 1242 1556 l 843 1556 z "},"Ų":{"ha":1331,"x_min":186,"x_max":1482,"o":"m 576 -26 q 378 6 461 -26 q 247 101 294 39 q 193 256 200 164 q 224 467 186 347 l 513 1372 q 535 1401 519 1392 q 585 1410 551 1410 q 632 1400 617 1410 q 640 1368 647 1390 l 343 450 q 321 247 303 326 q 408 129 339 167 q 588 92 476 92 q 802 133 710 92 q 958 253 894 174 q 1058 450 1022 333 l 1344 1372 q 1367 1401 1351 1392 q 1415 1410 1383 1410 q 1469 1368 1482 1410 l 1179 435 q 1047 181 1132 283 q 843 26 961 78 q 576 -26 725 -26 m 558 -336 q 497 -315 519 -336 q 474 -256 474 -294 q 492 -185 474 -221 q 547 -113 511 -150 q 635 -37 583 -76 q 753 49 688 3 l 836 46 l 836 39 q 742 -38 785 -1 q 668 -107 699 -75 q 621 -164 638 -139 q 604 -207 604 -189 q 610 -225 604 -219 q 626 -231 617 -231 q 676 -213 651 -231 q 739 -162 701 -196 q 761 -153 746 -156 q 792 -167 776 -151 q 805 -191 803 -178 q 799 -217 807 -204 q 731 -278 772 -251 q 644 -321 689 -306 q 558 -336 599 -336 z "},"Ů":{"ha":1331,"x_min":186,"x_max":1482,"o":"m 576 -26 q 378 6 461 -26 q 247 101 294 39 q 193 256 200 164 q 224 467 186 347 l 513 1372 q 535 1401 519 1392 q 585 1410 551 1410 q 632 1400 617 1410 q 640 1368 647 1390 l 343 450 q 321 247 303 326 q 408 129 339 167 q 588 92 476 92 q 802 133 710 92 q 958 253 894 174 q 1058 450 1022 333 l 1344 1372 q 1367 1401 1351 1392 q 1415 1410 1383 1410 q 1469 1368 1482 1410 l 1179 435 q 1047 181 1132 283 q 843 26 961 78 q 576 -26 725 -26 m 1022 1460 q 928 1478 967 1460 q 871 1529 890 1496 q 851 1608 851 1563 q 881 1704 851 1661 q 960 1772 910 1747 q 1071 1797 1010 1797 q 1167 1779 1128 1797 q 1226 1728 1206 1761 q 1246 1647 1246 1694 q 1216 1551 1246 1593 q 1136 1484 1186 1508 q 1022 1460 1086 1460 m 1029 1543 q 1111 1572 1078 1543 q 1144 1644 1144 1601 q 1125 1696 1144 1678 q 1065 1714 1106 1714 q 986 1684 1019 1714 q 953 1613 953 1654 q 973 1561 953 1579 q 1029 1543 993 1543 z "},"Ũ":{"ha":1331,"x_min":186,"x_max":1482,"o":"m 576 -26 q 378 6 461 -26 q 247 101 294 39 q 193 256 200 164 q 224 467 186 347 l 513 1372 q 535 1401 519 1392 q 585 1410 551 1410 q 632 1400 617 1410 q 640 1368 647 1390 l 343 450 q 321 247 303 326 q 408 129 339 167 q 588 92 476 92 q 802 133 710 92 q 958 253 894 174 q 1058 450 1022 333 l 1344 1372 q 1367 1401 1351 1392 q 1415 1410 1383 1410 q 1469 1368 1482 1410 l 1179 435 q 1047 181 1132 283 q 843 26 961 78 q 576 -26 725 -26 m 821 1511 q 779 1550 778 1511 q 817 1683 785 1640 q 910 1725 850 1725 q 988 1710 950 1725 q 1060 1676 1026 1696 q 1124 1641 1094 1656 q 1174 1626 1153 1626 q 1197 1641 1185 1626 q 1214 1690 1208 1656 q 1271 1726 1218 1726 q 1302 1717 1293 1726 q 1310 1690 1311 1708 q 1273 1556 1304 1599 q 1178 1513 1242 1513 q 1097 1527 1135 1513 q 1027 1561 1060 1542 q 967 1595 994 1581 q 914 1610 939 1610 q 887 1594 897 1610 q 872 1547 876 1579 q 857 1520 871 1529 q 821 1511 843 1511 z "},"Ǘ":{"ha":1331,"x_min":186,"x_max":1482,"o":"m 576 -26 q 378 6 461 -26 q 247 101 294 39 q 193 256 200 164 q 224 467 186 347 l 513 1372 q 535 1401 519 1392 q 585 1410 551 1410 q 632 1400 617 1410 q 640 1368 647 1390 l 343 450 q 321 247 303 326 q 408 129 339 167 q 588 92 476 92 q 802 133 710 92 q 958 253 894 174 q 1058 450 1022 333 l 1344 1372 q 1367 1401 1351 1392 q 1415 1410 1383 1410 q 1469 1368 1482 1410 l 1179 435 q 1047 181 1132 283 q 843 26 961 78 q 576 -26 725 -26 m 851 1517 q 803 1535 822 1517 q 783 1589 783 1553 q 809 1659 783 1626 q 885 1692 835 1692 q 932 1674 913 1692 q 951 1621 951 1657 q 928 1550 951 1583 q 851 1517 904 1517 m 1193 1517 q 1145 1535 1165 1517 q 1125 1589 1125 1553 q 1151 1659 1125 1626 q 1226 1692 1176 1692 q 1274 1674 1254 1692 q 1294 1621 1294 1657 q 1270 1550 1294 1583 q 1193 1517 1246 1517 m 1013 1731 q 978 1749 997 1731 q 960 1782 960 1768 q 962 1793 960 1788 q 972 1807 964 1799 l 1192 2008 q 1205 2019 1199 2015 q 1219 2024 1211 2024 q 1251 2011 1233 2024 q 1281 1982 1268 1999 q 1293 1950 1293 1965 q 1290 1933 1293 1940 q 1272 1915 1288 1926 l 1039 1744 q 1024 1735 1031 1739 q 1013 1731 1018 1731 z "},"Ǚ":{"ha":1331,"x_min":186,"x_max":1482,"o":"m 576 -26 q 378 6 461 -26 q 247 101 294 39 q 193 256 200 164 q 224 467 186 347 l 513 1372 q 535 1401 519 1392 q 585 1410 551 1410 q 632 1400 617 1410 q 640 1368 647 1390 l 343 450 q 321 247 303 326 q 408 129 339 167 q 588 92 476 92 q 802 133 710 92 q 958 253 894 174 q 1058 450 1022 333 l 1344 1372 q 1367 1401 1351 1392 q 1415 1410 1383 1410 q 1469 1368 1482 1410 l 1179 435 q 1047 181 1132 283 q 843 26 961 78 q 576 -26 725 -26 m 851 1517 q 803 1535 822 1517 q 783 1589 783 1553 q 809 1659 783 1626 q 885 1692 835 1692 q 932 1674 913 1692 q 951 1621 951 1657 q 928 1550 951 1583 q 851 1517 904 1517 m 1193 1517 q 1145 1535 1165 1517 q 1125 1589 1125 1553 q 1151 1659 1125 1626 q 1226 1692 1176 1692 q 1274 1674 1254 1692 q 1294 1621 1294 1657 q 1270 1550 1294 1583 q 1193 1517 1246 1517 m 1347 2019 q 1377 2003 1364 2019 q 1390 1971 1390 1986 q 1386 1950 1390 1957 q 1375 1938 1382 1943 l 1149 1763 q 1110 1738 1128 1746 q 1069 1731 1092 1731 q 1037 1740 1051 1731 q 1010 1768 1022 1750 l 882 1949 q 874 1967 875 1960 q 872 1979 872 1974 q 892 2008 872 1996 q 926 2019 913 2019 q 947 2013 940 2019 q 964 1997 954 2007 l 1094 1872 l 1307 1999 q 1326 2012 1317 2004 q 1347 2019 1336 2019 z "},"Ǜ":{"ha":1331,"x_min":186,"x_max":1482,"o":"m 576 -26 q 378 6 461 -26 q 247 101 294 39 q 193 256 200 164 q 224 467 186 347 l 513 1372 q 535 1401 519 1392 q 585 1410 551 1410 q 632 1400 617 1410 q 640 1368 647 1390 l 343 450 q 321 247 303 326 q 408 129 339 167 q 588 92 476 92 q 802 133 710 92 q 958 253 894 174 q 1058 450 1022 333 l 1344 1372 q 1367 1401 1351 1392 q 1415 1410 1383 1410 q 1469 1368 1482 1410 l 1179 435 q 1047 181 1132 283 q 843 26 961 78 q 576 -26 725 -26 m 851 1517 q 803 1535 822 1517 q 783 1589 783 1553 q 809 1659 783 1626 q 885 1692 835 1692 q 932 1674 913 1692 q 951 1621 951 1657 q 928 1550 951 1583 q 851 1517 904 1517 m 1193 1517 q 1145 1535 1165 1517 q 1125 1589 1125 1553 q 1151 1659 1125 1626 q 1226 1692 1176 1692 q 1274 1674 1254 1692 q 1294 1621 1294 1657 q 1270 1550 1294 1583 q 1193 1517 1246 1517 m 1154 1731 q 1142 1735 1149 1731 q 1128 1744 1135 1739 l 929 1917 q 912 1935 915 1928 q 908 1951 908 1942 q 922 1983 908 1967 q 953 2012 935 2000 q 983 2024 971 2024 q 999 2019 993 2024 q 1013 2008 1006 2015 l 1196 1806 q 1206 1791 1204 1796 q 1207 1782 1207 1786 q 1188 1749 1207 1768 q 1154 1731 1169 1731 z "},"Ǖ":{"ha":1331,"x_min":186,"x_max":1482,"o":"m 576 -26 q 378 6 461 -26 q 247 101 294 39 q 193 256 200 164 q 224 467 186 347 l 513 1372 q 535 1401 519 1392 q 585 1410 551 1410 q 632 1400 617 1410 q 640 1368 647 1390 l 343 450 q 321 247 303 326 q 408 129 339 167 q 588 92 476 92 q 802 133 710 92 q 958 253 894 174 q 1058 450 1022 333 l 1344 1372 q 1367 1401 1351 1392 q 1415 1410 1383 1410 q 1469 1368 1482 1410 l 1179 435 q 1047 181 1132 283 q 843 26 961 78 q 576 -26 725 -26 m 851 1517 q 803 1535 822 1517 q 783 1589 783 1553 q 809 1659 783 1626 q 885 1692 835 1692 q 932 1674 913 1692 q 951 1621 951 1657 q 928 1550 951 1583 q 851 1517 904 1517 m 1193 1517 q 1145 1535 1165 1517 q 1125 1589 1125 1553 q 1151 1659 1125 1626 q 1226 1692 1176 1692 q 1274 1674 1254 1692 q 1294 1621 1294 1657 q 1270 1550 1294 1583 q 1193 1517 1246 1517 m 915 1817 q 883 1833 889 1817 q 883 1874 876 1849 q 903 1919 890 1904 q 940 1935 915 1935 l 1313 1935 q 1347 1917 1340 1935 q 1346 1874 1353 1900 q 1326 1831 1339 1844 q 1289 1817 1314 1817 l 915 1817 z "},"Ụ":{"ha":1331,"x_min":186,"x_max":1482,"o":"m 576 -26 q 378 6 461 -26 q 247 101 294 39 q 193 256 200 164 q 224 467 186 347 l 513 1372 q 535 1401 519 1392 q 585 1410 551 1410 q 632 1400 617 1410 q 640 1368 647 1390 l 343 450 q 321 247 303 326 q 408 129 339 167 q 588 92 476 92 q 802 133 710 92 q 958 253 894 174 q 1058 450 1022 333 l 1344 1372 q 1367 1401 1351 1392 q 1415 1410 1383 1410 q 1469 1368 1482 1410 l 1179 435 q 1047 181 1132 283 q 843 26 961 78 q 576 -26 725 -26 m 458 -322 q 411 -304 431 -322 q 392 -251 392 -286 q 416 -181 392 -214 q 492 -147 440 -147 q 540 -165 521 -147 q 560 -218 560 -183 q 535 -290 560 -257 q 458 -322 511 -322 z "},"Ủ":{"ha":1331,"x_min":186,"x_max":1482,"o":"m 576 -26 q 378 6 461 -26 q 247 101 294 39 q 193 256 200 164 q 224 467 186 347 l 513 1372 q 535 1401 519 1392 q 585 1410 551 1410 q 632 1400 617 1410 q 640 1368 647 1390 l 343 450 q 321 247 303 326 q 408 129 339 167 q 588 92 476 92 q 802 133 710 92 q 958 253 894 174 q 1058 450 1022 333 l 1344 1372 q 1367 1401 1351 1392 q 1415 1410 1383 1410 q 1469 1368 1482 1410 l 1179 435 q 1047 181 1132 283 q 843 26 961 78 q 576 -26 725 -26 m 1071 1800 q 1168 1772 1133 1800 q 1203 1696 1203 1744 q 1183 1625 1203 1657 q 1119 1564 1163 1593 q 1088 1537 1097 1549 q 1075 1510 1078 1525 l 1071 1489 q 1053 1463 1068 1471 q 1019 1455 1038 1454 q 988 1465 1001 1456 q 972 1492 974 1475 l 971 1522 q 981 1578 968 1556 q 1021 1621 994 1601 q 1056 1652 1044 1638 q 1068 1676 1068 1667 q 1060 1693 1068 1688 q 1035 1699 1051 1699 q 1003 1694 1021 1699 q 961 1682 985 1689 q 906 1707 925 1665 q 929 1768 890 1749 q 997 1792 963 1783 q 1071 1800 1031 1800 z "},"Ư":{"ha":1331,"x_min":186,"x_max":1738,"o":"m 1732 1644 q 1727 1514 1738 1572 q 1682 1414 1717 1456 q 1580 1350 1647 1372 q 1406 1326 1513 1328 l 1433 1406 q 1558 1431 1515 1410 q 1615 1503 1600 1453 q 1625 1639 1629 1553 q 1640 1668 1625 1658 q 1676 1679 1656 1678 q 1714 1672 1697 1681 q 1732 1644 1731 1664 m 576 -26 q 378 6 461 -26 q 247 101 294 39 q 193 256 200 164 q 224 467 186 347 l 513 1372 q 535 1401 519 1392 q 585 1410 551 1410 q 632 1400 617 1410 q 640 1368 647 1390 l 343 450 q 321 247 303 326 q 408 129 339 167 q 588 92 476 92 q 802 133 710 92 q 958 253 894 174 q 1058 450 1022 333 l 1344 1372 q 1367 1401 1351 1392 q 1415 1410 1383 1410 q 1469 1368 1482 1410 l 1179 435 q 1047 181 1132 283 q 843 26 961 78 q 576 -26 725 -26 z "},"Ứ":{"ha":1331,"x_min":186,"x_max":1738,"o":"m 1732 1644 q 1727 1514 1738 1572 q 1682 1414 1717 1456 q 1580 1350 1647 1372 q 1406 1326 1513 1328 l 1433 1406 q 1558 1431 1515 1410 q 1615 1503 1600 1453 q 1625 1639 1629 1553 q 1640 1668 1625 1658 q 1676 1679 1656 1678 q 1714 1672 1697 1681 q 1732 1644 1731 1664 m 576 -26 q 378 6 461 -26 q 247 101 294 39 q 193 256 200 164 q 224 467 186 347 l 513 1372 q 535 1401 519 1392 q 585 1410 551 1410 q 632 1400 617 1410 q 640 1368 647 1390 l 343 450 q 321 247 303 326 q 408 129 339 167 q 588 92 476 92 q 802 133 710 92 q 958 253 894 174 q 1058 450 1022 333 l 1344 1372 q 1367 1401 1351 1392 q 1415 1410 1383 1410 q 1469 1368 1482 1410 l 1179 435 q 1047 181 1132 283 q 843 26 961 78 q 576 -26 725 -26 m 940 1469 q 906 1488 925 1469 q 888 1521 888 1507 q 890 1532 888 1526 q 900 1546 892 1538 l 1119 1747 q 1133 1758 1126 1754 q 1147 1763 1139 1763 q 1178 1750 1161 1763 q 1208 1721 1196 1738 q 1221 1689 1221 1704 q 1218 1672 1221 1679 q 1200 1654 1215 1665 l 967 1483 q 952 1474 958 1478 q 940 1469 946 1469 z "},"Ự":{"ha":1331,"x_min":186,"x_max":1738,"o":"m 1732 1644 q 1727 1514 1738 1572 q 1682 1414 1717 1456 q 1580 1350 1647 1372 q 1406 1326 1513 1328 l 1433 1406 q 1558 1431 1515 1410 q 1615 1503 1600 1453 q 1625 1639 1629 1553 q 1640 1668 1625 1658 q 1676 1679 1656 1678 q 1714 1672 1697 1681 q 1732 1644 1731 1664 m 576 -26 q 378 6 461 -26 q 247 101 294 39 q 193 256 200 164 q 224 467 186 347 l 513 1372 q 535 1401 519 1392 q 585 1410 551 1410 q 632 1400 617 1410 q 640 1368 647 1390 l 343 450 q 321 247 303 326 q 408 129 339 167 q 588 92 476 92 q 802 133 710 92 q 958 253 894 174 q 1058 450 1022 333 l 1344 1372 q 1367 1401 1351 1392 q 1415 1410 1383 1410 q 1469 1368 1482 1410 l 1179 435 q 1047 181 1132 283 q 843 26 961 78 q 576 -26 725 -26 m 458 -322 q 411 -304 431 -322 q 392 -251 392 -286 q 416 -181 392 -214 q 492 -147 440 -147 q 540 -165 521 -147 q 560 -218 560 -183 q 535 -290 560 -257 q 458 -322 511 -322 z "},"Ừ":{"ha":1331,"x_min":186,"x_max":1738,"o":"m 1732 1644 q 1727 1514 1738 1572 q 1682 1414 1717 1456 q 1580 1350 1647 1372 q 1406 1326 1513 1328 l 1433 1406 q 1558 1431 1515 1410 q 1615 1503 1600 1453 q 1625 1639 1629 1553 q 1640 1668 1625 1658 q 1676 1679 1656 1678 q 1714 1672 1697 1681 q 1732 1644 1731 1664 m 576 -26 q 378 6 461 -26 q 247 101 294 39 q 193 256 200 164 q 224 467 186 347 l 513 1372 q 535 1401 519 1392 q 585 1410 551 1410 q 632 1400 617 1410 q 640 1368 647 1390 l 343 450 q 321 247 303 326 q 408 129 339 167 q 588 92 476 92 q 802 133 710 92 q 958 253 894 174 q 1058 450 1022 333 l 1344 1372 q 1367 1401 1351 1392 q 1415 1410 1383 1410 q 1469 1368 1482 1410 l 1179 435 q 1047 181 1132 283 q 843 26 961 78 q 576 -26 725 -26 m 1082 1469 q 1069 1474 1076 1469 q 1056 1483 1063 1478 l 857 1656 q 840 1674 843 1667 q 836 1690 836 1681 q 849 1722 836 1706 q 881 1751 863 1739 q 911 1763 899 1763 q 927 1758 921 1763 q 940 1747 933 1754 l 1124 1544 q 1133 1530 1132 1535 q 1135 1521 1135 1525 q 1116 1488 1135 1507 q 1082 1469 1097 1469 z "},"Ử":{"ha":1331,"x_min":186,"x_max":1738,"o":"m 1732 1644 q 1727 1514 1738 1572 q 1682 1414 1717 1456 q 1580 1350 1647 1372 q 1406 1326 1513 1328 l 1433 1406 q 1558 1431 1515 1410 q 1615 1503 1600 1453 q 1625 1639 1629 1553 q 1640 1668 1625 1658 q 1676 1679 1656 1678 q 1714 1672 1697 1681 q 1732 1644 1731 1664 m 576 -26 q 378 6 461 -26 q 247 101 294 39 q 193 256 200 164 q 224 467 186 347 l 513 1372 q 535 1401 519 1392 q 585 1410 551 1410 q 632 1400 617 1410 q 640 1368 647 1390 l 343 450 q 321 247 303 326 q 408 129 339 167 q 588 92 476 92 q 802 133 710 92 q 958 253 894 174 q 1058 450 1022 333 l 1344 1372 q 1367 1401 1351 1392 q 1415 1410 1383 1410 q 1469 1368 1482 1410 l 1179 435 q 1047 181 1132 283 q 843 26 961 78 q 576 -26 725 -26 m 1071 1800 q 1168 1772 1133 1800 q 1203 1696 1203 1744 q 1183 1625 1203 1657 q 1119 1564 1163 1593 q 1088 1537 1097 1549 q 1075 1510 1078 1525 l 1071 1489 q 1053 1463 1068 1471 q 1019 1455 1038 1454 q 988 1465 1001 1456 q 972 1492 974 1475 l 971 1522 q 981 1578 968 1556 q 1021 1621 994 1601 q 1056 1652 1044 1638 q 1068 1676 1068 1667 q 1060 1693 1068 1688 q 1035 1699 1051 1699 q 1003 1694 1021 1699 q 961 1682 985 1689 q 906 1707 925 1665 q 929 1768 890 1749 q 997 1792 963 1783 q 1071 1800 1031 1800 z "},"Ữ":{"ha":1331,"x_min":186,"x_max":1738,"o":"m 1732 1644 q 1727 1514 1738 1572 q 1682 1414 1717 1456 q 1580 1350 1647 1372 q 1406 1326 1513 1328 l 1433 1406 q 1558 1431 1515 1410 q 1615 1503 1600 1453 q 1625 1639 1629 1553 q 1640 1668 1625 1658 q 1676 1679 1656 1678 q 1714 1672 1697 1681 q 1732 1644 1731 1664 m 576 -26 q 378 6 461 -26 q 247 101 294 39 q 193 256 200 164 q 224 467 186 347 l 513 1372 q 535 1401 519 1392 q 585 1410 551 1410 q 632 1400 617 1410 q 640 1368 647 1390 l 343 450 q 321 247 303 326 q 408 129 339 167 q 588 92 476 92 q 802 133 710 92 q 958 253 894 174 q 1058 450 1022 333 l 1344 1372 q 1367 1401 1351 1392 q 1415 1410 1383 1410 q 1469 1368 1482 1410 l 1179 435 q 1047 181 1132 283 q 843 26 961 78 q 576 -26 725 -26 m 821 1511 q 779 1550 778 1511 q 817 1683 785 1640 q 910 1725 850 1725 q 988 1710 950 1725 q 1060 1676 1026 1696 q 1124 1641 1094 1656 q 1174 1626 1153 1626 q 1197 1641 1185 1626 q 1214 1690 1208 1656 q 1271 1726 1218 1726 q 1302 1717 1293 1726 q 1310 1690 1311 1708 q 1273 1556 1304 1599 q 1178 1513 1242 1513 q 1097 1527 1135 1513 q 1027 1561 1060 1542 q 967 1595 994 1581 q 914 1610 939 1610 q 887 1594 897 1610 q 872 1547 876 1579 q 857 1520 871 1529 q 821 1511 843 1511 z "},"Ẃ":{"ha":1838,"x_min":354,"x_max":2150,"o":"m 435 -19 q 392 -6 408 -19 q 375 53 376 8 l 356 1347 q 371 1393 354 1376 q 422 1410 388 1410 q 464 1399 454 1410 q 474 1360 474 1388 l 488 189 l 1163 1354 q 1201 1401 1185 1392 q 1254 1410 1218 1410 q 1297 1399 1286 1410 q 1307 1360 1307 1388 l 1319 186 l 2003 1354 q 2042 1400 2025 1390 q 2093 1410 2058 1410 q 2140 1388 2129 1410 q 2131 1338 2150 1367 l 1363 36 q 1322 -7 1343 6 q 1267 -19 1301 -19 q 1224 -5 1240 -19 q 1207 53 1208 10 l 1192 1172 l 529 36 q 490 -7 511 6 q 435 -19 468 -19 m 1206 1469 q 1172 1488 1190 1469 q 1153 1521 1153 1507 q 1155 1532 1153 1526 q 1165 1546 1157 1538 l 1385 1747 q 1398 1758 1392 1754 q 1413 1763 1404 1763 q 1444 1750 1426 1763 q 1474 1721 1461 1738 q 1486 1689 1486 1704 q 1483 1672 1486 1679 q 1465 1654 1481 1665 l 1232 1483 q 1217 1474 1224 1478 q 1206 1469 1211 1469 z "},"Ŵ":{"ha":1838,"x_min":354,"x_max":2150,"o":"m 435 -19 q 392 -6 408 -19 q 375 53 376 8 l 356 1347 q 371 1393 354 1376 q 422 1410 388 1410 q 464 1399 454 1410 q 474 1360 474 1388 l 488 189 l 1163 1354 q 1201 1401 1185 1392 q 1254 1410 1218 1410 q 1297 1399 1286 1410 q 1307 1360 1307 1388 l 1319 186 l 2003 1354 q 2042 1400 2025 1390 q 2093 1410 2058 1410 q 2140 1388 2129 1410 q 2131 1338 2150 1367 l 1363 36 q 1322 -7 1343 6 q 1267 -19 1301 -19 q 1224 -5 1240 -19 q 1207 53 1208 10 l 1192 1172 l 529 36 q 490 -7 511 6 q 435 -19 468 -19 m 1069 1469 q 1042 1486 1053 1469 q 1031 1518 1031 1503 q 1035 1539 1031 1532 q 1046 1551 1040 1546 l 1271 1726 q 1310 1751 1292 1744 q 1351 1758 1329 1758 q 1384 1749 1369 1758 q 1410 1722 1399 1740 l 1539 1542 q 1547 1524 1546 1532 q 1547 1510 1547 1517 q 1529 1481 1547 1493 q 1499 1469 1511 1469 q 1475 1476 1485 1469 q 1454 1493 1465 1483 l 1325 1618 l 1113 1485 q 1092 1474 1103 1479 q 1069 1469 1082 1469 z "},"Ẅ":{"ha":1838,"x_min":354,"x_max":2150,"o":"m 435 -19 q 392 -6 408 -19 q 375 53 376 8 l 356 1347 q 371 1393 354 1376 q 422 1410 388 1410 q 464 1399 454 1410 q 474 1360 474 1388 l 488 189 l 1163 1354 q 1201 1401 1185 1392 q 1254 1410 1218 1410 q 1297 1399 1286 1410 q 1307 1360 1307 1388 l 1319 186 l 2003 1354 q 2042 1400 2025 1390 q 2093 1410 2058 1410 q 2140 1388 2129 1410 q 2131 1338 2150 1367 l 1363 36 q 1322 -7 1343 6 q 1267 -19 1301 -19 q 1224 -5 1240 -19 q 1207 53 1208 10 l 1192 1172 l 529 36 q 490 -7 511 6 q 435 -19 468 -19 m 1117 1517 q 1068 1535 1088 1517 q 1049 1589 1049 1553 q 1074 1659 1049 1626 q 1150 1692 1100 1692 q 1197 1674 1178 1692 q 1217 1621 1217 1657 q 1193 1550 1217 1583 q 1117 1517 1169 1517 m 1458 1517 q 1410 1535 1431 1517 q 1390 1589 1390 1553 q 1416 1659 1390 1626 q 1492 1692 1442 1692 q 1540 1674 1519 1692 q 1560 1621 1560 1657 q 1535 1550 1560 1583 q 1458 1517 1511 1517 z "},"Ẁ":{"ha":1838,"x_min":354,"x_max":2150,"o":"m 435 -19 q 392 -6 408 -19 q 375 53 376 8 l 356 1347 q 371 1393 354 1376 q 422 1410 388 1410 q 464 1399 454 1410 q 474 1360 474 1388 l 488 189 l 1163 1354 q 1201 1401 1185 1392 q 1254 1410 1218 1410 q 1297 1399 1286 1410 q 1307 1360 1307 1388 l 1319 186 l 2003 1354 q 2042 1400 2025 1390 q 2093 1410 2058 1410 q 2140 1388 2129 1410 q 2131 1338 2150 1367 l 1363 36 q 1322 -7 1343 6 q 1267 -19 1301 -19 q 1224 -5 1240 -19 q 1207 53 1208 10 l 1192 1172 l 529 36 q 490 -7 511 6 q 435 -19 468 -19 m 1347 1469 q 1335 1474 1342 1469 q 1321 1483 1328 1478 l 1122 1656 q 1105 1674 1108 1667 q 1101 1690 1101 1681 q 1115 1722 1101 1706 q 1146 1751 1128 1739 q 1176 1763 1164 1763 q 1192 1758 1186 1763 q 1206 1747 1199 1754 l 1389 1544 q 1399 1530 1397 1535 q 1400 1521 1400 1525 q 1381 1488 1400 1507 q 1347 1469 1363 1469 z "},"Ý":{"ha":958,"x_min":286,"x_max":1299,"o":"m 347 -19 q 299 19 286 -19 l 490 610 l 335 1347 q 344 1392 329 1375 q 394 1410 358 1410 q 438 1397 426 1410 q 454 1360 449 1385 l 582 739 l 1147 1364 q 1185 1399 1167 1388 q 1236 1410 1203 1410 q 1285 1388 1272 1410 q 1274 1338 1299 1367 l 614 606 l 424 19 q 347 -19 411 -19 m 744 1469 q 710 1488 729 1469 q 692 1521 692 1507 q 694 1532 692 1526 q 704 1546 696 1538 l 924 1747 q 937 1758 931 1754 q 951 1763 943 1763 q 983 1750 965 1763 q 1013 1721 1000 1738 q 1025 1689 1025 1704 q 1022 1672 1025 1679 q 1004 1654 1019 1665 l 771 1483 q 756 1474 763 1478 q 744 1469 750 1469 z "},"Ŷ":{"ha":958,"x_min":286,"x_max":1299,"o":"m 347 -19 q 299 19 286 -19 l 490 610 l 335 1347 q 344 1392 329 1375 q 394 1410 358 1410 q 438 1397 426 1410 q 454 1360 449 1385 l 582 739 l 1147 1364 q 1185 1399 1167 1388 q 1236 1410 1203 1410 q 1285 1388 1272 1410 q 1274 1338 1299 1367 l 614 606 l 424 19 q 347 -19 411 -19 m 608 1469 q 581 1486 592 1469 q 569 1518 569 1503 q 574 1539 569 1532 q 585 1551 579 1546 l 810 1726 q 849 1751 831 1744 q 890 1758 868 1758 q 923 1749 908 1758 q 949 1722 938 1740 l 1078 1542 q 1085 1524 1085 1532 q 1086 1510 1086 1517 q 1068 1481 1086 1493 q 1038 1469 1050 1469 q 1014 1476 1024 1469 q 993 1493 1004 1483 l 864 1618 l 651 1485 q 631 1474 642 1479 q 608 1469 621 1469 z "},"Ÿ":{"ha":958,"x_min":286,"x_max":1299,"o":"m 347 -19 q 299 19 286 -19 l 490 610 l 335 1347 q 344 1392 329 1375 q 394 1410 358 1410 q 438 1397 426 1410 q 454 1360 449 1385 l 582 739 l 1147 1364 q 1185 1399 1167 1388 q 1236 1410 1203 1410 q 1285 1388 1272 1410 q 1274 1338 1299 1367 l 614 606 l 424 19 q 347 -19 411 -19 m 656 1517 q 607 1535 626 1517 q 588 1589 588 1553 q 613 1659 588 1626 q 689 1692 639 1692 q 736 1674 717 1692 q 756 1621 756 1657 q 732 1550 756 1583 q 656 1517 708 1517 m 997 1517 q 949 1535 969 1517 q 929 1589 929 1553 q 955 1659 929 1626 q 1031 1692 981 1692 q 1078 1674 1058 1692 q 1099 1621 1099 1657 q 1074 1550 1099 1583 q 997 1517 1050 1517 z "},"Ỳ":{"ha":958,"x_min":286,"x_max":1299,"o":"m 347 -19 q 299 19 286 -19 l 490 610 l 335 1347 q 344 1392 329 1375 q 394 1410 358 1410 q 438 1397 426 1410 q 454 1360 449 1385 l 582 739 l 1147 1364 q 1185 1399 1167 1388 q 1236 1410 1203 1410 q 1285 1388 1272 1410 q 1274 1338 1299 1367 l 614 606 l 424 19 q 347 -19 411 -19 m 886 1469 q 874 1474 881 1469 q 860 1483 867 1478 l 661 1656 q 644 1674 647 1667 q 640 1690 640 1681 q 653 1722 640 1706 q 685 1751 667 1739 q 715 1763 703 1763 q 731 1758 725 1763 q 744 1747 738 1754 l 928 1544 q 938 1530 936 1535 q 939 1521 939 1525 q 920 1488 939 1507 q 886 1469 901 1469 z "},"Ỵ":{"ha":958,"x_min":222,"x_max":1299,"o":"m 347 -19 q 299 19 286 -19 l 490 610 l 335 1347 q 344 1392 329 1375 q 394 1410 358 1410 q 438 1397 426 1410 q 454 1360 449 1385 l 582 739 l 1147 1364 q 1185 1399 1167 1388 q 1236 1410 1203 1410 q 1285 1388 1272 1410 q 1274 1338 1299 1367 l 614 606 l 424 19 q 347 -19 411 -19 m 289 -322 q 242 -304 261 -322 q 222 -251 222 -286 q 247 -181 222 -214 q 322 -147 271 -147 q 371 -165 351 -147 q 390 -218 390 -183 q 366 -290 390 -257 q 289 -322 342 -322 z "},"Ỷ":{"ha":958,"x_min":286,"x_max":1299,"o":"m 347 -19 q 299 19 286 -19 l 490 610 l 335 1347 q 344 1392 329 1375 q 394 1410 358 1410 q 438 1397 426 1410 q 454 1360 449 1385 l 582 739 l 1147 1364 q 1185 1399 1167 1388 q 1236 1410 1203 1410 q 1285 1388 1272 1410 q 1274 1338 1299 1367 l 614 606 l 424 19 q 347 -19 411 -19 m 875 1800 q 972 1772 938 1800 q 1007 1696 1007 1744 q 987 1625 1007 1657 q 924 1564 967 1593 q 892 1537 901 1549 q 879 1510 882 1525 l 875 1489 q 857 1463 872 1471 q 824 1455 842 1454 q 792 1465 806 1456 q 776 1492 778 1475 l 775 1522 q 785 1578 772 1556 q 825 1621 799 1601 q 860 1652 849 1638 q 872 1676 872 1667 q 864 1693 872 1688 q 839 1699 856 1699 q 807 1694 825 1699 q 765 1682 789 1689 q 710 1707 729 1665 q 733 1768 694 1749 q 801 1792 767 1783 q 875 1800 835 1800 z "},"Ỹ":{"ha":958,"x_min":286,"x_max":1299,"o":"m 347 -19 q 299 19 286 -19 l 490 610 l 335 1347 q 344 1392 329 1375 q 394 1410 358 1410 q 438 1397 426 1410 q 454 1360 449 1385 l 582 739 l 1147 1364 q 1185 1399 1167 1388 q 1236 1410 1203 1410 q 1285 1388 1272 1410 q 1274 1338 1299 1367 l 614 606 l 424 19 q 347 -19 411 -19 m 625 1511 q 583 1550 582 1511 q 622 1683 589 1640 q 714 1725 654 1725 q 792 1710 754 1725 q 865 1676 831 1696 q 928 1641 899 1656 q 978 1626 957 1626 q 1001 1641 989 1626 q 1018 1690 1013 1656 q 1075 1726 1022 1726 q 1106 1717 1097 1726 q 1114 1690 1115 1708 q 1077 1556 1108 1599 q 982 1513 1046 1513 q 901 1527 939 1513 q 831 1561 864 1542 q 771 1595 799 1581 q 718 1610 743 1610 q 691 1594 701 1610 q 676 1547 681 1579 q 661 1520 675 1529 q 625 1511 647 1511 z "},"Ź":{"ha":944,"x_min":-81,"x_max":1229,"o":"m -47 0 q -72 13 -64 0 q -78 46 -81 26 q -62 81 -76 65 l 1017 1275 l 400 1275 q 378 1288 385 1275 q 381 1331 372 1301 q 401 1372 388 1358 q 431 1386 415 1386 l 1192 1386 q 1222 1358 1215 1386 q 1207 1306 1229 1331 l 126 111 l 811 111 q 832 98 826 111 q 829 56 838 85 q 808 15 822 29 q 779 0 794 0 l -47 0 m 721 1469 q 687 1488 706 1469 q 668 1521 668 1507 q 670 1532 668 1526 q 681 1546 672 1538 l 900 1747 q 913 1758 907 1754 q 928 1763 919 1763 q 959 1750 942 1763 q 989 1721 976 1738 q 1001 1689 1001 1704 q 999 1672 1001 1679 q 981 1654 996 1665 l 747 1483 q 733 1474 739 1478 q 721 1469 726 1469 z "},"Ž":{"ha":944,"x_min":-81,"x_max":1229,"o":"m -47 0 q -72 13 -64 0 q -78 46 -81 26 q -62 81 -76 65 l 1017 1275 l 400 1275 q 378 1288 385 1275 q 381 1331 372 1301 q 401 1372 388 1358 q 431 1386 415 1386 l 1192 1386 q 1222 1358 1215 1386 q 1207 1306 1229 1331 l 126 111 l 811 111 q 832 98 826 111 q 829 56 838 85 q 808 15 822 29 q 779 0 794 0 l -47 0 m 1056 1758 q 1085 1742 1072 1758 q 1099 1710 1099 1725 q 1094 1689 1099 1696 q 1083 1676 1090 1682 l 857 1501 q 818 1477 836 1485 q 778 1469 800 1469 q 745 1479 760 1469 q 718 1507 731 1489 l 590 1688 q 582 1706 583 1699 q 581 1718 581 1713 q 601 1747 581 1735 q 635 1758 621 1758 q 656 1752 649 1758 q 672 1736 663 1746 l 803 1611 l 1015 1738 q 1035 1751 1025 1743 q 1056 1758 1044 1758 z "},"Ż":{"ha":944,"x_min":-81,"x_max":1229,"o":"m -47 0 q -72 13 -64 0 q -78 46 -81 26 q -62 81 -76 65 l 1017 1275 l 400 1275 q 378 1288 385 1275 q 381 1331 372 1301 q 401 1372 388 1358 q 431 1386 415 1386 l 1192 1386 q 1222 1358 1215 1386 q 1207 1306 1229 1331 l 126 111 l 811 111 q 832 98 826 111 q 829 56 838 85 q 808 15 822 29 q 779 0 794 0 l -47 0 m 804 1517 q 756 1535 775 1517 q 736 1589 736 1553 q 761 1659 736 1626 q 838 1692 786 1692 q 885 1674 865 1692 q 904 1621 904 1657 q 881 1550 904 1583 q 804 1517 857 1517 z "},"á":{"ha":865,"x_min":49,"x_max":810,"o":"m 206 -24 q 123 1 158 -24 q 68 72 88 26 q 49 181 49 118 q 68 318 49 244 q 126 463 88 392 q 222 592 165 533 q 350 685 278 650 q 511 721 422 721 q 594 710 550 721 q 681 681 639 700 l 682 686 q 703 710 689 706 q 740 715 717 715 q 795 702 783 715 q 797 661 807 689 l 624 143 q 615 106 615 118 q 619 89 614 93 q 632 85 625 85 q 660 94 646 85 q 692 120 675 103 q 729 161 710 138 q 751 177 740 175 q 778 168 763 179 q 805 140 800 154 q 803 113 810 126 q 763 60 790 92 q 695 3 735 28 q 604 -21 656 -21 q 528 2 553 -21 q 500 60 504 25 q 503 133 496 94 q 522 206 511 172 q 526 212 525 208 q 528 219 526 215 q 413 83 469 138 q 305 3 357 29 q 206 -24 253 -24 m 175 203 q 183 142 175 168 q 208 101 192 115 q 244 88 224 88 q 356 140 293 88 q 488 292 418 192 q 632 536 558 392 l 647 582 q 563 606 603 600 q 492 611 524 611 q 382 583 432 611 q 294 510 332 556 q 229 410 256 465 q 189 301 203 356 q 175 203 175 247 m 528 856 q 498 869 515 856 q 481 897 481 882 q 484 915 481 907 q 494 932 488 924 l 665 1144 q 688 1167 678 1161 q 708 1172 697 1172 q 740 1163 722 1172 q 769 1138 757 1153 q 782 1106 782 1122 q 777 1088 782 1094 q 764 1074 772 1081 l 568 876 q 528 856 547 856 z "},"ă":{"ha":865,"x_min":49,"x_max":901,"o":"m 206 -24 q 123 1 158 -24 q 68 72 88 26 q 49 181 49 118 q 68 318 49 244 q 126 463 88 392 q 222 592 165 533 q 350 685 278 650 q 511 721 422 721 q 594 710 550 721 q 681 681 639 700 l 682 686 q 703 710 689 706 q 740 715 717 715 q 795 702 783 715 q 797 661 807 689 l 624 143 q 615 106 615 118 q 619 89 614 93 q 632 85 625 85 q 660 94 646 85 q 692 120 675 103 q 729 161 710 138 q 751 177 740 175 q 778 168 763 179 q 805 140 800 154 q 803 113 810 126 q 763 60 790 92 q 695 3 735 28 q 604 -21 656 -21 q 528 2 553 -21 q 500 60 504 25 q 503 133 496 94 q 522 206 511 172 q 526 212 525 208 q 528 219 526 215 q 413 83 469 138 q 305 3 357 29 q 206 -24 253 -24 m 175 203 q 183 142 175 168 q 208 101 192 115 q 244 88 224 88 q 356 140 293 88 q 488 292 418 192 q 632 536 558 392 l 647 582 q 563 606 603 600 q 492 611 524 611 q 382 583 432 611 q 294 510 332 556 q 229 410 256 465 q 189 301 203 356 q 175 203 175 247 m 588 858 q 432 931 481 858 q 407 1139 383 1004 q 423 1169 410 1160 q 458 1178 436 1178 q 495 1167 482 1178 q 507 1139 508 1156 q 529 1022 501 1063 q 608 981 557 981 q 717 1027 669 981 q 792 1133 765 1074 q 815 1167 803 1158 q 847 1175 826 1175 q 888 1163 875 1175 q 894 1129 901 1150 q 819 970 861 1029 q 720 885 776 911 q 588 858 664 858 z "},"ǎ":{"ha":865,"x_min":49,"x_max":888,"o":"m 206 -24 q 123 1 158 -24 q 68 72 88 26 q 49 181 49 118 q 68 318 49 244 q 126 463 88 392 q 222 592 165 533 q 350 685 278 650 q 511 721 422 721 q 594 710 550 721 q 681 681 639 700 l 682 686 q 703 710 689 706 q 740 715 717 715 q 795 702 783 715 q 797 661 807 689 l 624 143 q 615 106 615 118 q 619 89 614 93 q 632 85 625 85 q 660 94 646 85 q 692 120 675 103 q 729 161 710 138 q 751 177 740 175 q 778 168 763 179 q 805 140 800 154 q 803 113 810 126 q 763 60 790 92 q 695 3 735 28 q 604 -21 656 -21 q 528 2 553 -21 q 500 60 504 25 q 503 133 496 94 q 522 206 511 172 q 526 212 525 208 q 528 219 526 215 q 413 83 469 138 q 305 3 357 29 q 206 -24 253 -24 m 175 203 q 183 142 175 168 q 208 101 192 115 q 244 88 224 88 q 356 140 293 88 q 488 292 418 192 q 632 536 558 392 l 647 582 q 563 606 603 600 q 492 611 524 611 q 382 583 432 611 q 294 510 332 556 q 229 410 256 465 q 189 301 203 356 q 175 203 175 247 m 844 1178 q 874 1163 861 1178 q 888 1131 888 1147 q 883 1109 888 1117 q 872 1096 878 1101 l 651 889 q 613 865 632 871 q 571 858 594 858 q 538 867 553 858 q 513 894 522 876 l 400 1106 q 392 1124 394 1117 q 390 1138 390 1132 q 411 1166 390 1154 q 444 1178 432 1178 q 467 1171 460 1178 q 481 1154 475 1164 l 601 999 l 804 1157 q 823 1171 814 1164 q 844 1178 832 1178 z "},"â":{"ha":865,"x_min":49,"x_max":839,"o":"m 206 -24 q 123 1 158 -24 q 68 72 88 26 q 49 181 49 118 q 68 318 49 244 q 126 463 88 392 q 222 592 165 533 q 350 685 278 650 q 511 721 422 721 q 594 710 550 721 q 681 681 639 700 l 682 686 q 703 710 689 706 q 740 715 717 715 q 795 702 783 715 q 797 661 807 689 l 624 143 q 615 106 615 118 q 619 89 614 93 q 632 85 625 85 q 660 94 646 85 q 692 120 675 103 q 729 161 710 138 q 751 177 740 175 q 778 168 763 179 q 805 140 800 154 q 803 113 810 126 q 763 60 790 92 q 695 3 735 28 q 604 -21 656 -21 q 528 2 553 -21 q 500 60 504 25 q 503 133 496 94 q 522 206 511 172 q 526 212 525 208 q 528 219 526 215 q 413 83 469 138 q 305 3 357 29 q 206 -24 253 -24 m 175 203 q 183 142 175 168 q 208 101 192 115 q 244 88 224 88 q 356 140 293 88 q 488 292 418 192 q 632 536 558 392 l 647 582 q 563 606 603 600 q 492 611 524 611 q 382 583 432 611 q 294 510 332 556 q 229 410 256 465 q 189 301 203 356 q 175 203 175 247 m 386 847 q 355 863 368 847 q 342 894 342 878 q 347 915 342 907 q 358 929 353 924 l 578 1136 q 617 1160 597 1154 q 658 1167 636 1167 q 692 1158 676 1167 q 717 1131 708 1149 l 831 918 q 838 901 836 908 q 839 888 839 894 q 819 859 839 871 q 785 847 799 847 q 763 854 771 847 q 749 869 756 861 l 629 1026 l 425 868 q 407 855 417 863 q 386 847 397 847 z "},"ä":{"ha":865,"x_min":49,"x_max":869,"o":"m 206 -24 q 123 1 158 -24 q 68 72 88 26 q 49 181 49 118 q 68 318 49 244 q 126 463 88 392 q 222 592 165 533 q 350 685 278 650 q 511 721 422 721 q 594 710 550 721 q 681 681 639 700 l 682 686 q 703 710 689 706 q 740 715 717 715 q 795 702 783 715 q 797 661 807 689 l 624 143 q 615 106 615 118 q 619 89 614 93 q 632 85 625 85 q 660 94 646 85 q 692 120 675 103 q 729 161 710 138 q 751 177 740 175 q 778 168 763 179 q 805 140 800 154 q 803 113 810 126 q 763 60 790 92 q 695 3 735 28 q 604 -21 656 -21 q 528 2 553 -21 q 500 60 504 25 q 503 133 496 94 q 522 206 511 172 q 526 212 525 208 q 528 219 526 215 q 413 83 469 138 q 305 3 357 29 q 206 -24 253 -24 m 175 203 q 183 142 175 168 q 208 101 192 115 q 244 88 224 88 q 356 140 293 88 q 488 292 418 192 q 632 536 558 392 l 647 582 q 563 606 603 600 q 492 611 524 611 q 382 583 432 611 q 294 510 332 556 q 229 410 256 465 q 189 301 203 356 q 175 203 175 247 m 438 929 q 390 947 410 929 q 371 1000 371 965 q 395 1071 371 1038 q 471 1104 419 1104 q 519 1087 500 1104 q 539 1033 539 1069 q 515 963 539 996 q 438 929 490 929 m 769 929 q 721 947 740 929 q 701 1000 701 965 q 726 1071 701 1038 q 801 1104 750 1104 q 850 1087 831 1104 q 869 1033 869 1069 q 846 963 869 996 q 769 929 822 929 z "},"ǽ":{"ha":1242,"x_min":47,"x_max":1214,"o":"m 47 182 q 69 319 47 246 q 131 464 90 393 q 233 593 172 535 q 374 686 294 651 q 549 721 453 721 q 648 711 600 721 q 748 681 696 701 q 863 626 800 661 q 749 451 794 551 q 703 236 703 351 q 717 157 703 192 q 759 103 731 122 q 833 85 788 85 q 917 103 879 85 q 990 153 956 122 q 1057 222 1025 185 q 1097 236 1075 242 q 1132 215 1118 231 q 1149 183 1147 200 q 1133 146 1151 167 q 1027 42 1081 79 q 921 -11 974 4 q 818 -26 868 -26 q 681 8 735 -26 q 603 100 628 42 q 578 228 578 158 q 603 386 578 308 q 664 531 628 464 q 733 646 700 597 l 750 557 q 660 596 711 581 q 540 611 608 611 q 386 569 454 611 q 271 460 318 526 q 199 321 224 394 q 175 185 175 247 q 183 131 175 153 q 208 98 192 108 q 250 88 225 88 q 347 126 296 88 q 452 227 399 164 q 558 368 506 290 q 660 525 611 446 l 757 508 q 593 251 668 354 q 454 88 518 149 q 335 2 390 28 q 226 -24 279 -24 q 91 35 135 -24 q 47 182 47 93 m 1214 556 q 1178 451 1214 497 q 1081 368 1142 404 q 945 306 1021 332 q 790 263 869 281 q 638 235 711 246 l 650 333 q 754 352 696 340 q 871 380 813 364 q 978 419 929 396 q 1058 474 1028 443 q 1088 546 1088 506 q 1064 596 1088 581 q 1000 611 1040 611 q 883 597 939 611 q 772 549 826 583 l 756 661 q 869 705 810 689 q 1014 721 929 721 q 1165 675 1117 721 q 1214 556 1214 629 m 742 856 q 712 869 729 856 q 694 897 694 882 q 698 915 694 907 q 708 932 701 924 l 879 1144 q 901 1167 892 1161 q 922 1172 911 1172 q 953 1163 936 1172 q 983 1138 971 1153 q 996 1106 996 1122 q 991 1088 996 1094 q 978 1074 986 1081 l 782 876 q 742 856 761 856 z "},"à":{"ha":865,"x_min":49,"x_max":810,"o":"m 206 -24 q 123 1 158 -24 q 68 72 88 26 q 49 181 49 118 q 68 318 49 244 q 126 463 88 392 q 222 592 165 533 q 350 685 278 650 q 511 721 422 721 q 594 710 550 721 q 681 681 639 700 l 682 686 q 703 710 689 706 q 740 715 717 715 q 795 702 783 715 q 797 661 807 689 l 624 143 q 615 106 615 118 q 619 89 614 93 q 632 85 625 85 q 660 94 646 85 q 692 120 675 103 q 729 161 710 138 q 751 177 740 175 q 778 168 763 179 q 805 140 800 154 q 803 113 810 126 q 763 60 790 92 q 695 3 735 28 q 604 -21 656 -21 q 528 2 553 -21 q 500 60 504 25 q 503 133 496 94 q 522 206 511 172 q 526 212 525 208 q 528 219 526 215 q 413 83 469 138 q 305 3 357 29 q 206 -24 253 -24 m 175 203 q 183 142 175 168 q 208 101 192 115 q 244 88 224 88 q 356 140 293 88 q 488 292 418 192 q 632 536 558 392 l 647 582 q 563 606 603 600 q 492 611 524 611 q 382 583 432 611 q 294 510 332 556 q 229 410 256 465 q 189 301 203 356 q 175 203 175 247 m 611 865 q 591 872 601 865 q 569 897 581 879 l 457 1099 q 449 1114 453 1107 q 446 1129 446 1121 q 458 1158 446 1144 q 490 1179 471 1171 q 526 1188 508 1188 q 575 1143 558 1188 l 654 931 q 658 919 657 925 q 660 907 660 913 q 644 876 660 886 q 611 865 628 865 z "},"ā":{"ha":865,"x_min":49,"x_max":849,"o":"m 206 -24 q 123 1 158 -24 q 68 72 88 26 q 49 181 49 118 q 68 318 49 244 q 126 463 88 392 q 222 592 165 533 q 350 685 278 650 q 511 721 422 721 q 594 710 550 721 q 681 681 639 700 l 682 686 q 703 710 689 706 q 740 715 717 715 q 795 702 783 715 q 797 661 807 689 l 624 143 q 615 106 615 118 q 619 89 614 93 q 632 85 625 85 q 660 94 646 85 q 692 120 675 103 q 729 161 710 138 q 751 177 740 175 q 778 168 763 179 q 805 140 800 154 q 803 113 810 126 q 763 60 790 92 q 695 3 735 28 q 604 -21 656 -21 q 528 2 553 -21 q 500 60 504 25 q 503 133 496 94 q 522 206 511 172 q 526 212 525 208 q 528 219 526 215 q 413 83 469 138 q 305 3 357 29 q 206 -24 253 -24 m 175 203 q 183 142 175 168 q 208 101 192 115 q 244 88 224 88 q 356 140 293 88 q 488 292 418 192 q 632 536 558 392 l 647 582 q 563 606 603 600 q 492 611 524 611 q 382 583 432 611 q 294 510 332 556 q 229 410 256 465 q 189 301 203 356 q 175 203 175 247 m 428 953 q 394 969 400 953 q 394 1011 389 986 q 414 1056 401 1040 q 451 1071 426 1071 l 810 1071 q 843 1054 838 1071 q 842 1011 849 1038 q 822 967 835 982 q 785 953 810 953 l 428 953 z "},"ą":{"ha":865,"x_min":49,"x_max":810,"o":"m 206 -24 q 123 1 158 -24 q 68 72 88 26 q 49 181 49 118 q 68 318 49 244 q 126 463 88 392 q 222 592 165 533 q 350 685 278 650 q 511 721 422 721 q 594 710 550 721 q 681 681 639 700 l 682 686 q 703 710 689 706 q 740 715 717 715 q 795 702 783 715 q 797 661 807 689 l 624 143 q 615 106 615 118 q 619 89 614 93 q 632 85 625 85 q 660 94 646 85 q 692 120 675 103 q 729 161 710 138 q 751 177 740 175 q 778 168 763 179 q 805 140 800 154 q 803 113 810 126 q 763 60 790 92 q 695 3 735 28 q 604 -21 656 -21 q 528 2 553 -21 q 500 60 504 25 q 503 133 496 94 q 522 206 511 172 q 526 212 525 208 q 528 219 526 215 q 413 83 469 138 q 305 3 357 29 q 206 -24 253 -24 m 175 203 q 183 142 175 168 q 208 101 192 115 q 244 88 224 88 q 356 140 293 88 q 488 292 418 192 q 632 536 558 392 l 647 582 q 563 606 603 600 q 492 611 524 611 q 382 583 432 611 q 294 510 332 556 q 229 410 256 465 q 189 301 203 356 q 175 203 175 247 m 458 -339 q 397 -318 419 -339 q 374 -258 374 -297 q 392 -188 374 -224 q 447 -116 411 -153 q 535 -40 483 -79 q 653 46 588 0 l 736 43 l 736 36 q 642 -41 685 -4 q 568 -110 599 -78 q 521 -167 538 -142 q 504 -210 504 -192 q 510 -228 504 -222 q 526 -233 517 -233 q 576 -216 551 -233 q 639 -165 601 -199 q 661 -156 646 -158 q 692 -169 676 -154 q 705 -194 703 -181 q 699 -219 707 -207 q 631 -281 672 -254 q 544 -324 589 -308 q 458 -339 499 -339 z "},"å":{"ha":865,"x_min":49,"x_max":810,"o":"m 206 -24 q 123 1 158 -24 q 68 72 88 26 q 49 181 49 118 q 68 318 49 244 q 126 463 88 392 q 222 592 165 533 q 350 685 278 650 q 511 721 422 721 q 594 710 550 721 q 681 681 639 700 l 682 686 q 703 710 689 706 q 740 715 717 715 q 795 702 783 715 q 797 661 807 689 l 624 143 q 615 106 615 118 q 619 89 614 93 q 632 85 625 85 q 660 94 646 85 q 692 120 675 103 q 729 161 710 138 q 751 177 740 175 q 778 168 763 179 q 805 140 800 154 q 803 113 810 126 q 763 60 790 92 q 695 3 735 28 q 604 -21 656 -21 q 528 2 553 -21 q 500 60 504 25 q 503 133 496 94 q 522 206 511 172 q 526 212 525 208 q 528 219 526 215 q 413 83 469 138 q 305 3 357 29 q 206 -24 253 -24 m 175 203 q 183 142 175 168 q 208 101 192 115 q 244 88 224 88 q 356 140 293 88 q 488 292 418 192 q 632 536 558 392 l 647 582 q 563 606 603 600 q 492 611 524 611 q 382 583 432 611 q 294 510 332 556 q 229 410 256 465 q 189 301 203 356 q 175 203 175 247 m 590 835 q 472 876 514 835 q 431 993 431 917 q 459 1095 431 1050 q 536 1167 488 1140 q 643 1194 585 1194 q 767 1155 724 1194 q 810 1039 810 1115 q 781 935 810 982 q 703 862 753 889 q 590 835 653 835 m 597 918 q 653 935 628 918 q 693 978 678 951 q 708 1036 708 1006 q 691 1093 708 1075 q 638 1111 674 1111 q 585 1094 610 1111 q 547 1051 561 1078 q 532 994 532 1025 q 549 938 532 957 q 597 918 565 918 z "},"ã":{"ha":865,"x_min":49,"x_max":883,"o":"m 206 -24 q 123 1 158 -24 q 68 72 88 26 q 49 181 49 118 q 68 318 49 244 q 126 463 88 392 q 222 592 165 533 q 350 685 278 650 q 511 721 422 721 q 594 710 550 721 q 681 681 639 700 l 682 686 q 703 710 689 706 q 740 715 717 715 q 795 702 783 715 q 797 661 807 689 l 624 143 q 615 106 615 118 q 619 89 614 93 q 632 85 625 85 q 660 94 646 85 q 692 120 675 103 q 729 161 710 138 q 751 177 740 175 q 778 168 763 179 q 805 140 800 154 q 803 113 810 126 q 763 60 790 92 q 695 3 735 28 q 604 -21 656 -21 q 528 2 553 -21 q 500 60 504 25 q 503 133 496 94 q 522 206 511 172 q 526 212 525 208 q 528 219 526 215 q 413 83 469 138 q 305 3 357 29 q 206 -24 253 -24 m 175 203 q 183 142 175 168 q 208 101 192 115 q 244 88 224 88 q 356 140 293 88 q 488 292 418 192 q 632 536 558 392 l 647 582 q 563 606 603 600 q 492 611 524 611 q 382 583 432 611 q 294 510 332 556 q 229 410 256 465 q 189 301 203 356 q 175 203 175 247 m 389 889 q 347 928 346 889 q 387 1066 353 1019 q 479 1113 421 1113 q 559 1097 521 1113 q 631 1063 597 1082 q 694 1028 665 1043 q 744 1013 722 1013 q 768 1028 757 1013 q 785 1078 779 1043 q 844 1115 792 1115 q 875 1106 867 1115 q 882 1078 883 1097 q 845 938 876 986 q 749 890 814 890 q 668 906 706 890 q 598 940 631 921 q 538 975 565 960 q 485 990 510 990 q 458 974 468 990 q 443 925 447 958 q 426 898 440 907 q 389 889 413 889 z "},"ắ":{"ha":865,"x_min":49,"x_max":901,"o":"m 206 -24 q 123 1 158 -24 q 68 72 88 26 q 49 181 49 118 q 68 318 49 244 q 126 463 88 392 q 222 592 165 533 q 350 685 278 650 q 511 721 422 721 q 594 710 550 721 q 681 681 639 700 l 682 686 q 703 710 689 706 q 740 715 717 715 q 795 702 783 715 q 797 661 807 689 l 624 143 q 615 106 615 118 q 619 89 614 93 q 632 85 625 85 q 660 94 646 85 q 692 120 675 103 q 729 161 710 138 q 751 177 740 175 q 778 168 763 179 q 805 140 800 154 q 803 113 810 126 q 763 60 790 92 q 695 3 735 28 q 604 -21 656 -21 q 528 2 553 -21 q 500 60 504 25 q 503 133 496 94 q 522 206 511 172 q 526 212 525 208 q 528 219 526 215 q 413 83 469 138 q 305 3 357 29 q 206 -24 253 -24 m 175 203 q 183 142 175 168 q 208 101 192 115 q 244 88 224 88 q 356 140 293 88 q 488 292 418 192 q 632 536 558 392 l 647 582 q 563 606 603 600 q 492 611 524 611 q 382 583 432 611 q 294 510 332 556 q 229 410 256 465 q 189 301 203 356 q 175 203 175 247 m 588 858 q 432 931 481 858 q 407 1139 383 1004 q 423 1169 410 1160 q 458 1178 436 1178 q 495 1167 482 1178 q 507 1139 508 1156 q 529 1022 501 1063 q 608 981 557 981 q 717 1027 669 981 q 792 1133 765 1074 q 815 1167 803 1158 q 847 1175 826 1175 q 888 1163 875 1175 q 894 1129 901 1150 q 819 970 861 1029 q 720 885 776 911 q 588 858 664 858 m 631 1161 q 601 1174 618 1161 q 583 1203 583 1188 q 587 1221 583 1213 q 597 1238 590 1229 l 768 1450 q 790 1472 781 1467 q 811 1478 800 1478 q 842 1468 825 1478 q 872 1443 860 1458 q 885 1411 885 1428 q 880 1393 885 1400 q 867 1379 875 1386 l 671 1182 q 631 1161 650 1161 z "},"ặ":{"ha":865,"x_min":49,"x_max":901,"o":"m 206 -24 q 123 1 158 -24 q 68 72 88 26 q 49 181 49 118 q 68 318 49 244 q 126 463 88 392 q 222 592 165 533 q 350 685 278 650 q 511 721 422 721 q 594 710 550 721 q 681 681 639 700 l 682 686 q 703 710 689 706 q 740 715 717 715 q 795 702 783 715 q 797 661 807 689 l 624 143 q 615 106 615 118 q 619 89 614 93 q 632 85 625 85 q 660 94 646 85 q 692 120 675 103 q 729 161 710 138 q 751 177 740 175 q 778 168 763 179 q 805 140 800 154 q 803 113 810 126 q 763 60 790 92 q 695 3 735 28 q 604 -21 656 -21 q 528 2 553 -21 q 500 60 504 25 q 503 133 496 94 q 522 206 511 172 q 526 212 525 208 q 528 219 526 215 q 413 83 469 138 q 305 3 357 29 q 206 -24 253 -24 m 175 203 q 183 142 175 168 q 208 101 192 115 q 244 88 224 88 q 356 140 293 88 q 488 292 418 192 q 632 536 558 392 l 647 582 q 563 606 603 600 q 492 611 524 611 q 382 583 432 611 q 294 510 332 556 q 229 410 256 465 q 189 301 203 356 q 175 203 175 247 m 225 -322 q 178 -304 197 -322 q 158 -251 158 -286 q 183 -181 158 -214 q 258 -147 207 -147 q 307 -165 288 -147 q 326 -218 326 -183 q 302 -290 326 -257 q 225 -322 278 -322 m 588 858 q 432 931 481 858 q 407 1139 383 1004 q 423 1169 410 1160 q 458 1178 436 1178 q 495 1167 482 1178 q 507 1139 508 1156 q 529 1022 501 1063 q 608 981 557 981 q 717 1027 669 981 q 792 1133 765 1074 q 815 1167 803 1158 q 847 1175 826 1175 q 888 1163 875 1175 q 894 1129 901 1150 q 819 970 861 1029 q 720 885 776 911 q 588 858 664 858 z "},"ằ":{"ha":865,"x_min":49,"x_max":901,"o":"m 206 -24 q 123 1 158 -24 q 68 72 88 26 q 49 181 49 118 q 68 318 49 244 q 126 463 88 392 q 222 592 165 533 q 350 685 278 650 q 511 721 422 721 q 594 710 550 721 q 681 681 639 700 l 682 686 q 703 710 689 706 q 740 715 717 715 q 795 702 783 715 q 797 661 807 689 l 624 143 q 615 106 615 118 q 619 89 614 93 q 632 85 625 85 q 660 94 646 85 q 692 120 675 103 q 729 161 710 138 q 751 177 740 175 q 778 168 763 179 q 805 140 800 154 q 803 113 810 126 q 763 60 790 92 q 695 3 735 28 q 604 -21 656 -21 q 528 2 553 -21 q 500 60 504 25 q 503 133 496 94 q 522 206 511 172 q 526 212 525 208 q 528 219 526 215 q 413 83 469 138 q 305 3 357 29 q 206 -24 253 -24 m 175 203 q 183 142 175 168 q 208 101 192 115 q 244 88 224 88 q 356 140 293 88 q 488 292 418 192 q 632 536 558 392 l 647 582 q 563 606 603 600 q 492 611 524 611 q 382 583 432 611 q 294 510 332 556 q 229 410 256 465 q 189 301 203 356 q 175 203 175 247 m 588 858 q 432 931 481 858 q 407 1139 383 1004 q 423 1169 410 1160 q 458 1178 436 1178 q 495 1167 482 1178 q 507 1139 508 1156 q 529 1022 501 1063 q 608 981 557 981 q 717 1027 669 981 q 792 1133 765 1074 q 815 1167 803 1158 q 847 1175 826 1175 q 888 1163 875 1175 q 894 1129 901 1150 q 819 970 861 1029 q 720 885 776 911 q 588 858 664 858 m 689 1164 q 669 1171 679 1164 q 647 1196 658 1178 l 535 1397 q 527 1413 531 1406 q 524 1428 524 1419 q 536 1456 524 1443 q 567 1478 549 1469 q 604 1486 586 1486 q 653 1442 636 1486 l 732 1229 q 736 1217 735 1224 q 738 1206 738 1211 q 722 1174 738 1185 q 689 1164 706 1164 z "},"ẳ":{"ha":865,"x_min":49,"x_max":901,"o":"m 206 -24 q 123 1 158 -24 q 68 72 88 26 q 49 181 49 118 q 68 318 49 244 q 126 463 88 392 q 222 592 165 533 q 350 685 278 650 q 511 721 422 721 q 594 710 550 721 q 681 681 639 700 l 682 686 q 703 710 689 706 q 740 715 717 715 q 795 702 783 715 q 797 661 807 689 l 624 143 q 615 106 615 118 q 619 89 614 93 q 632 85 625 85 q 660 94 646 85 q 692 120 675 103 q 729 161 710 138 q 751 177 740 175 q 778 168 763 179 q 805 140 800 154 q 803 113 810 126 q 763 60 790 92 q 695 3 735 28 q 604 -21 656 -21 q 528 2 553 -21 q 500 60 504 25 q 503 133 496 94 q 522 206 511 172 q 526 212 525 208 q 528 219 526 215 q 413 83 469 138 q 305 3 357 29 q 206 -24 253 -24 m 175 203 q 183 142 175 168 q 208 101 192 115 q 244 88 224 88 q 356 140 293 88 q 488 292 418 192 q 632 536 558 392 l 647 582 q 563 606 603 600 q 492 611 524 611 q 382 583 432 611 q 294 510 332 556 q 229 410 256 465 q 189 301 203 356 q 175 203 175 247 m 588 858 q 432 931 481 858 q 407 1139 383 1004 q 423 1169 410 1160 q 458 1178 436 1178 q 495 1167 482 1178 q 507 1139 508 1156 q 529 1022 501 1063 q 608 981 557 981 q 717 1027 669 981 q 792 1133 765 1074 q 815 1167 803 1158 q 847 1175 826 1175 q 888 1163 875 1175 q 894 1129 901 1150 q 819 970 861 1029 q 720 885 776 911 q 588 858 664 858 m 699 1456 q 796 1428 761 1456 q 831 1351 831 1401 q 810 1282 831 1314 q 747 1219 790 1250 q 715 1192 725 1204 q 703 1165 706 1181 l 697 1136 q 679 1110 694 1118 q 645 1103 664 1101 q 613 1113 626 1104 q 599 1140 599 1122 l 599 1178 q 610 1235 599 1213 q 649 1276 622 1258 q 684 1308 672 1294 q 696 1332 696 1322 q 688 1350 696 1344 q 663 1356 679 1356 q 631 1351 649 1356 q 589 1338 613 1346 q 557 1337 571 1331 q 533 1364 543 1343 q 557 1425 518 1406 q 624 1448 590 1440 q 699 1456 658 1456 z "},"ẵ":{"ha":865,"x_min":49,"x_max":968,"o":"m 206 -24 q 123 1 158 -24 q 68 72 88 26 q 49 181 49 118 q 68 318 49 244 q 126 463 88 392 q 222 592 165 533 q 350 685 278 650 q 511 721 422 721 q 594 710 550 721 q 681 681 639 700 l 682 686 q 703 710 689 706 q 740 715 717 715 q 795 702 783 715 q 797 661 807 689 l 624 143 q 615 106 615 118 q 619 89 614 93 q 632 85 625 85 q 660 94 646 85 q 692 120 675 103 q 729 161 710 138 q 751 177 740 175 q 778 168 763 179 q 805 140 800 154 q 803 113 810 126 q 763 60 790 92 q 695 3 735 28 q 604 -21 656 -21 q 528 2 553 -21 q 500 60 504 25 q 503 133 496 94 q 522 206 511 172 q 526 212 525 208 q 528 219 526 215 q 413 83 469 138 q 305 3 357 29 q 206 -24 253 -24 m 175 203 q 183 142 175 168 q 208 101 192 115 q 244 88 224 88 q 356 140 293 88 q 488 292 418 192 q 632 536 558 392 l 647 582 q 563 606 603 600 q 492 611 524 611 q 382 583 432 611 q 294 510 332 556 q 229 410 256 465 q 189 301 203 356 q 175 203 175 247 m 588 858 q 432 931 481 858 q 407 1139 383 1004 q 423 1169 410 1160 q 458 1178 436 1178 q 495 1167 482 1178 q 507 1139 508 1156 q 529 1022 501 1063 q 608 981 557 981 q 717 1027 669 981 q 792 1133 765 1074 q 815 1167 803 1158 q 847 1175 826 1175 q 888 1163 875 1175 q 894 1129 901 1150 q 819 970 861 1029 q 720 885 776 911 q 588 858 664 858 m 474 1219 q 432 1258 431 1219 q 472 1397 438 1350 q 564 1443 506 1443 q 644 1428 606 1443 q 716 1393 682 1413 q 778 1358 750 1374 q 829 1343 807 1343 q 853 1358 842 1343 q 869 1408 864 1374 q 929 1446 876 1446 q 960 1437 951 1446 q 967 1408 968 1428 q 930 1269 961 1317 q 833 1221 899 1221 q 753 1236 790 1221 q 683 1271 715 1251 q 622 1306 650 1290 q 569 1321 594 1321 q 542 1305 553 1321 q 528 1256 532 1289 q 511 1228 525 1238 q 474 1219 497 1219 z "},"ấ":{"ha":865,"x_min":49,"x_max":1092,"o":"m 206 -24 q 123 1 158 -24 q 68 72 88 26 q 49 181 49 118 q 68 318 49 244 q 126 463 88 392 q 222 592 165 533 q 350 685 278 650 q 511 721 422 721 q 594 710 550 721 q 681 681 639 700 l 682 686 q 703 710 689 706 q 740 715 717 715 q 795 702 783 715 q 797 661 807 689 l 624 143 q 615 106 615 118 q 619 89 614 93 q 632 85 625 85 q 660 94 646 85 q 692 120 675 103 q 729 161 710 138 q 751 177 740 175 q 778 168 763 179 q 805 140 800 154 q 803 113 810 126 q 763 60 790 92 q 695 3 735 28 q 604 -21 656 -21 q 528 2 553 -21 q 500 60 504 25 q 503 133 496 94 q 522 206 511 172 q 526 212 525 208 q 528 219 526 215 q 413 83 469 138 q 305 3 357 29 q 206 -24 253 -24 m 175 203 q 183 142 175 168 q 208 101 192 115 q 244 88 224 88 q 356 140 293 88 q 488 292 418 192 q 632 536 558 392 l 647 582 q 563 606 603 600 q 492 611 524 611 q 382 583 432 611 q 294 510 332 556 q 229 410 256 465 q 189 301 203 356 q 175 203 175 247 m 386 847 q 355 863 368 847 q 342 894 342 878 q 347 915 342 907 q 358 929 353 924 l 578 1136 q 617 1160 597 1154 q 658 1167 636 1167 q 692 1158 676 1167 q 717 1131 708 1149 l 831 918 q 838 901 836 908 q 839 888 839 894 q 819 859 839 871 q 785 847 799 847 q 763 854 771 847 q 749 869 756 861 l 629 1026 l 425 868 q 407 855 417 863 q 386 847 397 847 m 838 1064 q 808 1077 825 1064 q 790 1106 790 1090 q 794 1124 790 1115 q 804 1140 797 1132 l 975 1353 q 997 1375 988 1369 q 1018 1381 1007 1381 q 1049 1371 1032 1381 q 1079 1346 1067 1361 q 1092 1314 1092 1331 q 1087 1296 1092 1303 q 1074 1282 1082 1289 l 878 1085 q 838 1064 857 1064 z "},"ậ":{"ha":865,"x_min":49,"x_max":839,"o":"m 206 -24 q 123 1 158 -24 q 68 72 88 26 q 49 181 49 118 q 68 318 49 244 q 126 463 88 392 q 222 592 165 533 q 350 685 278 650 q 511 721 422 721 q 594 710 550 721 q 681 681 639 700 l 682 686 q 703 710 689 706 q 740 715 717 715 q 795 702 783 715 q 797 661 807 689 l 624 143 q 615 106 615 118 q 619 89 614 93 q 632 85 625 85 q 660 94 646 85 q 692 120 675 103 q 729 161 710 138 q 751 177 740 175 q 778 168 763 179 q 805 140 800 154 q 803 113 810 126 q 763 60 790 92 q 695 3 735 28 q 604 -21 656 -21 q 528 2 553 -21 q 500 60 504 25 q 503 133 496 94 q 522 206 511 172 q 526 212 525 208 q 528 219 526 215 q 413 83 469 138 q 305 3 357 29 q 206 -24 253 -24 m 175 203 q 183 142 175 168 q 208 101 192 115 q 244 88 224 88 q 356 140 293 88 q 488 292 418 192 q 632 536 558 392 l 647 582 q 563 606 603 600 q 492 611 524 611 q 382 583 432 611 q 294 510 332 556 q 229 410 256 465 q 189 301 203 356 q 175 203 175 247 m 225 -322 q 178 -304 197 -322 q 158 -251 158 -286 q 183 -181 158 -214 q 258 -147 207 -147 q 307 -165 288 -147 q 326 -218 326 -183 q 302 -290 326 -257 q 225 -322 278 -322 m 386 847 q 355 863 368 847 q 342 894 342 878 q 347 915 342 907 q 358 929 353 924 l 578 1136 q 617 1160 597 1154 q 658 1167 636 1167 q 692 1158 676 1167 q 717 1131 708 1149 l 831 918 q 838 901 836 908 q 839 888 839 894 q 819 859 839 871 q 785 847 799 847 q 763 854 771 847 q 749 869 756 861 l 629 1026 l 425 868 q 407 855 417 863 q 386 847 397 847 z "},"ầ":{"ha":865,"x_min":49,"x_max":925,"o":"m 206 -24 q 123 1 158 -24 q 68 72 88 26 q 49 181 49 118 q 68 318 49 244 q 126 463 88 392 q 222 592 165 533 q 350 685 278 650 q 511 721 422 721 q 594 710 550 721 q 681 681 639 700 l 682 686 q 703 710 689 706 q 740 715 717 715 q 795 702 783 715 q 797 661 807 689 l 624 143 q 615 106 615 118 q 619 89 614 93 q 632 85 625 85 q 660 94 646 85 q 692 120 675 103 q 729 161 710 138 q 751 177 740 175 q 778 168 763 179 q 805 140 800 154 q 803 113 810 126 q 763 60 790 92 q 695 3 735 28 q 604 -21 656 -21 q 528 2 553 -21 q 500 60 504 25 q 503 133 496 94 q 522 206 511 172 q 526 212 525 208 q 528 219 526 215 q 413 83 469 138 q 305 3 357 29 q 206 -24 253 -24 m 175 203 q 183 142 175 168 q 208 101 192 115 q 244 88 224 88 q 356 140 293 88 q 488 292 418 192 q 632 536 558 392 l 647 582 q 563 606 603 600 q 492 611 524 611 q 382 583 432 611 q 294 510 332 556 q 229 410 256 465 q 189 301 203 356 q 175 203 175 247 m 386 847 q 355 863 368 847 q 342 894 342 878 q 347 915 342 907 q 358 929 353 924 l 578 1136 q 617 1160 597 1154 q 658 1167 636 1167 q 692 1158 676 1167 q 717 1131 708 1149 l 831 918 q 838 901 836 908 q 839 888 839 894 q 819 859 839 871 q 785 847 799 847 q 763 854 771 847 q 749 869 756 861 l 629 1026 l 425 868 q 407 855 417 863 q 386 847 397 847 m 876 1074 q 856 1081 867 1074 q 835 1106 846 1088 l 722 1307 q 715 1322 718 1315 q 711 1338 711 1329 q 724 1366 711 1353 q 755 1388 736 1379 q 792 1396 774 1396 q 840 1351 824 1396 l 919 1139 q 924 1127 922 1133 q 925 1115 925 1121 q 909 1084 925 1094 q 876 1074 893 1074 z "},"ẩ":{"ha":865,"x_min":49,"x_max":1033,"o":"m 206 -24 q 123 1 158 -24 q 68 72 88 26 q 49 181 49 118 q 68 318 49 244 q 126 463 88 392 q 222 592 165 533 q 350 685 278 650 q 511 721 422 721 q 594 710 550 721 q 681 681 639 700 l 682 686 q 703 710 689 706 q 740 715 717 715 q 795 702 783 715 q 797 661 807 689 l 624 143 q 615 106 615 118 q 619 89 614 93 q 632 85 625 85 q 660 94 646 85 q 692 120 675 103 q 729 161 710 138 q 751 177 740 175 q 778 168 763 179 q 805 140 800 154 q 803 113 810 126 q 763 60 790 92 q 695 3 735 28 q 604 -21 656 -21 q 528 2 553 -21 q 500 60 504 25 q 503 133 496 94 q 522 206 511 172 q 526 212 525 208 q 528 219 526 215 q 413 83 469 138 q 305 3 357 29 q 206 -24 253 -24 m 175 203 q 183 142 175 168 q 208 101 192 115 q 244 88 224 88 q 356 140 293 88 q 488 292 418 192 q 632 536 558 392 l 647 582 q 563 606 603 600 q 492 611 524 611 q 382 583 432 611 q 294 510 332 556 q 229 410 256 465 q 189 301 203 356 q 175 203 175 247 m 386 847 q 355 863 368 847 q 342 894 342 878 q 347 915 342 907 q 358 929 353 924 l 578 1136 q 617 1160 597 1154 q 658 1167 636 1167 q 692 1158 676 1167 q 717 1131 708 1149 l 831 918 q 838 901 836 908 q 839 888 839 894 q 819 859 839 871 q 785 847 799 847 q 763 854 771 847 q 749 869 756 861 l 629 1026 l 425 868 q 407 855 417 863 q 386 847 397 847 m 901 1403 q 999 1376 964 1403 q 1033 1299 1033 1349 q 1013 1229 1033 1261 q 950 1167 993 1197 q 918 1140 928 1151 q 906 1113 908 1128 l 900 1083 q 882 1057 897 1065 q 848 1050 867 1049 q 815 1060 829 1051 q 801 1088 801 1069 l 801 1125 q 813 1183 801 1160 q 851 1224 825 1206 q 887 1256 875 1242 q 899 1279 899 1269 q 890 1297 899 1292 q 865 1303 882 1303 q 833 1298 851 1303 q 792 1285 815 1293 q 760 1284 774 1278 q 736 1311 746 1290 q 760 1372 721 1353 q 827 1395 793 1388 q 901 1403 861 1403 z "},"ẫ":{"ha":865,"x_min":49,"x_max":961,"o":"m 206 -24 q 123 1 158 -24 q 68 72 88 26 q 49 181 49 118 q 68 318 49 244 q 126 463 88 392 q 222 592 165 533 q 350 685 278 650 q 511 721 422 721 q 594 710 550 721 q 681 681 639 700 l 682 686 q 703 710 689 706 q 740 715 717 715 q 795 702 783 715 q 797 661 807 689 l 624 143 q 615 106 615 118 q 619 89 614 93 q 632 85 625 85 q 660 94 646 85 q 692 120 675 103 q 729 161 710 138 q 751 177 740 175 q 778 168 763 179 q 805 140 800 154 q 803 113 810 126 q 763 60 790 92 q 695 3 735 28 q 604 -21 656 -21 q 528 2 553 -21 q 500 60 504 25 q 503 133 496 94 q 522 206 511 172 q 526 212 525 208 q 528 219 526 215 q 413 83 469 138 q 305 3 357 29 q 206 -24 253 -24 m 175 203 q 183 142 175 168 q 208 101 192 115 q 244 88 224 88 q 356 140 293 88 q 488 292 418 192 q 632 536 558 392 l 647 582 q 563 606 603 600 q 492 611 524 611 q 382 583 432 611 q 294 510 332 556 q 229 410 256 465 q 189 301 203 356 q 175 203 175 247 m 386 847 q 355 863 368 847 q 342 894 342 878 q 347 915 342 907 q 358 929 353 924 l 578 1136 q 617 1160 597 1154 q 658 1167 636 1167 q 692 1158 676 1167 q 717 1131 708 1149 l 831 918 q 838 901 836 908 q 839 888 839 894 q 819 859 839 871 q 785 847 799 847 q 763 854 771 847 q 749 869 756 861 l 629 1026 l 425 868 q 407 855 417 863 q 386 847 397 847 m 467 1219 q 425 1258 424 1219 q 465 1397 431 1350 q 557 1443 499 1443 q 637 1428 599 1443 q 709 1393 675 1413 q 772 1358 743 1374 q 822 1343 800 1343 q 846 1358 835 1343 q 863 1408 857 1374 q 922 1446 869 1446 q 953 1437 944 1446 q 960 1408 961 1428 q 923 1269 954 1317 q 826 1221 892 1221 q 746 1236 783 1221 q 676 1271 708 1251 q 615 1306 643 1290 q 563 1321 588 1321 q 535 1305 546 1321 q 521 1256 525 1289 q 504 1228 518 1238 q 467 1219 490 1219 z "},"ạ":{"ha":865,"x_min":49,"x_max":810,"o":"m 206 -24 q 123 1 158 -24 q 68 72 88 26 q 49 181 49 118 q 68 318 49 244 q 126 463 88 392 q 222 592 165 533 q 350 685 278 650 q 511 721 422 721 q 594 710 550 721 q 681 681 639 700 l 682 686 q 703 710 689 706 q 740 715 717 715 q 795 702 783 715 q 797 661 807 689 l 624 143 q 615 106 615 118 q 619 89 614 93 q 632 85 625 85 q 660 94 646 85 q 692 120 675 103 q 729 161 710 138 q 751 177 740 175 q 778 168 763 179 q 805 140 800 154 q 803 113 810 126 q 763 60 790 92 q 695 3 735 28 q 604 -21 656 -21 q 528 2 553 -21 q 500 60 504 25 q 503 133 496 94 q 522 206 511 172 q 526 212 525 208 q 528 219 526 215 q 413 83 469 138 q 305 3 357 29 q 206 -24 253 -24 m 175 203 q 183 142 175 168 q 208 101 192 115 q 244 88 224 88 q 356 140 293 88 q 488 292 418 192 q 632 536 558 392 l 647 582 q 563 606 603 600 q 492 611 524 611 q 382 583 432 611 q 294 510 332 556 q 229 410 256 465 q 189 301 203 356 q 175 203 175 247 m 225 -322 q 178 -304 197 -322 q 158 -251 158 -286 q 183 -181 158 -214 q 258 -147 207 -147 q 307 -165 288 -147 q 326 -218 326 -183 q 302 -290 326 -257 q 225 -322 278 -322 z "}}}
